<svg width="32" height="33" viewBox="0 0 32 33" fill="none" xmlns="http://www.w3.org/2000/svg">
<circle cx="16" cy="16.2998" r="16" fill="#A87E72"/>
<path d="M10.7031 7.95605C10.7031 7.95605 11.0703 7.59668 11.8047 6.87793C12.5391 6.15918 13.9375 5.7998 16 5.7998C18.0625 5.7998 19.8281 6.51855 21.2969 7.95605C22.7656 9.39355 23.5 11.1279 23.5 13.1592C23.5 14.7842 22.875 16.7373 21.625 19.0186C20.375 21.2998 19.125 23.1748 17.875 24.6436L16 26.7998C15.7812 26.5811 15.5078 26.2764 15.1797 25.8857C14.8516 25.4951 14.2578 24.7373 13.3984 23.6123C12.5391 22.4873 11.7812 21.3936 11.125 20.3311C10.4688 19.2686 9.86719 18.0654 9.32031 16.7217C8.77344 15.3779 8.5 14.1904 8.5 13.1592C8.5 11.1279 9.23438 9.39355 10.7031 7.95605ZM14.1016 15.0107C14.1016 15.0107 14.2305 15.1396 14.4883 15.3975C14.7461 15.6553 15.25 15.7842 16 15.7842C16.75 15.7842 17.3828 15.5264 17.8984 15.0107C18.4141 14.4951 18.6719 13.8779 18.6719 13.1592C18.6719 12.4404 18.4141 11.8232 17.8984 11.3076C17.3828 10.792 16.75 10.5342 16 10.5342C15.25 10.5342 14.6172 10.792 14.1016 11.3076C13.5859 11.8232 13.3281 12.4404 13.3281 13.1592C13.3281 13.8779 13.5859 14.4951 14.1016 15.0107Z" fill="white"/>
</svg>
