<svg width="32" height="33" viewBox="0 0 32 33" fill="none" xmlns="http://www.w3.org/2000/svg">
<circle cx="16" cy="16.2998" r="16" fill="#A87E72"/>
<path d="M23.4732 20.0498C24.4107 20.9873 24.4107 22.0186 23.4732 23.1436C23.0982 23.5811 22.731 23.9092 22.3717 24.1279C22.0123 24.3467 21.7154 24.4717 21.481 24.5029C21.2467 24.5342 20.9107 24.5498 20.4732 24.5498C19.2545 24.5498 17.8013 23.9248 16.1138 22.6748C14.7701 21.7061 13.5513 20.6592 12.4576 19.5342C11.0513 18.0654 9.81696 16.3936 8.75446 14.5186C7.81696 12.7686 7.53571 11.3311 7.91071 10.2061C8.09821 9.6123 8.53571 9.09668 9.22321 8.65918L9.27009 8.6123C9.83259 8.2373 10.3326 8.0498 10.7701 8.0498C11.3638 8.0498 11.8951 8.33105 12.3638 8.89355L12.4107 8.94043C13.1295 9.87793 13.6295 10.6123 13.9107 11.1436C14.3795 12.1123 14.3638 12.9404 13.8638 13.6279C13.4888 14.1279 13.3013 14.4873 13.3013 14.7061C13.3013 14.7998 13.5045 15.0811 13.9107 15.5498L13.9576 15.5967C14.7076 16.4404 15.1138 16.8936 15.1763 16.9561C15.2076 16.9561 15.2388 16.9717 15.2701 17.0029C15.3013 17.0342 15.3326 17.0654 15.3638 17.0967L15.4576 17.1904C16.0826 17.8154 16.5357 18.2529 16.817 18.5029L16.8638 18.5498C17.1451 18.7998 17.3326 18.9248 17.4263 18.9248C17.5826 18.9248 18.0357 18.6904 18.7857 18.2217C19.0045 18.0654 19.2701 17.9873 19.5826 17.9873C20.1451 17.9873 20.8248 18.2217 21.6217 18.6904C22.4185 19.1592 23.0357 19.6123 23.4732 20.0498Z" fill="white"/>
</svg>
