<svg width="32" height="33" viewBox="0 0 32 33" fill="none" xmlns="http://www.w3.org/2000/svg">
<circle cx="16" cy="16.2998" r="16" fill="#A87E72"/>
<path d="M9.2 23.0998C8.88 23.0998 8.6 22.9798 8.36 22.7398C8.12 22.4998 8 22.2198 8 21.8998V11.4998C8 11.1798 8.12 10.8998 8.36 10.6598C8.6 10.4198 8.88 10.2998 9.2 10.2998H22.8C23.12 10.2998 23.4 10.4198 23.64 10.6598C23.88 10.8998 24 11.1798 24 11.4998V21.8998C24 22.2198 23.88 22.4998 23.64 22.7398C23.4 22.9798 23.12 23.0998 22.8 23.0998H9.2ZM16 17.0598L22.8 12.5998V11.4998L16 15.8598L9.2 11.4998V12.5998L16 17.0598Z" fill="white"/>
</svg>
