<svg width="48" height="49" viewBox="0 0 48 49" fill="none" xmlns="http://www.w3.org/2000/svg">
<rect y="0.299805" width="48" height="48" rx="2" fill="#A87E72"/>
<g clip-path="url(#clip0_357_1900)">
<path fill-rule="evenodd" clip-rule="evenodd" d="M14.2201 23.8598C20.9301 20.9348 25.4051 19.0098 27.6451 18.0748C34.0401 15.4148 35.3651 14.9548 36.2301 14.9398C36.4201 14.9348 36.8451 14.9848 37.1201 15.2098C37.3551 15.3998 37.4151 15.6548 37.4501 15.8348C37.4801 16.0148 37.5201 16.4198 37.4901 16.7398C37.1451 20.3798 35.6451 29.2148 34.8801 33.2898C34.5551 35.0148 33.9201 35.5948 33.3051 35.6498C31.9701 35.7748 30.9551 34.7648 29.6601 33.9198C27.6351 32.5898 26.4901 31.7648 24.5251 30.4698C22.2501 28.9698 23.7251 28.1498 25.0201 26.8048C25.3601 26.4548 31.2501 21.0948 31.3651 20.6098C31.3801 20.5498 31.3901 20.3248 31.2601 20.2048C31.1251 20.0848 30.9251 20.1248 30.7851 20.1598C30.5801 20.2048 27.3451 22.3448 21.0751 26.5798C20.1551 27.2098 19.3251 27.5198 18.5801 27.4998C17.7601 27.4798 16.1751 27.0348 15.0001 26.6548C13.5501 26.1748 12.4051 25.9298 12.5051 25.1298C12.5601 24.7148 13.1301 24.2948 14.2201 23.8598Z" fill="white"/>
</g>
<defs>
<clipPath id="clip0_357_1900">
<rect width="25" height="25" fill="white" transform="translate(12.5 12.7998)"/>
</clipPath>
</defs>
</svg>
