<svg width="48" height="49" viewBox="0 0 48 49" fill="none" xmlns="http://www.w3.org/2000/svg">
<rect y="0.299805" width="48" height="48" rx="2" fill="#A87E72"/>
<g clip-path="url(#clip0_357_1901)">
<path d="M37.5001 23.4547C37.5001 24.6797 37.5001 25.9097 37.5001 27.1347C37.4851 27.1197 37.4751 27.1297 37.4751 27.1447C37.4701 27.1797 37.4651 27.2197 37.4651 27.2547C37.4551 27.4597 37.4501 27.6697 37.4351 27.8747C37.4001 28.4797 37.3501 29.0847 37.2801 29.6897C37.2201 30.2047 37.1451 30.7147 37.0201 31.2147C36.7251 32.4197 35.8351 33.2997 34.6201 33.5697C34.1351 33.6797 33.6401 33.7297 33.1451 33.7747C32.3151 33.8547 31.4851 33.8997 30.6501 33.9347C29.8601 33.9697 29.0701 33.9947 28.2801 34.0097C26.8301 34.0397 25.3801 34.0647 23.9301 34.0447C22.6701 34.0297 21.4101 34.0097 20.1501 33.9597C18.9951 33.9197 17.8401 33.8647 16.6901 33.7497C16.2701 33.7097 15.8551 33.6597 15.4451 33.5697C14.4551 33.3547 13.7251 32.7997 13.2551 31.8997C13.0751 31.5547 12.9851 31.1747 12.9151 30.7947C12.7351 29.8497 12.6551 28.8947 12.5951 27.9347C12.5651 27.4197 12.5401 26.9047 12.5301 26.3847C12.5301 26.3597 12.5301 26.3397 12.5251 26.3147C12.5201 26.2997 12.5101 26.2947 12.4951 26.3047C12.4951 25.6497 12.4951 24.9997 12.4951 24.3447C12.5201 24.3497 12.5251 24.3347 12.5251 24.3197C12.5301 24.2747 12.5301 24.2347 12.5301 24.1897C12.5401 23.7547 12.5601 23.3247 12.5801 22.8897C12.6201 22.1447 12.6801 21.3997 12.7751 20.6597C12.8351 20.2147 12.9051 19.7697 13.0151 19.3347C13.3101 18.1797 14.1851 17.3197 15.3401 17.0397C15.8101 16.9247 16.2901 16.8797 16.7751 16.8297C17.5701 16.7497 18.3701 16.7047 19.1701 16.6697C19.8801 16.6397 20.5951 16.6097 21.3101 16.5947C22.6751 16.5597 24.0401 16.5397 25.4101 16.5447C26.9051 16.5497 28.4001 16.5797 29.9001 16.6297C30.3801 16.6447 30.8601 16.6697 31.3401 16.6947C31.9601 16.7297 32.5751 16.7647 33.1951 16.8247C33.6451 16.8697 34.0951 16.9197 34.5401 17.0047C35.1601 17.1247 35.6951 17.3997 36.1501 17.8347C36.6151 18.2847 36.9001 18.8297 37.0451 19.4547C37.2301 20.2747 37.3151 21.1047 37.3851 21.9397C37.4251 22.4147 37.4551 22.8897 37.4701 23.3647C37.4701 23.3897 37.4701 23.4197 37.4851 23.4447C37.4851 23.4697 37.4951 23.4547 37.5001 23.4547ZM22.5201 29.0447C24.6851 27.7947 26.8401 26.5497 28.9951 25.3047C28.9851 25.2747 28.9701 25.2697 28.9551 25.2647C26.8151 24.0297 24.6801 22.7997 22.5401 21.5647C22.5401 21.5647 22.5351 21.5647 22.5301 21.5647C22.5251 21.5647 22.5251 21.5697 22.5201 21.5697C22.5201 24.0597 22.5201 26.5447 22.5201 29.0447Z" fill="white"/>
</g>
<defs>
<clipPath id="clip0_357_1901">
<rect width="25" height="25" fill="white" transform="translate(12.5 12.7998)"/>
</clipPath>
</defs>
</svg>
