<svg width="48" height="48" viewBox="0 0 48 48" fill="none" xmlns="http://www.w3.org/2000/svg">
<rect width="48" height="48" rx="2" fill="#42474E"/>
<g clip-path="url(#clip0_1325_891)">
<path d="M37.5001 23.1549C37.5001 24.3799 37.5001 25.6099 37.5001 26.8349C37.4851 26.8199 37.4751 26.8299 37.4751 26.8449C37.4701 26.8799 37.4651 26.9199 37.4651 26.9549C37.4551 27.1599 37.4501 27.3699 37.4351 27.5749C37.4001 28.1799 37.3501 28.7849 37.2801 29.3899C37.2201 29.9049 37.1451 30.4149 37.0201 30.9149C36.7251 32.1199 35.8351 32.9999 34.6201 33.2699C34.1351 33.3799 33.6401 33.4299 33.1451 33.4749C32.3151 33.5549 31.4851 33.5999 30.6501 33.6349C29.8601 33.6699 29.0701 33.6949 28.2801 33.7099C26.8301 33.7399 25.3801 33.7649 23.9301 33.7449C22.6701 33.7299 21.4101 33.7099 20.1501 33.6599C18.9951 33.6199 17.8401 33.5649 16.6901 33.4499C16.2701 33.4099 15.8551 33.3599 15.4451 33.2699C14.4551 33.0549 13.7251 32.4999 13.2551 31.5999C13.0751 31.2549 12.9851 30.8749 12.9151 30.4949C12.7351 29.5499 12.6551 28.5949 12.5951 27.6349C12.5651 27.1199 12.5401 26.6049 12.5301 26.0849C12.5301 26.0599 12.5301 26.0399 12.5251 26.0149C12.5201 25.9999 12.5101 25.9949 12.4951 26.0049C12.4951 25.3499 12.4951 24.6999 12.4951 24.0449C12.5201 24.0499 12.5251 24.0349 12.5251 24.0199C12.5301 23.9749 12.5301 23.9349 12.5301 23.8899C12.5401 23.4549 12.5601 23.0249 12.5801 22.5899C12.6201 21.8449 12.6801 21.0999 12.7751 20.3599C12.8351 19.9149 12.9051 19.4699 13.0151 19.0349C13.3101 17.8799 14.1851 17.0199 15.3401 16.7399C15.8101 16.6249 16.2901 16.5799 16.7751 16.5299C17.5701 16.4499 18.3701 16.4049 19.1701 16.3699C19.8801 16.3399 20.5951 16.3099 21.3101 16.2949C22.6751 16.2599 24.0401 16.2399 25.4101 16.2449C26.9051 16.2499 28.4001 16.2799 29.9001 16.3299C30.3801 16.3449 30.8601 16.3699 31.3401 16.3949C31.9601 16.4299 32.5751 16.4649 33.1951 16.5249C33.6451 16.5699 34.0951 16.6199 34.5401 16.7049C35.1601 16.8249 35.6951 17.0999 36.1501 17.5349C36.6151 17.9849 36.9001 18.5299 37.0451 19.1549C37.2301 19.9749 37.3151 20.8049 37.3851 21.6399C37.4251 22.1149 37.4551 22.5899 37.4701 23.0649C37.4701 23.0899 37.4701 23.1199 37.4851 23.1449C37.4851 23.1699 37.4951 23.1549 37.5001 23.1549ZM22.5201 28.7449C24.6851 27.4949 26.8401 26.2499 28.9951 25.0049C28.9851 24.9749 28.9701 24.9699 28.9551 24.9649C26.8151 23.7299 24.6801 22.4999 22.5401 21.2649C22.5401 21.2649 22.5351 21.2649 22.5301 21.2649C22.5251 21.2649 22.5251 21.2699 22.5201 21.2699C22.5201 23.7599 22.5201 26.2449 22.5201 28.7449Z" fill="white"/>
</g>
<defs>
<clipPath id="clip0_1325_891">
<rect width="25" height="25" fill="white" transform="translate(12.5 12.5)"/>
</clipPath>
</defs>
</svg>
