<svg width="48" height="48" viewBox="0 0 48 48" fill="none" xmlns="http://www.w3.org/2000/svg">
<rect width="48" height="48" rx="2" fill="#42474E"/>
<g clip-path="url(#clip0_1325_883)">
<path fill-rule="evenodd" clip-rule="evenodd" d="M14.2201 23.56C20.9301 20.635 25.4051 18.71 27.6451 17.775C34.0401 15.115 35.3651 14.655 36.2301 14.64C36.4201 14.635 36.8451 14.685 37.1201 14.91C37.3551 15.1 37.4151 15.355 37.4501 15.535C37.4801 15.715 37.5201 16.12 37.4901 16.44C37.1451 20.08 35.6451 28.915 34.8801 32.99C34.5551 34.715 33.9201 35.295 33.3051 35.35C31.9701 35.475 30.9551 34.465 29.6601 33.62C27.6351 32.29 26.4901 31.465 24.5251 30.17C22.2501 28.67 23.7251 27.85 25.0201 26.505C25.3601 26.155 31.2501 20.795 31.3651 20.31C31.3801 20.25 31.3901 20.025 31.2601 19.905C31.1251 19.785 30.9251 19.825 30.7851 19.86C30.5801 19.905 27.3451 22.045 21.0751 26.28C20.1551 26.91 19.3251 27.22 18.5801 27.2C17.7601 27.18 16.1751 26.735 15.0001 26.355C13.5501 25.875 12.4051 25.63 12.5051 24.83C12.5601 24.415 13.1301 23.995 14.2201 23.56Z" fill="white"/>
</g>
<defs>
<clipPath id="clip0_1325_883">
<rect width="25" height="25" fill="white" transform="translate(12.5 12.5)"/>
</clipPath>
</defs>
</svg>
