<svg width="48" height="52" viewBox="0 0 48 52" fill="none" xmlns="http://www.w3.org/2000/svg">
<g id="Frame" clip-path="url(#clip0_215_801)">
<g id="XMLID_1_">
<path id="XMLID_7_" d="M8.03721 41.0791H16.186V45.3209H8.93023C8.26047 45.3209 7.81395 45.8791 7.81395 46.4372V50.4558C7.81395 51.1256 8.37209 51.5721 8.93023 51.5721H39.0698C39.7395 51.5721 40.1861 51.014 40.1861 50.4558V46.4372C40.1861 45.7674 39.6279 45.3209 39.0698 45.3209H31.7023V41.0791H39.8512C44.3163 41.0791 47.8884 37.507 47.8884 33.0419V8.03721C47.8884 3.57209 44.3163 0 39.8512 0H8.03721C3.57209 0 0 3.57209 0 8.03721V32.9302C0 37.3954 3.57209 41.0791 8.03721 41.0791ZM2.23256 8.03721C2.23256 4.91163 4.91163 2.23256 8.03721 2.23256H39.8512C43.0884 2.23256 45.7674 4.91163 45.7674 8.03721V32.9302C45.7674 36.1674 43.2 38.7349 39.9628 38.7349H8.03721C4.8 38.7349 2.23256 36.1674 2.23256 32.9302V8.03721ZM37.9535 49.3395H10.0465V47.6651H37.9535V49.3395ZM18.5302 45.3209V41.0791H29.4698V45.3209H18.5302Z" fill="#F15B67"/>
<path id="XMLID_2_" d="M7.81389 22.1023V26.4558C7.81389 30.9209 11.386 34.493 15.8511 34.493H32.1488C36.6139 34.493 40.186 30.9209 40.186 26.4558V22.2139C40.4092 22.1023 40.6325 21.7674 40.6325 21.4325C40.6325 21.0976 40.4092 20.7627 40.186 20.6511V14.7348C40.186 10.2697 36.6139 6.69763 32.1488 6.69763H15.8511C11.386 6.69763 7.81389 10.2697 7.81389 14.7348V20.7627C7.59063 20.986 7.479 21.2093 7.479 21.4325C7.479 21.6558 7.59063 21.879 7.81389 22.1023ZM15.8511 8.81856H32.1488C35.386 8.81856 37.9534 11.386 37.9534 14.6232V20.4279H33.5999L32.0371 15.1814C31.9255 14.8465 31.5906 14.5116 31.1441 14.5116C30.8092 14.5116 30.3627 14.7348 30.2511 15.1814L27.4604 23.3302L24.5581 12.5023C24.4464 12.1674 24.1116 11.8325 23.7767 11.8325C23.4418 11.8325 23.1069 11.9441 22.8837 12.279L17.972 20.4279H10.0464V14.6232C10.0464 11.4976 12.6139 8.81856 15.8511 8.81856ZM32.1488 32.1488H15.8511C12.6139 32.1488 10.0464 29.5814 10.0464 26.3441V22.3255H18.6418C18.9767 22.3255 19.3116 22.1023 19.4232 21.879L23.4418 15.0697L26.5674 26.679C26.679 27.0139 27.0139 27.3488 27.4604 27.3488C27.7953 27.3488 28.2418 27.1255 28.3534 26.679L31.1441 18.4186L32.0371 21.5441C32.1488 21.879 32.4837 22.2139 32.9302 22.2139H37.9534V26.3441C37.9534 29.5814 35.386 32.1488 32.1488 32.1488ZM39.7395 21.879H32.9302C32.7069 21.879 32.5953 21.7674 32.4837 21.5441L31.1441 16.9674L27.7953 26.5674C27.6837 26.7907 27.572 26.9023 27.3488 26.9023C27.1255 26.9023 27.0139 26.7907 26.9023 26.5674L23.4418 13.9534L18.9767 21.6558C18.8651 21.7674 18.7534 21.879 18.5302 21.879H8.37203C8.14877 21.879 7.92552 21.6558 7.92552 21.4325C7.92552 21.2093 8.14877 20.986 8.37203 20.986H18.4185L23.4418 12.6139C23.5534 12.5023 23.665 12.3907 23.8883 12.3907C24.1116 12.3907 24.2232 12.5023 24.2232 12.7255L27.572 25.0046L30.8092 15.4046C30.9209 15.1814 31.0325 15.0697 31.2557 15.0697C31.479 15.0697 31.5906 15.1814 31.7023 15.4046L33.3767 20.986H39.8511C40.0744 20.986 40.2976 21.2093 40.2976 21.4325C40.2976 21.6558 40.0743 21.879 39.7395 21.879Z" fill="#F15B67"/>
</g>
</g>
<defs>
<clipPath id="clip0_215_801">
<rect width="48" height="51.5721" fill="white"/>
</clipPath>
</defs>
</svg>
