<svg width="48" height="35" viewBox="0 0 48 35" fill="none" xmlns="http://www.w3.org/2000/svg">
<g id="Frame" clip-path="url(#clip0_215_796)">
<g id="XMLID_1_">
<path id="XMLID_10_" d="M12.2655 19.4595C14.8601 19.4595 17.3367 18.398 19.1058 16.629C20.9928 14.742 21.9363 12.3833 21.9363 9.7887C22.0542 4.36364 17.6905 0 12.2655 0C9.67089 0 7.31217 1.06143 5.42519 2.83047C3.65615 4.71744 2.59473 7.07617 2.59473 9.67076C2.59473 15.0958 6.95836 19.4595 12.2655 19.4595ZM7.31217 4.71744C8.60947 3.42015 10.4964 2.59459 12.3834 2.59459C16.2753 2.59459 19.5775 5.77887 19.5775 9.7887C19.5775 11.6757 18.8699 13.4447 17.4547 14.86C16.1574 16.1572 14.2704 16.9828 12.3834 16.9828C8.49153 16.9828 5.18932 13.7985 5.18932 9.7887C5.18932 7.78378 5.89694 6.01474 7.31217 4.71744Z" fill="#F15B67"/>
<path id="XMLID_7_" d="M35.6166 19.4594C38.2112 19.4594 40.6878 18.398 42.4569 16.629C44.3438 14.742 45.2873 12.3833 45.2873 9.78868C45.2873 4.48156 40.9237 0.11792 35.6166 0.11792C33.022 0.11792 30.5453 1.17935 28.7763 2.94839C26.8893 4.71743 25.9458 7.07615 25.9458 9.67074C25.9458 15.0958 30.3094 19.4594 35.6166 19.4594ZM30.5453 4.71743C31.8426 3.42013 33.7296 2.59458 35.6166 2.59458C39.5085 2.59458 42.8107 5.77885 42.8107 9.78868C42.8107 11.6757 42.103 13.4447 40.6878 14.8599C39.3905 16.1572 37.5035 16.9828 35.6166 16.9828C31.7247 16.9828 28.4225 13.7985 28.4225 9.78868C28.5404 7.78377 29.248 6.01473 30.5453 4.71743Z" fill="#F15B67"/>
<path id="XMLID_2_" d="M47.8821 33.0221C47.8821 32.6683 48.1179 24.5307 42.9287 19.6953C42.457 19.2236 41.7494 19.2236 41.2776 19.5774C41.2776 19.5774 37.6216 22.2899 33.4939 21.2285C33.14 18.8698 31.2531 18.2801 30.6634 18.0442C28.7764 17.5725 26.2998 18.2801 25.1204 20.5209C25.0025 20.7567 24.7666 20.8747 24.6486 20.8747C24.4128 20.8747 24.1769 20.7567 24.1769 20.5209C23.2334 18.8698 21.5823 17.9263 19.6953 17.9263C19.2236 17.9263 18.8698 17.9263 18.516 18.0442C17.9263 18.1621 16.2752 18.7518 15.8034 20.7567C13.6806 21.5823 10.2604 22.172 6.95823 19.5774C6.48649 19.2236 5.77887 19.2236 5.30713 19.5774C5.07125 19.9312 0.117936 24.2948 0 33.0221C0 33.3759 0.117936 33.7297 0.353808 33.9656C0.589681 34.2015 0.943489 34.3194 1.2973 34.3194H23.3513C23.5872 34.3194 23.8231 34.2015 23.941 34.2015C24.1769 34.3194 24.4128 34.4373 24.5307 34.4373H46.5848C47.2924 34.3194 47.8821 33.7297 47.8821 33.0221ZM2.59459 31.7248C2.9484 26.7715 5.07125 23.7051 6.25061 22.4078C9.67076 24.6486 13.2088 24.5307 15.9214 23.5872C16.8649 26.2997 19.8133 29.2481 21.9361 31.1351C21.9361 31.371 21.9361 31.4889 21.9361 31.7248H2.59459ZM17.2187 22.054C17.2187 20.5209 18.1622 19.9312 18.8698 19.6953C19.1056 19.5774 19.3415 19.5774 19.6953 19.5774C20.9926 19.5774 22.172 20.285 22.8796 21.4644C23.2334 22.172 23.941 22.5258 24.7666 22.5258C25.4742 22.5258 26.1818 22.054 26.6536 21.4644C27.4791 19.9312 29.2482 19.4594 30.5455 19.8132C31.371 20.0491 32.3145 20.5209 32.3145 22.054C32.3145 24.5307 28.6585 28.4226 24.8845 31.371C21.7002 29.0123 17.2187 24.7666 17.2187 22.054ZM26.5356 31.7248C28.6585 29.9558 31.9607 26.8894 33.14 23.941C36.5602 24.7666 39.8624 23.5872 41.9853 22.4078C44.5798 25.3562 45.1695 29.6019 45.4054 31.7248H26.5356Z" fill="#F15B67"/>
</g>
</g>
<defs>
<clipPath id="clip0_215_796">
<rect width="48" height="34.3194" fill="white"/>
</clipPath>
</defs>
</svg>
