<svg width="48" height="48" viewBox="0 0 48 48" fill="none" xmlns="http://www.w3.org/2000/svg">
<g id="Frame" clip-path="url(#clip0_215_792)">
<g id="XMLID_1_">
<path id="XMLID_5_" d="M23.9353 48H24.064C37.3187 47.8763 47.9997 37.1134 47.871 23.8763C47.871 17.4433 45.2973 11.5052 40.7933 6.92784C36.2892 2.47423 30.241 0 23.8067 0C10.552 0.123711 -0.129 10.8866 -0.000314116 24.1237C-0.000314116 30.5567 2.57341 36.4949 7.07743 41.0722C11.7101 45.5258 17.6297 48 23.9353 48ZM23.8067 2.2268H23.9353C29.5975 2.2268 35.0024 4.45361 39.1203 8.41237C43.2383 12.4948 45.5546 17.9381 45.5546 23.7526C45.6833 35.8763 36.0319 45.6495 24.1927 45.7732C18.4018 45.7732 12.997 43.5464 8.87904 39.5876C4.76108 35.5052 2.44473 30.0619 2.44473 24.2474C2.31604 12.1237 11.9675 2.35052 23.8067 2.2268Z" fill="#F15B67"/>
<path id="XMLID_2_" d="M17.8876 41.1959H29.9841V29.9382H41.1798V17.9382H29.9841V6.68042H17.8876V17.9382H6.69189V29.9382H17.8876V41.1959ZM14.9278 27.7113H9.00825V20.165H14.9278H20.3326V9.03094H27.6678V20.2887H33.8447H38.9922V27.8351H33.8447H27.6678V39.0928H20.3326V27.8351H14.9278V27.7113Z" fill="#F15B67"/>
</g>
</g>
<defs>
<clipPath id="clip0_215_792">
<rect width="48" height="48" fill="white"/>
</clipPath>
</defs>
</svg>
