<svg width="48" height="60" viewBox="0 0 48 60" fill="none" xmlns="http://www.w3.org/2000/svg">
<g id="Frame" clip-path="url(#clip0_215_805)">
<g id="XMLID_1_">
<path id="XMLID_2_" d="M37.5327 20.9346C43.3645 20.9346 48 16.2991 48 10.4673C48 4.63551 43.3645 0 37.5327 0C31.7009 0 27.0654 4.63551 27.0654 10.4673C27.0654 11.8131 27.3645 13.0093 27.8131 14.2056L16.4486 22.1308C14.8037 20.9346 12.7103 20.3365 10.4673 20.3365C4.63551 20.3365 0 24.972 0 30.8037C0 36.6355 4.63551 41.271 10.4673 41.271C12.8598 41.271 15.1028 40.3738 16.8972 39.028L27.514 46.3551C27.215 47.2523 27.0654 48.1495 27.0654 49.1963C27.0654 55.028 31.7009 59.6636 37.5327 59.6636C43.3645 59.6636 48 55.028 48 49.1963C48 43.3645 43.3645 38.729 37.5327 38.729C34.9907 38.729 32.7477 39.6262 30.9533 41.1215L20.486 33.9439C20.785 33.0467 20.9346 32 20.9346 30.9533C20.9346 29.6075 20.6355 28.4112 20.3364 27.3645L31.8505 19.4393C33.4953 20.1869 35.4393 20.9346 37.5327 20.9346ZM37.5327 2.54206C41.8692 2.54206 45.4579 6.13084 45.4579 10.4673C45.4579 14.8037 41.8692 18.3925 37.5327 18.3925C33.1963 18.3925 29.6075 14.8037 29.6075 10.4673C29.757 6.13084 33.1963 2.54206 37.5327 2.54206ZM10.4673 38.5794C6.13084 38.5794 2.54206 34.9907 2.54206 30.6542C2.54206 26.3178 6.13084 22.729 10.4673 22.729C14.8037 22.729 18.3925 26.3178 18.3925 30.6542C18.3925 34.9907 14.8037 38.5794 10.4673 38.5794ZM37.5327 41.1215C41.8692 41.1215 45.4579 44.7103 45.4579 49.0467C45.4579 53.3832 41.8692 56.972 37.5327 56.972C33.1963 56.972 29.6075 53.3832 29.6075 49.0467C29.757 44.7103 33.1963 41.1215 37.5327 41.1215ZM29.1589 42.9159C28.8598 43.215 28.7103 43.514 28.5607 43.8131L18.6916 37.0841C18.9907 36.785 19.1402 36.486 19.2897 36.1869L29.1589 42.9159ZM18.9907 24.8224C18.8411 24.5234 18.5421 24.2243 18.243 23.9252L29.0093 16.5981C29.1589 16.8972 29.4579 17.1963 29.757 17.4953L18.9907 24.8224Z" fill="#F15B67"/>
</g>
</g>
<defs>
<clipPath id="clip0_215_805">
<rect width="48" height="59.514" fill="white"/>
</clipPath>
</defs>
</svg>
