<?xml version="1.0" encoding="UTF-8"?>
<!-- Generator: Adobe Illustrator 23.1.0, SVG Export Plug-In . SVG Version: 6.00 Build 0)  -->
<svg xmlns="http://www.w3.org/2000/svg" xmlns:xlink="http://www.w3.org/1999/xlink" version="1.1" id="Слой_1" x="0px" y="0px" viewBox="0 0 188.8 188.8" style="enable-background:new 0 0 188.8 188.8;" xml:space="preserve">
<style type="text/css">
	.st0{fill:#FFF1EF;}
	.st1{fill:#A87E72;}
</style>
<g>
	<g>
		<circle class="st0" cx="94.4" cy="94.4" r="94.4"></circle>
	</g>
</g>
<g>
	<path class="st1" d="M76.3,62.1c-0.3-0.1-0.6,0.1-0.7,0.4c-1.6,5.2-3,13.3-0.1,22.2c0.1,0.2,0.3,0.4,0.5,0.4c0.1,0,0.1,0,0.2,0   c0.3-0.1,0.5-0.4,0.4-0.7c-2.8-8.6-1.5-16.5,0.1-21.5C76.7,62.5,76.6,62.2,76.3,62.1z"></path>
	<path class="st1" d="M99.6,96c-3.2,2.3-8.3,2.4-15.1,0.2c-0.3-0.1-0.6,0.1-0.7,0.4c-0.1,0.3,0.1,0.6,0.4,0.7c3.4,1.1,6.4,1.7,9,1.7   c2.8,0,5.2-0.7,7-2c0.7-0.5,1.2-1,1.9-1.7c0.7-0.7,1.5-1.5,2.9-2.7c1.8-1.5,3.8-2.9,5.8-4.1c0.3-0.2,0.4-0.5,0.2-0.8   c-0.2-0.3-0.5-0.4-0.8-0.2c-2.1,1.2-4.1,2.6-5.9,4.2c-1.4,1.2-2.3,2.1-3,2.8C100.8,95.1,100.3,95.6,99.6,96z"></path>
	<path class="st1" d="M114.1,96.9c-0.9,0.3-1.7,0.6-2.5,1c-2.1,1-3.6,2-4.6,2.8c-0.2,0.2-0.4,0.3-0.6,0.5c0,0-4.4,3.1-10.5,3.9   c-5.2,0.7-9.8-0.9-12.8-2.4c-0.3-0.1-0.6,0-0.8,0.2c-0.1,0.3,0,0.6,0.2,0.8c3.6,1.8,7.2,2.7,10.8,2.7c0.9,0,1.8-0.1,2.7-0.2   c6.3-0.9,10.8-4,11-4.1c0.2-0.1,0.4-0.3,0.6-0.5c1.1-0.8,2.4-1.8,4.4-2.7c0.8-0.4,1.6-0.7,2.4-0.9c0.3-0.1,0.5-0.4,0.4-0.7   C114.7,97,114.4,96.8,114.1,96.9z"></path>
	<path class="st1" d="M93.8,130.8c0.1,0,0.1,0,0.2,0c0.2,0,0.4-0.1,0.5-0.4c0.8-2.3,1.3-4.7,1.3-7.1c0.1-6.8-3.1-12-5-14.5   c-0.2-0.2-0.5-0.3-0.8-0.1c-0.2,0.2-0.3,0.5-0.1,0.8c1.8,2.4,4.9,7.3,4.7,13.7c0,2.3-0.5,4.5-1.3,6.7   C93.4,130.4,93.5,130.7,93.8,130.8z"></path>
	<path class="st1" d="M104.9,127.5c0.1,0,0.1,0,0.2,0c0.2,0,0.5-0.1,0.5-0.4c0.9-2.5,1.5-5.2,1.9-7.8c0.6-4.2,0.6-8.6,0-12.8   c0-0.3-0.3-0.5-0.6-0.5c-0.3,0-0.5,0.3-0.5,0.6c0.6,4.2,0.6,8.4,0,12.5c-0.4,2.6-1,5.1-1.9,7.6   C104.4,127.1,104.6,127.4,104.9,127.5z"></path>
	<path class="st1" d="M105.4,86.4c0.1,0,0.2,0.1,0.3,0.1c0.2,0,0.4-0.1,0.5-0.3c0.6-1.1,2.6-4.3,4.2-5c0.3-0.1,0.4-0.5,0.3-0.7   c-0.1-0.3-0.5-0.4-0.7-0.3c-2.3,1-4.7,5.3-4.8,5.5C105,85.9,105.1,86.2,105.4,86.4z"></path>
	<path class="st1" d="M130.4,81c0.8-12.7-2.1-24.8-7.5-30.9c-15.4-15.4-33-17.5-52.3-6.1C58,51.5,58.4,71.2,58.5,73.4   c0,0.1,0,0.1,0,0.1c0,0,0,2.7,0.4,6.2c0.3,2.9,0.2,5.4-0.4,7.9c0,0,0,0,0,0c-0.5,1.7,0.1,2.5,0.7,3.4c0.5,0.7,1.1,1.6,1.3,3.3   c0.1,1.2,0,2.9-0.2,4.9c-0.4,4-0.8,8.9,1.1,12.5c1.2,2.2,3.3,5.4,5.5,8.7c2.7,4.2,5.6,8.5,6.5,10.7c1.6,4,6.3,9.7,11.6,9.7h3   c0.3,0,0.6-0.3,0.6-0.6s-0.3-0.6-0.6-0.6h-3c-4.8,0-9.1-5.3-10.5-9c-0.9-2.3-3.8-6.7-6.6-10.9c-2.1-3.2-4.2-6.5-5.4-8.7   c-1.7-3.3-1.3-8-1-11.8c0.2-2,0.3-3.7,0.2-5.1c-0.2-2-1-3-1.5-3.8c-0.6-0.8-0.9-1.2-0.6-2.4c0.1-0.4,0.5-0.7,1.1-0.8   c2.6-0.7,8.4,1.1,11.6,4.4c4.1,4.1,1.1,11.7-0.7,16.3l0,0.1c-0.7,1.9-0.7,3.5,0.1,4.7c1,1.5,3.1,2.4,6.2,2.5c0.4,0,0.6-0.2,0.6-0.5   c0-0.3-0.2-0.6-0.5-0.6c-1.9-0.1-4.3-0.5-5.3-2c-0.6-0.9-0.6-2.1,0-3.6l0-0.1c1.9-4.8,5-12.9,0.4-17.5c-3.6-3.6-9.7-5.4-12.7-4.7   c-0.2,0-0.3,0.1-0.5,0.2c0.3-2.1,0.3-4.2,0.1-6.6c-0.4-3.4-0.4-6-0.4-6.1c0,0,0,0,0,0c0,0,0,0,0,0c0,0,0-0.1,0-0.2   c0-3.6,5.5-11.6,18.9-14.6c10.5-2.4,12.6-6.3,13-8.4c0.3-2.1-0.7-4.1-2.9-5.5c-0.3-0.2-0.6-0.1-0.8,0.2c-0.2,0.3-0.1,0.6,0.2,0.8   c1.8,1.1,2.7,2.7,2.4,4.3c-0.2,1.5-1.9,5.1-12.1,7.4C67.8,59.9,62,65.1,59.7,69.3c0.4-6.5,2.4-19,11.5-24.3   c18.7-11.1,35.9-9.1,50.8,5.9c5.2,5.8,8,17.6,7.2,30c-0.6,10-3.5,18.3-7.7,22.6c-0.9-7.1-7-44.7-33.7-44.7c-1.2,0-2.5,0-3.7,0.1   c-0.3,0-0.6,0.3-0.5,0.6s0.3,0.6,0.6,0.5c1.2,0,2.4-0.1,3.7-0.1c27.9,0,32.5,43,32.7,44.8c0,0,0,0.1,0,0.2   c-0.5,4.4-4.2,11-8.2,17.6c-4.3,7-10.4,12.1-18.8,15.7c-0.3,0.1-0.4,0.5-0.3,0.7c0.1,0.3,0.5,0.4,0.7,0.3c2.7-1.1,5.1-2.5,7.3-3.9   c1.3,2.2,3.6,6.2,4.8,9.4c0.9,2.2,1.6,4.5,2.1,6.9c0.1,0.3,0.3,0.4,0.6,0.4c0,0,0.1,0,0.1,0c0.3-0.1,0.5-0.4,0.4-0.7   c-0.5-2.4-1.3-4.8-2.1-7c-1.3-3.3-3.6-7.4-4.9-9.6c4.5-3.1,8.2-7,11.1-11.6c2.7-4.3,5.2-8.7,6.8-12.5c-0.5,5.9-1,14.5-0.7,17.8   l0.1,0.7c0.4,3.7,0.9,9.9,4.7,16.1c0.1,0.2,0.3,0.3,0.5,0.3c0.1,0,0.2,0,0.3-0.1c0.3-0.2,0.4-0.5,0.2-0.8c-3.7-6-4.2-12-4.6-15.6   l-0.1-0.7c-0.5-4.7,1-21.1,1.2-23.2C126.4,100.7,129.7,91.8,130.4,81z"></path>
	<path class="st1" d="M77.6,141.5c-1.7,0.8-3.8,1.6-6.4,2.4c-0.3,0.1-0.5,0.4-0.4,0.7c0.1,0.2,0.3,0.4,0.5,0.4c0.1,0,0.1,0,0.2,0   c2.6-0.8,4.8-1.6,6.5-2.5c0.3-0.1,0.4-0.5,0.3-0.8C78.2,141.4,77.9,141.3,77.6,141.5z"></path>
	<path class="st1" d="M104.1,83.1c0.3,0,0.5-0.2,0.5-0.5c0-0.3-0.2-0.5-0.5-0.5c-0.3,0-0.5,0.2-0.5,0.5   C103.5,82.9,103.8,83.1,104.1,83.1z"></path>
	<path class="st1" d="M104.9,80c-0.3,0-0.5,0.2-0.5,0.5c0,0.3,0.2,0.5,0.5,0.5c0.3,0,0.5-0.2,0.5-0.5C105.4,80.2,105.2,80,104.9,80z   "></path>
	<path class="st1" d="M105.6,78.8c0,0.3,0.2,0.5,0.5,0.5c0.3,0,0.5-0.2,0.5-0.5c0-0.3-0.2-0.5-0.5-0.5   C105.8,78.3,105.6,78.5,105.6,78.8z"></path>
	<circle class="st1" cx="107.9" cy="77.5" r="0.5"></circle>
	<path class="st1" d="M98.7,79.7c0-0.3-0.2-0.5-0.5-0.5c-0.3,0-0.5,0.2-0.5,0.5c0,0.3,0.2,0.5,0.5,0.5C98.4,80.2,98.7,80,98.7,79.7z   "></path>
	<path class="st1" d="M97.9,77.5c0,0.3,0.2,0.5,0.5,0.5c0.3,0,0.5-0.2,0.5-0.5c0-0.3-0.2-0.5-0.5-0.5C98.2,77,97.9,77.2,97.9,77.5z"></path>
	<path class="st1" d="M99.1,74.9c-0.3,0-0.5,0.2-0.5,0.5s0.2,0.5,0.5,0.5c0.3,0,0.5-0.2,0.5-0.5S99.4,74.9,99.1,74.9z"></path>
	<circle class="st1" cx="100.1" cy="73.5" r="0.5"></circle>
	<circle class="st1" cx="101.4" cy="71.8" r="0.5"></circle>
	<path class="st1" d="M102.8,70.7c0.3,0,0.5-0.2,0.5-0.5c0-0.3-0.2-0.5-0.5-0.5s-0.5,0.2-0.5,0.5C102.3,70.4,102.5,70.7,102.8,70.7z   "></path>
	<path class="st1" d="M106,73.8c-0.3,0-0.5,0.2-0.5,0.5c0,0.3,0.2,0.5,0.5,0.5c0.3,0,0.5-0.2,0.5-0.5   C106.5,74.1,106.3,73.8,106,73.8z"></path>
	<path class="st1" d="M104.2,75.1c-0.3,0-0.5,0.2-0.5,0.5c0,0.3,0.2,0.5,0.5,0.5c0.3,0,0.5-0.2,0.5-0.5   C104.7,75.3,104.5,75.1,104.2,75.1z"></path>
	<path class="st1" d="M102.7,77.7c0.3,0,0.5-0.2,0.5-0.5c0-0.3-0.2-0.5-0.5-0.5c-0.3,0-0.5,0.2-0.5,0.5   C102.2,77.5,102.4,77.7,102.7,77.7z"></path>
	<path class="st1" d="M101.5,78.5c-0.3,0-0.5,0.2-0.5,0.5c0,0.3,0.2,0.5,0.5,0.5c0.3,0,0.5-0.2,0.5-0.5   C102.1,78.7,101.8,78.5,101.5,78.5z"></path>
	<circle class="st1" cx="100.7" cy="81" r="0.5"></circle>
	<path class="st1" d="M99,67.2c-0.3,0-0.5,0.2-0.5,0.5c0,0.3,0.2,0.5,0.5,0.5c0.3,0,0.5-0.2,0.5-0.5C99.6,67.4,99.3,67.2,99,67.2z"></path>
	<circle class="st1" cx="97.9" cy="69.6" r="0.5"></circle>
	<circle class="st1" cx="97" cy="71.5" r="0.5"></circle>
	<path class="st1" d="M95.6,73.6c0,0.3,0.2,0.5,0.5,0.5c0.3,0,0.5-0.2,0.5-0.5c0-0.3-0.2-0.5-0.5-0.5C95.9,73,95.6,73.3,95.6,73.6z"></path>
	<path class="st1" d="M96.2,75.7c0-0.3-0.2-0.5-0.5-0.5c-0.3,0-0.5,0.2-0.5,0.5c0,0.3,0.2,0.5,0.5,0.5C96,76.2,96.2,76,96.2,75.7z"></path>
	<path class="st1" d="M94.9,77.8c0,0.3,0.2,0.5,0.5,0.5c0.3,0,0.5-0.2,0.5-0.5c0-0.3-0.2-0.5-0.5-0.5C95.1,77.3,94.9,77.5,94.9,77.8   z"></path>
	<path class="st1" d="M91.4,77.1c0,0.3,0.2,0.5,0.5,0.5c0.3,0,0.5-0.2,0.5-0.5c0-0.3-0.2-0.5-0.5-0.5C91.7,76.6,91.4,76.8,91.4,77.1   z"></path>
	<path class="st1" d="M91.6,75c0,0.3,0.2,0.5,0.5,0.5s0.5-0.2,0.5-0.5c0-0.3-0.2-0.5-0.5-0.5S91.6,74.6,91.6,75z"></path>
	<path class="st1" d="M93.1,72.8c0-0.3-0.2-0.5-0.5-0.5c-0.3,0-0.5,0.2-0.5,0.5c0,0.3,0.2,0.5,0.5,0.5   C92.8,73.3,93.1,73.1,93.1,72.8z"></path>
	<path class="st1" d="M92.3,70.7c0,0.3,0.2,0.5,0.5,0.5c0.3,0,0.5-0.2,0.5-0.5c0-0.3-0.2-0.5-0.5-0.5C92.6,70.1,92.3,70.4,92.3,70.7   z"></path>
	<circle class="st1" cx="93.6" cy="68.6" r="0.5"></circle>
	<circle class="st1" cx="94.4" cy="66.6" r="0.5"></circle>
	<path class="st1" d="M95.2,64c-0.3,0-0.5,0.2-0.5,0.5c0,0.3,0.2,0.5,0.5,0.5c0.3,0,0.5-0.2,0.5-0.5C95.7,64.3,95.5,64,95.2,64z"></path>
	<path class="st1" d="M88.5,77c-0.3,0-0.5,0.2-0.5,0.5c0,0.3,0.2,0.5,0.5,0.5c0.3,0,0.5-0.2,0.5-0.5C89.1,77.3,88.8,77,88.5,77z"></path>
	<path class="st1" d="M88.5,75.9c0.3,0,0.5-0.2,0.5-0.5c0-0.3-0.2-0.5-0.5-0.5c-0.3,0-0.5,0.2-0.5,0.5C88,75.7,88.2,75.9,88.5,75.9z   "></path>
	<path class="st1" d="M88.6,73.8c0.3,0,0.5-0.2,0.5-0.5c0-0.3-0.2-0.5-0.5-0.5c-0.3,0-0.5,0.2-0.5,0.5   C88.1,73.5,88.3,73.8,88.6,73.8z"></path>
	<path class="st1" d="M88.5,71.1c0,0.3,0.2,0.5,0.5,0.5c0.3,0,0.5-0.2,0.5-0.5c0-0.3-0.2-0.5-0.5-0.5C88.7,70.5,88.5,70.8,88.5,71.1   z"></path>
	<path class="st1" d="M88.9,68.9c0,0.3,0.2,0.5,0.5,0.5c0.3,0,0.5-0.2,0.5-0.5c0-0.3-0.2-0.5-0.5-0.5C89.1,68.4,88.9,68.6,88.9,68.9   z"></path>
	<path class="st1" d="M89.7,66.9c0,0.3,0.2,0.5,0.5,0.5c0.3,0,0.5-0.2,0.5-0.5c0-0.3-0.2-0.5-0.5-0.5C89.9,66.4,89.7,66.6,89.7,66.9   z"></path>
	<circle class="st1" cx="91" cy="64.9" r="0.5"></circle>
	<path class="st1" d="M91.8,62.3c-0.3,0-0.5,0.2-0.5,0.5c0,0.3,0.2,0.5,0.5,0.5c0.3,0,0.5-0.2,0.5-0.5   C92.4,62.6,92.1,62.3,91.8,62.3z"></path>
	<path class="st1" d="M84.7,79c0,0.3,0.2,0.5,0.5,0.5c0.3,0,0.5-0.2,0.5-0.5c0-0.3-0.2-0.5-0.5-0.5C85,78.5,84.7,78.7,84.7,79z"></path>
	<path class="st1" d="M84.9,76.3c-0.3,0-0.5,0.2-0.5,0.5c0,0.3,0.2,0.5,0.5,0.5c0.3,0,0.5-0.2,0.5-0.5   C85.5,76.6,85.2,76.3,84.9,76.3z"></path>
	<circle class="st1" cx="84.7" cy="74.7" r="0.5"></circle>
	<circle class="st1" cx="84.8" cy="72.5" r="0.5"></circle>
	<circle class="st1" cx="85.1" cy="70.4" r="0.5"></circle>
	<path class="st1" d="M84.9,68.2c0,0.3,0.2,0.5,0.5,0.5c0.3,0,0.5-0.2,0.5-0.5c0-0.3-0.2-0.5-0.5-0.5C85.1,67.7,84.9,67.9,84.9,68.2   z"></path>
	<path class="st1" d="M85.7,66.2c0,0.3,0.2,0.5,0.5,0.5c0.3,0,0.5-0.2,0.5-0.5c0-0.3-0.2-0.5-0.5-0.5C85.9,65.6,85.7,65.9,85.7,66.2   z"></path>
	<path class="st1" d="M86.5,64.2c0,0.3,0.2,0.5,0.5,0.5c0.3,0,0.5-0.2,0.5-0.5c0-0.3-0.2-0.5-0.5-0.5C86.8,63.6,86.5,63.9,86.5,64.2   z"></path>
	<circle class="st1" cx="87.9" cy="62.2" r="0.5"></circle>
	<path class="st1" d="M82,81.6c0.3,0,0.5-0.2,0.5-0.5c0-0.3-0.2-0.5-0.5-0.5c-0.3,0-0.5,0.2-0.5,0.5C81.5,81.4,81.7,81.6,82,81.6z"></path>
	<path class="st1" d="M82.2,78.9c0-0.3-0.2-0.5-0.5-0.5c-0.3,0-0.5,0.2-0.5,0.5c0,0.3,0.2,0.5,0.5,0.5   C81.9,79.5,82.2,79.2,82.2,78.9z"></path>
	<circle class="st1" cx="81.2" cy="76.8" r="0.5"></circle>
	<circle class="st1" cx="81.3" cy="74.6" r="0.5"></circle>
	<path class="st1" d="M81.4,73c0.3,0,0.5-0.2,0.5-0.5c0-0.3-0.2-0.5-0.5-0.5c-0.3,0-0.5,0.2-0.5,0.5C80.9,72.8,81.1,73,81.4,73z"></path>
	<path class="st1" d="M81,70.3c0,0.3,0.2,0.5,0.5,0.5c0.3,0,0.5-0.2,0.5-0.5c0-0.3-0.2-0.5-0.5-0.5C81.3,69.7,81,70,81,70.3z"></path>
	<path class="st1" d="M81.6,68.2c0,0.3,0.2,0.5,0.5,0.5c0.3,0,0.5-0.2,0.5-0.5s-0.2-0.5-0.5-0.5C81.8,67.6,81.6,67.9,81.6,68.2z"></path>
	<path class="st1" d="M82.2,66.1c0,0.3,0.2,0.5,0.5,0.5c0.3,0,0.5-0.2,0.5-0.5c0-0.3-0.2-0.5-0.5-0.5C82.5,65.6,82.2,65.8,82.2,66.1   z"></path>
	<path class="st1" d="M82.9,64c0,0.3,0.2,0.5,0.5,0.5c0.3,0,0.5-0.2,0.5-0.5c0-0.3-0.2-0.5-0.5-0.5C83.1,63.5,82.9,63.7,82.9,64z"></path>
	<path class="st1" d="M84.1,61.4c-0.3,0-0.5,0.2-0.5,0.5c0,0.3,0.2,0.5,0.5,0.5c0.3,0,0.5-0.2,0.5-0.5   C84.6,61.6,84.4,61.4,84.1,61.4z"></path>
	<path class="st1" d="M78.3,84.1c0.3,0,0.5-0.2,0.5-0.5c0-0.3-0.2-0.5-0.5-0.5c-0.3,0-0.5,0.2-0.5,0.5C77.8,83.9,78,84.1,78.3,84.1z   "></path>
	<path class="st1" d="M78,82c0.3,0,0.5-0.2,0.5-0.5c0-0.3-0.2-0.5-0.5-0.5c-0.3,0-0.5,0.2-0.5,0.5C77.5,81.7,77.7,82,78,82z"></path>
	<path class="st1" d="M77.7,79.8c0.3,0,0.5-0.2,0.5-0.5c0-0.3-0.2-0.5-0.5-0.5c-0.3,0-0.5,0.2-0.5,0.5   C77.2,79.6,77.4,79.8,77.7,79.8z"></path>
	<path class="st1" d="M77.5,77.7c0.3,0,0.5-0.2,0.5-0.5s-0.2-0.5-0.5-0.5c-0.3,0-0.5,0.2-0.5,0.5S77.2,77.7,77.5,77.7z"></path>
	<path class="st1" d="M77,74.9c0,0.3,0.2,0.5,0.5,0.5c0.3,0,0.5-0.2,0.5-0.5c0-0.3-0.2-0.5-0.5-0.5C77.3,74.4,77,74.6,77,74.9z"></path>
	<circle class="st1" cx="77.8" cy="72.8" r="0.5"></circle>
	<path class="st1" d="M77.4,70.6c0,0.3,0.2,0.5,0.5,0.5c0.3,0,0.5-0.2,0.5-0.5c0-0.3-0.2-0.5-0.5-0.5C77.6,70.1,77.4,70.3,77.4,70.6   z"></path>
	<path class="st1" d="M77.7,68.5c0,0.3,0.2,0.5,0.5,0.5c0.3,0,0.5-0.2,0.5-0.5s-0.2-0.5-0.5-0.5C78,67.9,77.7,68.2,77.7,68.5z"></path>
	<circle class="st1" cx="78.9" cy="66.4" r="0.5"></circle>
	<path class="st1" d="M79,64.3c0,0.3,0.2,0.5,0.5,0.5c0.3,0,0.5-0.2,0.5-0.5c0-0.3-0.2-0.5-0.5-0.5C79.2,63.7,79,64,79,64.3z"></path>
	<circle class="st1" cx="80.1" cy="62.2" r="0.5"></circle>
	<path class="st1" d="M111.7,89.8c-0.3,0-0.5,0.2-0.5,0.5c0,0.3,0.2,0.5,0.5,0.5c0.3,0,0.5-0.2,0.5-0.5   C112.3,90,112,89.8,111.7,89.8z"></path>
	<path class="st1" d="M110.4,91.4c0-0.3-0.2-0.5-0.5-0.5c-0.3,0-0.5,0.2-0.5,0.5c0,0.3,0.2,0.5,0.5,0.5   C110.2,92,110.4,91.7,110.4,91.4z"></path>
	<circle class="st1" cx="108.3" cy="93" r="0.5"></circle>
	<path class="st1" d="M112.7,92.2c-0.3,0-0.5,0.2-0.5,0.5c0,0.3,0.2,0.5,0.5,0.5c0.3,0,0.5-0.2,0.5-0.5   C113.2,92.5,113,92.2,112.7,92.2z"></path>
	<path class="st1" d="M110.8,93.3c-0.3,0-0.5,0.2-0.5,0.5s0.2,0.5,0.5,0.5c0.3,0,0.5-0.2,0.5-0.5S111.1,93.3,110.8,93.3z"></path>
	<path class="st1" d="M84.8,99.9c0-0.3-0.2-0.5-0.5-0.6c-0.3,0-0.5,0.2-0.6,0.5c0,0.3,0.2,0.5,0.5,0.6   C84.5,100.5,84.8,100.2,84.8,99.9z"></path>
	<path class="st1" d="M86.8,100.7c0-0.3-0.2-0.5-0.5-0.6c-0.3,0-0.5,0.2-0.6,0.5c0,0.3,0.2,0.6,0.5,0.6   C86.5,101.3,86.8,101,86.8,100.7z"></path>
	<path class="st1" d="M88.8,101.5c0-0.3-0.2-0.5-0.5-0.6c-0.3,0-0.5,0.2-0.6,0.5c0,0.3,0.2,0.6,0.5,0.6   C88.6,102,88.8,101.8,88.8,101.5z"></path>
	<path class="st1" d="M91,101.9c0-0.3-0.2-0.5-0.5-0.6c-0.3,0-0.5,0.2-0.6,0.5c0,0.3,0.2,0.6,0.5,0.6C90.7,102.5,91,102.2,91,101.9z   "></path>
	<path class="st1" d="M93.1,102c0-0.3-0.2-0.5-0.5-0.6c-0.3,0-0.5,0.2-0.6,0.5c0,0.3,0.2,0.5,0.5,0.6   C92.9,102.6,93.1,102.3,93.1,102z"></path>
	<path class="st1" d="M95.3,101.9c0-0.3-0.2-0.5-0.5-0.6c-0.3,0-0.5,0.2-0.6,0.5c0,0.3,0.2,0.5,0.5,0.6   C95,102.5,95.3,102.2,95.3,101.9z"></path>
	<path class="st1" d="M97.4,101.4c0-0.3-0.2-0.5-0.5-0.6c-0.3,0-0.5,0.2-0.6,0.5c0,0.3,0.2,0.6,0.5,0.6   C97.1,101.9,97.4,101.7,97.4,101.4z"></path>
	<path class="st1" d="M99.5,100.8c0-0.3-0.2-0.5-0.5-0.6c-0.3,0-0.6,0.2-0.6,0.5c0,0.3,0.2,0.5,0.5,0.6   C99.3,101.3,99.5,101.1,99.5,100.8z"></path>
	<path class="st1" d="M101.4,99.8c0-0.3-0.2-0.5-0.5-0.6c-0.3,0-0.5,0.2-0.6,0.5c0,0.3,0.2,0.6,0.5,0.6S101.4,100.1,101.4,99.8z"></path>
	<path class="st1" d="M103.4,98.7c0-0.3-0.2-0.5-0.5-0.6c-0.3,0-0.5,0.2-0.6,0.5c0,0.3,0.2,0.6,0.5,0.6   C103.1,99.3,103.4,99,103.4,98.7z"></path>
	<path class="st1" d="M116.7,104.2c-0.3,0-0.6,0.2-0.6,0.5c0,0.3,0.2,0.6,0.5,0.6c0.3,0,0.6-0.2,0.6-0.5   C117.2,104.5,117,104.2,116.7,104.2z"></path>
	<path class="st1" d="M118.8,103.5c0-0.3-0.2-0.6-0.5-0.6c-0.3,0-0.6,0.2-0.6,0.5c0,0.3,0.2,0.6,0.5,0.6   C118.5,104,118.8,103.8,118.8,103.5z"></path>
	<path class="st1" d="M114.7,105.1c-0.3,0-0.6,0.2-0.6,0.5c0,0.3,0.2,0.6,0.5,0.6c0.3,0,0.6-0.2,0.6-0.5   C115.2,105.4,115,105.1,114.7,105.1z"></path>
	<path class="st1" d="M112.6,105.7c-0.3,0-0.6,0.2-0.6,0.5c0,0.3,0.2,0.6,0.5,0.6c0.3,0,0.6-0.2,0.6-0.5   C113.1,106,112.9,105.7,112.6,105.7z"></path>
	<path class="st1" d="M110.5,106.2c-0.3,0-0.6,0.2-0.6,0.5c0,0.3,0.2,0.6,0.5,0.6c0.3,0,0.6-0.2,0.6-0.5   C111,106.5,110.8,106.3,110.5,106.2z"></path>
	<path class="st1" d="M115,108.4c-0.3,0-0.6,0.2-0.6,0.5c0,0.3,0.2,0.6,0.5,0.6c0.3,0,0.6-0.2,0.6-0.5   C115.5,108.7,115.3,108.4,115,108.4z"></path>
	<path class="st1" d="M116.2,108.3c0,0.3,0.2,0.6,0.5,0.6c0.3,0,0.6-0.2,0.6-0.5c0-0.3-0.2-0.6-0.5-0.6   C116.5,107.8,116.3,108,116.2,108.3z"></path>
	<path class="st1" d="M112.9,109.1c-0.3,0-0.6,0.2-0.6,0.5c0,0.3,0.2,0.6,0.5,0.6c0.3,0,0.6-0.2,0.6-0.5   C113.4,109.4,113.2,109.2,112.9,109.1z"></path>
	<path class="st1" d="M110.2,110.2c0,0.3,0.2,0.6,0.5,0.6c0.3,0,0.6-0.2,0.6-0.5c0-0.3-0.2-0.6-0.5-0.6   C110.5,109.7,110.2,109.9,110.2,110.2z"></path>
	<path class="st1" d="M114.5,112c0,0.3,0.2,0.6,0.5,0.6c0.3,0,0.6-0.2,0.6-0.5s-0.2-0.6-0.5-0.6C114.7,111.5,114.5,111.7,114.5,112z   "></path>
	<path class="st1" d="M112.4,112.8c0,0.3,0.2,0.6,0.5,0.6c0.3,0,0.6-0.2,0.6-0.5c0-0.3-0.2-0.6-0.5-0.6   C112.7,112.2,112.4,112.5,112.4,112.8z"></path>
	<path class="st1" d="M110.9,112.7c-0.3,0-0.6,0.2-0.6,0.5c0,0.3,0.2,0.6,0.5,0.6c0.3,0,0.6-0.2,0.6-0.5   C111.4,112.9,111.2,112.7,110.9,112.7z"></path>
	<path class="st1" d="M113.8,115.5c0-0.3-0.2-0.6-0.5-0.6c-0.3,0-0.6,0.2-0.6,0.5c0,0.3,0.2,0.6,0.5,0.6   C113.5,116,113.8,115.8,113.8,115.5z"></path>
	<path class="st1" d="M111.4,116.1c0-0.3-0.2-0.6-0.5-0.6c-0.3,0-0.6,0.2-0.6,0.5c0,0.3,0.2,0.6,0.5,0.6   C111.1,116.7,111.4,116.4,111.4,116.1z"></path>
	<path class="st1" d="M112.4,118.7c0.3,0,0.5-0.2,0.5-0.5c0-0.3-0.2-0.5-0.5-0.5c-0.3,0-0.5,0.2-0.5,0.5   C111.9,118.5,112.1,118.7,112.4,118.7z"></path>
	<path class="st1" d="M109.4,119c0,0.3,0.2,0.5,0.5,0.5c0.3,0,0.5-0.2,0.5-0.5c0-0.3-0.2-0.5-0.5-0.5   C109.6,118.4,109.4,118.7,109.4,119z"></path>
	<path class="st1" d="M104.3,107.6c-0.3,0-0.5,0.2-0.5,0.5c0,0.3,0.2,0.5,0.5,0.5c0.3,0,0.5-0.2,0.5-0.5   C104.8,107.8,104.6,107.6,104.3,107.6z"></path>
	<path class="st1" d="M102.7,108.9c0-0.3-0.2-0.5-0.5-0.5c-0.3,0-0.5,0.2-0.5,0.5c0,0.3,0.2,0.5,0.5,0.5   C102.4,109.4,102.7,109.2,102.7,108.9z"></path>
	<path class="st1" d="M100.3,109.3c0-0.3-0.2-0.5-0.5-0.5c-0.3,0-0.5,0.2-0.5,0.5c0,0.3,0.2,0.5,0.5,0.5   C100,109.9,100.3,109.6,100.3,109.3z"></path>
	<path class="st1" d="M98.1,109.6c0-0.3-0.2-0.5-0.5-0.5c-0.3,0-0.5,0.2-0.5,0.5c0,0.3,0.2,0.5,0.5,0.5   C97.9,110.1,98.1,109.9,98.1,109.6z"></path>
	<path class="st1" d="M95.4,109.6c0-0.3-0.2-0.5-0.5-0.5c-0.3,0-0.5,0.2-0.5,0.5c0,0.3,0.2,0.5,0.5,0.5   C95.2,110.1,95.4,109.9,95.4,109.6z"></path>
	<path class="st1" d="M105.5,111.2c0-0.3-0.2-0.5-0.5-0.5c-0.3,0-0.5,0.2-0.5,0.5c0,0.3,0.2,0.5,0.5,0.5   C105.3,111.8,105.5,111.5,105.5,111.2z"></path>
	<path class="st1" d="M103.3,111.9c0-0.3-0.2-0.5-0.5-0.5c-0.3,0-0.5,0.2-0.5,0.5c0,0.3,0.2,0.5,0.5,0.5   C103,112.5,103.3,112.2,103.3,111.9z"></path>
	<path class="st1" d="M101.2,112.4c0-0.3-0.2-0.5-0.5-0.5c-0.3,0-0.5,0.2-0.5,0.5c0,0.3,0.2,0.5,0.5,0.5   C101,113,101.2,112.7,101.2,112.4z"></path>
	<circle class="st1" cx="98.5" cy="112.9" r="0.5"></circle>
	<path class="st1" d="M96.8,113.3c0-0.3-0.2-0.5-0.5-0.5c-0.3,0-0.5,0.2-0.5,0.5c0,0.3,0.2,0.5,0.5,0.5   C96.5,113.8,96.8,113.6,96.8,113.3z"></path>
	<circle class="st1" cx="103.9" cy="114.5" r="0.5"></circle>
	<path class="st1" d="M101.2,115c0,0.3,0.2,0.5,0.5,0.5c0.3,0,0.5-0.2,0.5-0.5c0-0.3-0.2-0.5-0.5-0.5   C101.5,114.5,101.2,114.7,101.2,115z"></path>
	<path class="st1" d="M99.4,116.1c0.3,0,0.5-0.2,0.5-0.5c0-0.3-0.2-0.5-0.5-0.5s-0.5,0.2-0.5,0.5C98.9,115.9,99.1,116.1,99.4,116.1z   "></path>
	<path class="st1" d="M96.8,116.1c0,0.3,0.2,0.5,0.5,0.5c0.3,0,0.5-0.2,0.5-0.5s-0.2-0.5-0.5-0.5C97,115.6,96.8,115.8,96.8,116.1z"></path>
	<path class="st1" d="M103.9,117.6c0,0.3,0.2,0.5,0.5,0.5c0.3,0,0.5-0.2,0.5-0.5c0-0.3-0.2-0.5-0.5-0.5   C104.1,117,103.9,117.3,103.9,117.6z"></path>
	<circle class="st1" cx="102.2" cy="118" r="0.5"></circle>
	<path class="st1" d="M100.1,118c-0.3,0-0.5,0.2-0.5,0.5c0,0.3,0.2,0.5,0.5,0.5c0.3,0,0.5-0.2,0.5-0.5   C100.7,118.2,100.4,118,100.1,118z"></path>
	<path class="st1" d="M98.1,118.6c-0.3,0-0.5,0.2-0.5,0.5c0,0.3,0.2,0.5,0.5,0.5c0.3,0,0.5-0.2,0.5-0.5   C98.6,118.9,98.4,118.6,98.1,118.6z"></path>
	<path class="st1" d="M104.3,121.1c0.3,0,0.5-0.2,0.5-0.5c0-0.3-0.2-0.5-0.5-0.5c-0.3,0-0.5,0.2-0.5,0.5   C103.8,120.9,104,121.1,104.3,121.1z"></path>
	<path class="st1" d="M102.1,121.4c0.3,0,0.5-0.2,0.5-0.5c0-0.3-0.2-0.5-0.5-0.5c-0.3,0-0.5,0.2-0.5,0.5   C101.6,121.2,101.8,121.4,102.1,121.4z"></path>
	<path class="st1" d="M100,122c0.3,0,0.5-0.2,0.5-0.5c0-0.3-0.2-0.5-0.5-0.5c-0.3,0-0.5,0.2-0.5,0.5C99.5,121.7,99.7,122,100,122z"></path>
	<path class="st1" d="M98,121.6c-0.3,0-0.5,0.2-0.5,0.5c0,0.3,0.2,0.5,0.5,0.5c0.3,0,0.5-0.2,0.5-0.5   C98.5,121.8,98.3,121.6,98,121.6z"></path>
	<path class="st1" d="M102.7,123.8c0-0.3-0.2-0.5-0.5-0.5s-0.5,0.2-0.5,0.5c0,0.3,0.2,0.5,0.5,0.5S102.7,124.1,102.7,123.8z"></path>
	<circle class="st1" cx="100.1" cy="124.3" r="0.5"></circle>
	<path class="st1" d="M98.7,124.9c0-0.3-0.2-0.5-0.5-0.5c-0.3,0-0.5,0.2-0.5,0.5c0,0.3,0.2,0.5,0.5,0.5   C98.5,125.5,98.7,125.2,98.7,124.9z"></path>
	<path class="st1" d="M101.8,127.5c0.3,0,0.5-0.2,0.5-0.5c0-0.3-0.2-0.5-0.5-0.5c-0.3,0-0.5,0.2-0.5,0.5   C101.2,127.2,101.5,127.5,101.8,127.5z"></path>
	<path class="st1" d="M99.7,128.1c0.3,0,0.5-0.2,0.5-0.5c0-0.3-0.2-0.5-0.5-0.5c-0.3,0-0.5,0.2-0.5,0.5   C99.1,127.8,99.4,128.1,99.7,128.1z"></path>
	<path class="st1" d="M97.6,128.7c0.3,0,0.5-0.2,0.5-0.5c0-0.3-0.2-0.5-0.5-0.5c-0.3,0-0.5,0.2-0.5,0.5   C97.1,128.5,97.3,128.7,97.6,128.7z"></path>
	<path class="st1" d="M115.6,125c-0.3,0-0.5,0.3-0.5,0.6s0.3,0.5,0.6,0.5s0.5-0.3,0.5-0.6S115.9,125,115.6,125z"></path>
	<path class="st1" d="M114.3,126.8c-0.3,0-0.5,0.3-0.5,0.6c0,0.3,0.3,0.5,0.6,0.5s0.5-0.3,0.5-0.6S114.6,126.8,114.3,126.8z"></path>
	<path class="st1" d="M112.9,128.5c-0.3,0-0.5,0.3-0.5,0.6c0,0.3,0.3,0.5,0.6,0.5s0.5-0.3,0.5-0.6   C113.4,128.7,113.2,128.4,112.9,128.5z"></path>
	<path class="st1" d="M111.4,130.1c-0.3,0-0.5,0.3-0.5,0.6s0.3,0.5,0.6,0.5c0.3,0,0.5-0.3,0.5-0.6   C112,130.3,111.7,130.1,111.4,130.1z"></path>
	<path class="st1" d="M110.4,132.1c0-0.3-0.3-0.5-0.6-0.5c-0.3,0-0.5,0.3-0.5,0.6s0.3,0.5,0.6,0.5   C110.2,132.7,110.4,132.4,110.4,132.1z"></path>
	<path class="st1" d="M108.8,133.6c0-0.3-0.3-0.5-0.6-0.5c-0.3,0-0.5,0.3-0.5,0.6c0,0.3,0.3,0.5,0.6,0.5S108.8,133.9,108.8,133.6z"></path>
	<path class="st1" d="M105.9,134.9c0,0.3,0.3,0.5,0.6,0.5s0.5-0.3,0.5-0.6c0-0.3-0.3-0.5-0.6-0.5S105.9,134.6,105.9,134.9z"></path>
	<path class="st1" d="M117,128c-0.3,0-0.5,0.3-0.5,0.6s0.3,0.5,0.6,0.5s0.5-0.3,0.5-0.6S117.3,128,117,128z"></path>
	<path class="st1" d="M115.7,129.8c-0.3,0-0.5,0.3-0.5,0.6c0,0.3,0.3,0.5,0.6,0.5c0.3,0,0.5-0.3,0.5-0.6S116,129.8,115.7,129.8z"></path>
	<path class="st1" d="M113.8,132c0,0.3,0.3,0.5,0.6,0.5c0.3,0,0.5-0.3,0.5-0.6s-0.3-0.5-0.6-0.5S113.8,131.7,113.8,132z"></path>
	<path class="st1" d="M112.8,134.1c0.3,0,0.5-0.3,0.5-0.6s-0.3-0.5-0.6-0.5s-0.5,0.3-0.5,0.6S112.5,134.1,112.8,134.1z"></path>
	<path class="st1" d="M110.7,135.1c0,0.3,0.3,0.5,0.6,0.5c0.3,0,0.5-0.3,0.5-0.6s-0.3-0.5-0.6-0.5S110.7,134.8,110.7,135.1z"></path>
	<path class="st1" d="M110.1,136.4c0-0.3-0.3-0.5-0.6-0.5s-0.5,0.3-0.5,0.6s0.3,0.5,0.6,0.5S110.1,136.7,110.1,136.4z"></path>
	<path class="st1" d="M107.8,137.1c-0.3,0-0.5,0.3-0.5,0.6s0.3,0.5,0.6,0.5s0.5-0.3,0.5-0.6C108.3,137.3,108.1,137.1,107.8,137.1z"></path>
	<path class="st1" d="M116.8,133.4c0,0.3,0.3,0.5,0.6,0.5c0.3,0,0.5-0.3,0.5-0.6c0-0.3-0.3-0.5-0.6-0.5   C117,132.9,116.8,133.1,116.8,133.4z"></path>
	<path class="st1" d="M116.4,135c0-0.3-0.3-0.5-0.6-0.5c-0.3,0-0.5,0.3-0.5,0.6c0,0.3,0.3,0.5,0.6,0.5   C116.2,135.5,116.4,135.3,116.4,135z"></path>
	<path class="st1" d="M114.3,137c0.3,0,0.5-0.3,0.5-0.6c0-0.3-0.3-0.5-0.6-0.5c-0.3,0-0.5,0.3-0.5,0.6   C113.7,136.8,114,137,114.3,137z"></path>
	<path class="st1" d="M112.1,137.9c0,0.3,0.3,0.5,0.6,0.5c0.3,0,0.5-0.3,0.5-0.6c0-0.3-0.3-0.5-0.6-0.5S112,137.6,112.1,137.9z"></path>
	<path class="st1" d="M111.3,139.1c0-0.3-0.3-0.5-0.6-0.5c-0.3,0-0.5,0.3-0.5,0.6c0,0.3,0.3,0.5,0.6,0.5   C111.1,139.6,111.4,139.4,111.3,139.1z"></path>
	<path class="st1" d="M109,139.8c-0.3,0-0.5,0.3-0.5,0.6c0,0.3,0.3,0.5,0.6,0.5c0.3,0,0.5-0.3,0.5-0.6S109.3,139.8,109,139.8z"></path>
	<path class="st1" d="M117.4,137.5c-0.3,0-0.5,0.3-0.5,0.6c0,0.3,0.3,0.5,0.6,0.5c0.3,0,0.5-0.3,0.5-0.6S117.7,137.5,117.4,137.5z"></path>
	<path class="st1" d="M115.2,139.4c0,0.3,0.3,0.5,0.6,0.5c0.3,0,0.5-0.3,0.5-0.6s-0.3-0.5-0.6-0.5   C115.4,138.9,115.2,139.1,115.2,139.4z"></path>
	<path class="st1" d="M113.4,140.7c0,0.3,0.3,0.5,0.6,0.5s0.5-0.3,0.5-0.6s-0.3-0.5-0.6-0.5S113.4,140.4,113.4,140.7z"></path>
	<path class="st1" d="M111.5,141.8c0,0.3,0.3,0.5,0.6,0.5c0.3,0,0.5-0.3,0.5-0.6s-0.3-0.5-0.6-0.5S111.5,141.5,111.5,141.8z"></path>
	<path class="st1" d="M110.1,142.3c-0.3,0-0.5,0.3-0.5,0.6c0,0.3,0.3,0.5,0.6,0.5s0.5-0.3,0.5-0.6   C110.7,142.5,110.4,142.2,110.1,142.3z"></path>
	<path class="st1" d="M118.9,139.9c-0.3,0-0.5,0.3-0.5,0.6s0.3,0.5,0.6,0.5s0.5-0.3,0.5-0.6S119.2,139.9,118.9,139.9z"></path>
	<path class="st1" d="M117.2,141.3c-0.3,0-0.5,0.3-0.5,0.6s0.3,0.5,0.6,0.5c0.3,0,0.5-0.3,0.5-0.6   C117.8,141.5,117.5,141.3,117.2,141.3z"></path>
	<path class="st1" d="M115.4,142.5c-0.3,0-0.5,0.3-0.5,0.6c0,0.3,0.3,0.5,0.6,0.5s0.5-0.3,0.5-0.6S115.7,142.5,115.4,142.5z"></path>
	<path class="st1" d="M113.5,143.6c-0.3,0-0.5,0.3-0.5,0.6c0,0.3,0.3,0.5,0.6,0.5c0.3,0,0.5-0.3,0.5-0.6S113.9,143.6,113.5,143.6z"></path>
	<path class="st1" d="M111.6,144.6c-0.3,0-0.5,0.3-0.5,0.6c0,0.3,0.3,0.5,0.6,0.5s0.5-0.3,0.5-0.6   C112.1,144.8,111.9,144.6,111.6,144.6z"></path>
	<path class="st1" d="M118.5,144.2c-0.3,0-0.5,0.3-0.5,0.6s0.3,0.5,0.6,0.5c0.3,0,0.5-0.3,0.5-0.6   C119,144.5,118.8,144.2,118.5,144.2z"></path>
	<path class="st1" d="M116.6,145.3c-0.3,0-0.5,0.3-0.5,0.6c0,0.3,0.3,0.5,0.6,0.5c0.3,0,0.5-0.3,0.5-0.6S116.9,145.3,116.6,145.3z"></path>
	<path class="st1" d="M114.6,146.3c-0.3,0-0.5,0.3-0.5,0.6s0.3,0.5,0.6,0.5c0.3,0,0.5-0.3,0.5-0.6S114.9,146.3,114.6,146.3z"></path>
	<path class="st1" d="M112.6,147.2c-0.3,0-0.5,0.3-0.5,0.6c0,0.3,0.3,0.5,0.6,0.5c0.3,0,0.5-0.3,0.5-0.6S112.9,147.2,112.6,147.2z"></path>
	<path class="st1" d="M86.5,126.7c-3.7,2.5-7.3,1.5-10,0.3c-0.3-0.1-0.6,0-0.7,0.3c-0.1,0.3,0,0.6,0.3,0.7c1.5,0.7,3.4,1.3,5.5,1.3   c1.7,0,3.6-0.4,5.5-1.7c0.3-0.2,0.3-0.5,0.2-0.8S86.8,126.5,86.5,126.7z"></path>
	<path class="st1" d="M90.4,121.7c-0.6,0.2-1.7,0.4-3.1,0.4c-0.1,0-0.1,0-0.2,0c-0.8,0-1.9,0.2-3.2,0.3c-1.2,0.2-2.5,0.3-3.7,0.4   c-1.2,0.1-2.3,0-3.1-0.1c-0.9-0.1-1.3-0.1-1.7-0.1c-0.9,0-1.2,0-2.1-0.7c-0.3-0.2-0.6-0.1-0.8,0.1c-0.2,0.2-0.1,0.6,0.1,0.8   c1.2,0.9,1.7,1,2.9,0.9c0.3,0,0.7,0,1.5,0.1c0.6,0.1,1.5,0.1,2.4,0.1c0.3,0,0.6,0,0.9,0c1.2-0.1,2.6-0.3,3.8-0.4   c1.2-0.2,2.4-0.4,3.1-0.3c1.6,0,2.8-0.2,3.6-0.4c0.3-0.1,0.5-0.4,0.4-0.7C91,121.8,90.7,121.6,90.4,121.7z"></path>
</g>
</svg>
