<?xml version="1.0" encoding="UTF-8"?>
<!-- Generator: Adobe Illustrator 23.1.0, SVG Export Plug-In . SVG Version: 6.00 Build 0)  -->
<svg xmlns="http://www.w3.org/2000/svg" xmlns:xlink="http://www.w3.org/1999/xlink" version="1.1" id="Слой_1" x="0px" y="0px" viewBox="0 0 188.8 188.8" style="enable-background:new 0 0 188.8 188.8;" xml:space="preserve">
<style type="text/css">
	.st0{fill:#FFF1EF;}
	.st1{fill:#A87E72;}
</style>
<circle class="st0" cx="94.4" cy="94.4" r="94.4"></circle>
<g>
	<path class="st1" d="M74.9,126.2h-14v-22.8c0-0.3-0.2-0.5-0.5-0.5H37.6v-38h22.8c0.3,0,0.5-0.2,0.5-0.5V41.7h38v22.7   c0,0.3,0.2,0.5,0.5,0.5h22.8v3.4c0,0.3,0.2,0.5,0.5,0.5s0.5-0.2,0.5-0.5v-3.9c0-0.3-0.2-0.5-0.5-0.5H99.9V41.2   c0-0.3-0.2-0.5-0.5-0.5h-39c-0.3,0-0.5,0.2-0.5,0.5v22.7H37.1c-0.3,0-0.5,0.2-0.5,0.5v39c0,0.3,0.2,0.5,0.5,0.5h22.8v22.8   c0,0.3,0.2,0.5,0.5,0.5h14.5c0.3,0,0.5-0.2,0.5-0.5S75.1,126.2,74.9,126.2z"></path>
	<path class="st1" d="M67.5,48c-0.3,0-0.5,0.2-0.5,0.5v23.1c0,0.3,0.2,0.5,0.5,0.5s0.5-0.2,0.5-0.5V49h20.6c0.3,0,0.5-0.2,0.5-0.5   S88.9,48,88.6,48H67.5z"></path>
	<path class="st1" d="M44.4,71.1c-0.3,0-0.5,0.2-0.5,0.5v21.1c0,0.3,0.2,0.5,0.5,0.5s0.5-0.2,0.5-0.5V72.1h14.5   c0.3,0,0.5-0.2,0.5-0.5s-0.2-0.5-0.5-0.5H44.4z"></path>
	<path class="st1" d="M98.6,143.1c0.9-0.3,1.8-0.9,2.6-1.8c0.3-0.4,0.6-0.8,0.9-1.2l0.1-0.1c0.1-0.2,0.3-0.4,0.4-0.7   c1.5-2.6,1.4-5.3-0.3-6.8c-0.3-0.3-0.7-0.6-1.1-0.8c0.1-0.1,0.2-0.3,0.2-0.4c0.2-0.4,0.3-0.8,0.4-1.2c0,0,0,0,0,0   c0.2-1.5-0.3-3.3-1.7-5.5c-0.1-0.2-0.2-0.3-0.4-0.5c-0.7-0.9-1.4-1.5-2.2-1.9c-2.2-1.1-4.4-0.5-6,1.6c-0.3-1-0.8-1.7-1.5-2.2   c-1.2-0.8-2.9-1-5-0.6c-0.4,0.1-0.8,0.2-1.2,0.3c-0.1,0-0.3,0.1-0.3,0.1c-2.3,0.8-3.8,2.4-4.1,4.2c0,0.2-0.1,0.4-0.1,0.6   c0,0.1,0,0.3,0,0.4c0.1,1,0.5,1.9,1.2,2.8c-1.1,0-2,0.3-2.7,1c-1.3,1.1-1.9,3.1-1.8,5.9c0,2.2,0.9,4,2.3,5c0.7,0.5,1.6,0.8,2.5,0.8   c0.7,0,1.4-0.2,2.2-0.5c-0.3,1-0.2,2,0.2,2.9c0.7,1.5,2.4,2.7,5.1,3.4c0.7,0.2,1.4,0.3,2,0.3c1.5,0,2.8-0.5,3.7-1.4   c1-1,1.4-2.4,1.3-4.1C96.4,143.4,97.5,143.5,98.6,143.1z M97.1,123.2c0.7,0.3,1.3,0.9,1.9,1.6c0.1,0.1,0.2,0.3,0.4,0.5   c1.2,1.8,1.7,3.4,1.5,4.7c0,0.3-0.1,0.6-0.3,0.9c-0.1,0.2-0.2,0.3-0.3,0.5c-0.3-0.1-0.5-0.1-0.7-0.2c-0.2,0-0.3,0-0.5-0.1   c-0.2,0-0.5,0-0.7,0c-0.3,0-0.7,0-1.1,0c-0.2,0-0.4,0-0.7,0.1c-0.2,0-0.4,0.1-0.6,0.1l-0.1,0c-0.2,0-0.4,0.1-0.6,0.1   c-0.5,0.1-1,0.2-1.5,0.4c-0.2,0.1-0.4,0.1-0.5,0.2c-0.3,0.1-0.6,0.2-0.9,0.3c0,0,0,0,0,0c-0.1-0.1-0.2-0.2-0.3-0.3   c0,0-0.1-0.1-0.1-0.1c-0.1-0.1-0.2-0.2-0.4-0.3c0,0,0,0,0,0c-0.1-0.1-0.3-0.2-0.5-0.2c0,0-0.1,0-0.1,0c-0.1,0-0.3-0.1-0.4-0.1   c0,0,0,0-0.1,0c0-0.2,0-0.3,0-0.5c0-0.2,0-0.4,0.1-0.5c0-0.2,0.1-0.5,0.1-0.7c0-0.2,0-0.3,0.1-0.5c0-0.2,0.1-0.5,0.2-0.7   c0-0.1,0.1-0.3,0.1-0.4c0.1-0.3,0.2-0.7,0.3-1c0.2-0.6,0.4-1,0.6-1.4C93,123,95.1,122.1,97.1,123.2z M90.1,136c-0.2,0-0.5,0-0.7,0   c-0.1,0-0.1,0-0.2,0c-0.1,0-0.2-0.1-0.3-0.1c-0.1,0-0.2-0.1-0.3-0.1c-0.1-0.1-0.2-0.1-0.3-0.2c0,0-0.1-0.1-0.1-0.1v0l-0.1-0.1   c0,0-0.1-0.1-0.1-0.1c0,0-0.1-0.1-0.1-0.1c0,0,0-0.1-0.1-0.1c-0.1-0.1-0.1-0.1-0.1-0.3c0-0.1-0.1-0.2-0.1-0.2c0,0,0-0.2,0-0.2   c0-0.1,0-0.2,0-0.3c0-0.2,0-0.4,0.1-0.5c0.2-0.9,1-1.4,1.9-1.4c0.8,0,1.5,0.4,1.8,1.1c0.1,0.3,0.2,0.6,0.2,0.9c0,0.1,0,0.2,0,0.3   c0,0,0,0.1,0,0.1c0,0.1-0.1,0.2-0.1,0.3c0,0.1-0.1,0.1-0.1,0.2c-0.1,0.1-0.2,0.2-0.3,0.4c0,0-0.1,0.1-0.1,0.1   c-0.2,0.2-0.5,0.3-0.7,0.4c0,0-0.1,0-0.1,0C90.2,135.9,90.2,136,90.1,136z M80.4,126.4c0-0.1,0-0.3,0-0.5c0.2-1.5,1.5-2.8,3.5-3.4   c0,0,0.2-0.1,0.2-0.1c0.4-0.1,0.8-0.2,1.2-0.3c0.7-0.2,1.3-0.2,1.9-0.2c1,0,1.7,0.2,2.3,0.6c0.7,0.5,1.2,1.4,1.4,2.6   c-0.1,0.1-0.1,0.2-0.2,0.4c0,0.1-0.1,0.2-0.1,0.3c-0.1,0.2-0.2,0.5-0.3,0.8c-0.1,0.3-0.2,0.7-0.3,1.1c0,0.1-0.1,0.3-0.1,0.4   c-0.1,0.3-0.1,0.5-0.2,0.8c0,0.2-0.1,0.3-0.1,0.5c0,0.3-0.1,0.5-0.1,0.8c0,0.2,0,0.3-0.1,0.5c0,0.2,0,0.4-0.1,0.6c0,0,0,0,0,0   c-0.2,0-0.4,0.1-0.6,0.2c0,0-0.1,0-0.1,0.1c-0.2,0.1-0.4,0.2-0.5,0.3c0,0,0,0,0,0c-0.2,0.1-0.3,0.3-0.5,0.5c0,0,0,0.1-0.1,0.1   c-0.1,0.2-0.3,0.4-0.4,0.5c0,0-0.1,0-0.1,0c-0.5-0.2-0.9-0.4-1.3-0.6c-0.1,0-0.1-0.1-0.2-0.1c-0.4-0.2-0.8-0.4-1.2-0.6   c-0.1,0-0.1-0.1-0.2-0.1c-0.4-0.2-0.7-0.5-1-0.7c0,0-0.1,0-0.1-0.1c-0.3-0.2-0.6-0.5-0.9-0.8c-1-1-1.6-2-1.7-3.1   C80.4,126.5,80.4,126.5,80.4,126.4z M78.9,140.5c-1.1-0.8-1.8-2.3-1.8-4.2c-0.1-2.4,0.4-4.2,1.5-5.1c0.6-0.5,1.3-0.7,2.2-0.7   c0.3,0,0.5,0,0.8,0.1c0.2,0.2,0.5,0.4,0.8,0.7c0.1,0.1,0.1,0.1,0.2,0.2c0.4,0.3,0.8,0.6,1.3,0.8c0.1,0.1,0.3,0.1,0.4,0.2   c0.3,0.2,0.7,0.4,1.1,0.5c0.2,0.1,0.4,0.2,0.6,0.3c0.3,0.1,0.6,0.2,0.8,0.4c0,0.1,0,0.2,0,0.4c0,0.2,0,0.3,0,0.4   c0,0.2,0,0.3,0.1,0.3c0,0.1,0.1,0.3,0.1,0.4c0.1,0.1,0.1,0.3,0.2,0.4c0,0.1,0.1,0.2,0.1,0.2c0.1,0.1,0.1,0.1,0.2,0.2l0.1,0.1   c0,0,0.1,0.1,0.1,0.1c0,0,0,0,0,0c0,0,0,0.1-0.1,0.1c-0.3,0.4-0.6,0.8-0.9,1.1c0,0.1-0.1,0.1-0.1,0.2c-0.3,0.3-0.6,0.7-0.9,1   c0,0-0.1,0.1-0.1,0.1c-0.3,0.3-0.6,0.6-1,0.8c0,0,0,0-0.1,0.1c-0.3,0.3-0.7,0.5-1,0.7C81.8,141.2,80.1,141.3,78.9,140.5z M93.2,146   c-1.1,1-2.8,1.4-4.8,0.8c-2.4-0.6-3.9-1.6-4.5-2.8c-0.4-0.9-0.3-1.9,0.2-3c0,0,0.1,0,0.1-0.1c0.3-0.2,0.7-0.4,1-0.7c0,0,0,0,0,0   c0.3-0.3,0.7-0.6,1-0.9c0,0,0,0,0.1-0.1c0.3-0.3,0.7-0.7,1-1.1c0,0,0.1-0.1,0.1-0.1c0.3-0.4,0.6-0.8,1-1.2c0,0,0.1-0.1,0.1-0.1   c0,0,0,0,0,0c0.1,0.1,0.3,0.1,0.4,0.1c0.1,0,0.2,0.1,0.4,0.1c0.1,0,0.3,0,0.4,0c0.2,0,0.4,0,0.5,0c0.1,0,0.3-0.1,0.4-0.1   c0.2-0.1,0.4-0.2,0.6-0.3c1.4,1.8,2.3,3.6,2.7,5.1c0,0,0,0,0,0C94.5,143.5,94.2,145.1,93.2,146z M94.9,141.3   c-0.4-1.6-1.4-3.5-2.9-5.4c0.1-0.1,0.2-0.2,0.3-0.3c0.1-0.1,0.1-0.2,0.2-0.4c0.1-0.2,0.1-0.3,0.2-0.5c0,0,0-0.1,0-0.1   c0,0,0-0.1,0-0.1c0-0.1,0-0.3,0-0.4c0-0.2,0-0.4-0.1-0.6c0,0,0-0.1,0-0.1c0,0,0,0,0-0.1c0.3-0.1,0.5-0.2,0.8-0.3   c0.2-0.1,0.4-0.1,0.5-0.2c0.5-0.2,1-0.3,1.4-0.4c0.2,0,0.4-0.1,0.6-0.1l0.1,0c0.2,0,0.4-0.1,0.7-0.1c0.2,0,0.4,0,0.6-0.1   c0.3,0,0.6,0,0.9,0c0.2,0,0.4,0,0.6,0c0.1,0,0.3,0,0.4,0.1c0.3,0,0.6,0.1,0.9,0.2c0.5,0.2,1,0.5,1.4,0.8c1.3,1.2,1.4,3.4,0.1,5.6   c0,0,0,0,0,0c-0.1,0.2-0.3,0.4-0.4,0.6l-0.1,0.1c-0.3,0.4-0.6,0.8-0.9,1.1c-0.7,0.8-1.4,1.3-2.1,1.5   C97.2,142.6,96.1,142.2,94.9,141.3z"></path>
	<path class="st1" d="M91.8,73.8c-0.6,0.7-0.8,1.5-0.6,2.4l1,6.1c0,0,0,0,0,0.1l4.2,36.8c0,0.3,0.2,0.4,0.5,0.4c0,0,0,0,0.1,0   c0.3,0,0.5-0.3,0.4-0.6l-4.2-36.2h33.4l-3,26.2c0,0.3,0.2,0.5,0.4,0.6c0.3,0,0.5-0.2,0.6-0.4l3.1-26.8c0,0,0,0,0,0l1-6.1   c0,0,0,0,0,0c0.1-0.8-0.1-1.7-0.7-2.4c-0.6-0.6-1.4-1-2.2-1H94.1C93.2,72.8,92.4,73.2,91.8,73.8z M127.3,74.4   c0.4,0.4,0.5,1,0.4,1.6l-0.9,5.7H93.1L92.2,76c-0.1-0.6,0.1-1.1,0.4-1.5c0.4-0.4,0.9-0.7,1.4-0.7h5V78c0,0.3,0.2,0.5,0.5,0.5   s0.5-0.2,0.5-0.5v-4.2h9.4V78c0,0.3,0.2,0.5,0.5,0.5s0.5-0.2,0.5-0.5v-4.2h9.4V78c0,0.3,0.2,0.5,0.5,0.5s0.5-0.2,0.5-0.5v-4.2h5   C126.4,73.8,126.9,74,127.3,74.4z"></path>
	<path class="st1" d="M108.9,132.3h-4.5c-0.3,0-0.5,0.2-0.5,0.5s0.2,0.5,0.5,0.5h4.5c0.3,0,0.5-0.2,0.5-0.5S109.2,132.3,108.9,132.3   z"></path>
	<path class="st1" d="M117.9,110.1c0.3,0,0.5-0.2,0.5-0.5l0.5-6.2c0,0,0,0,0,0l1.1-13.2c0.1-0.8-0.2-1.6-0.7-2.1   c-0.5-0.6-1.3-0.9-2.1-0.9h-14.7c-0.8,0-1.5,0.3-2.1,0.9s-0.8,1.4-0.7,2.1l2.9,35.1c0.1,1.5,1.3,2.6,2.8,2.6h2.7   c0.3,0,0.5-0.2,0.5-0.5s-0.2-0.5-0.5-0.5h-2.7c-1,0-1.7-0.7-1.8-1.6l-2.9-35.1c0-0.5,0.1-1,0.5-1.4c0.3-0.4,0.8-0.6,1.3-0.6h14.7   c0.5,0,1,0.2,1.3,0.6c0.3,0.4,0.5,0.9,0.5,1.4l-1.6,19.5C117.5,109.9,117.7,110.1,117.9,110.1z"></path>
	<path class="st1" d="M107.9,144.7h-9.4c-0.3,0-0.5,0.2-0.5,0.5s0.2,0.5,0.5,0.5h9.4c0.3,0,0.5-0.2,0.5-0.5S108.2,144.7,107.9,144.7   z"></path>
	<path class="st1" d="M107.9,139.3H104c-0.3,0-0.5,0.2-0.5,0.5s0.2,0.5,0.5,0.5h3.9c0.3,0,0.5-0.2,0.5-0.5S108.2,139.3,107.9,139.3z   "></path>
	<path class="st1" d="M149.9,120.1h-1.4v-6.3c0-1.4-1.1-2.6-2.5-2.6h-28.8c-1.4,0-2.5,1.1-2.5,2.6v6.3h-1.4c-1.3,0-2.3,1-2.3,2.3   v4.9v5.5v10.5c0,1.3,1,2.3,2.3,2.3h36.8c1.3,0,2.3-1,2.3-2.3v-20.9C152.2,121.2,151.2,120.1,149.9,120.1z M115.5,113.8   c0-0.9,0.7-1.6,1.5-1.6h28.8c0.9,0,1.5,0.7,1.5,1.6v6.3h-31.9V113.8z M151.2,143.3c0,0.7-0.6,1.3-1.3,1.3h-36.8   c-0.7,0-1.3-0.6-1.3-1.3v-10.5v-5.5v-4.9c0-0.7,0.6-1.3,1.3-1.3h1.9h32.9h1.9c0.7,0,1.3,0.6,1.3,1.3V143.3z"></path>
</g>
</svg>
