<?xml version="1.0" encoding="UTF-8"?>
<!-- Generator: Adobe Illustrator 23.1.0, SVG Export Plug-In . SVG Version: 6.00 Build 0)  -->
<svg xmlns="http://www.w3.org/2000/svg" xmlns:xlink="http://www.w3.org/1999/xlink" version="1.1" id="Слой_1" x="0px" y="0px" viewBox="0 0 188.8 188.8" style="enable-background:new 0 0 188.8 188.8;" xml:space="preserve">
<style type="text/css">
	.st0{fill:#FFF1EF;}
	.st1{fill:#A87E72;}
</style>
<g>
	<g>
		<circle class="st0" cx="94.4" cy="94.4" r="94.4"></circle>
	</g>
</g>
<g>
	<path class="st1" d="M136.2,102.2c0.1-0.1,0.1-0.2,0.2-0.3c1-1.4,1.5-3,1.5-4.7V45.1c0-1.3-0.3-2.5-0.8-3.6c-0.2-0.5-0.5-1-0.8-1.4   c-0.2-0.3-0.5-0.6-0.8-0.9c-1.6-1.6-3.7-2.4-5.9-2.4c-3.8,0-7.1,2.6-8.1,6.3c-0.1,0.3-0.1,0.5-0.2,0.8c-0.1,0.4-0.1,0.8-0.1,1.2v6   c0,0.3,0.3,0.6,0.6,0.6s0.6-0.3,0.6-0.6v-6c0-0.4,0-0.7,0.1-1.1c0-0.2,0.1-0.5,0.1-0.7c0.8-3.2,3.7-5.4,7-5.4   c1.9,0,3.7,0.7,5.1,2.1c0.2,0.2,0.5,0.5,0.7,0.8c0.3,0.4,0.5,0.8,0.7,1.2c0.5,1,0.7,2,0.7,3.1v52.1c0,1.5-0.4,2.9-1.3,4.1   c-0.1,0.1-0.1,0.1-0.2,0.2c-1.4,1.8-3.5,2.9-5.7,2.9c-3.1,0-6-2.1-6.9-5.1c0-0.1-0.1-0.2-0.1-0.3c0,0,0,0,0,0c0,0,0,0,0,0   c-0.1-0.6-0.2-1.2-0.2-1.8V55.5c0-0.3-0.3-0.6-0.6-0.6s-0.6,0.3-0.6,0.6v41.7c0,0.3,0,0.6,0,0.9c-1-0.5-1.9-1-2.8-1.6   c-3.1-2-5.7-4.5-7.9-7.4c-0.8-1.1-1.5-2.2-2.2-3.4c-2-3.6-3.2-7.5-3.6-11.6c-0.1-1-0.1-2-0.1-2.9c0-10.2,5.1-19.6,13.6-25.2   c0.3-0.2,0.3-0.5,0.2-0.8c-0.2-0.3-0.5-0.3-0.8-0.2c-8.8,5.8-14.1,15.6-14.1,26.2c0,0.8,0,1.6,0.1,2.4H92.8c-1,0-1.9,0.6-2.2,1.6   h-5.3v-7c0-0.3-0.3-0.6-0.6-0.6s-0.6,0.3-0.6,0.6v7.5v12.1v10.5c0,1.6-1.3,3-3,3s-3-1.3-3-3V65.2c0-1.6,1.3-3,3-3   c0.8,0,1.5,0.3,2.1,0.9c0.6,0.6,0.9,1.3,0.9,2.1c0,0.3,0.3,0.6,0.6,0.6s0.6-0.3,0.6-0.6c0-1.1-0.4-2.1-1.2-2.9   c-0.8-0.8-1.8-1.2-2.9-1.2c-2.3,0-4.1,1.8-4.1,4.1v9.9H64.4c-0.8,0-1.6,0.5-2.1,1.2h-5.8c-1.2,0-2.1,0.8-2.4,1.9h-5.4   c-2.6,0-4.7,2.1-4.7,4.7v11.6h-2.2c-1.5,0-2.7,1.2-2.7,2.7v3.3c0,1.1,0.7,2.1,1.8,2.5l0.8,0.3v48.1c0,0.3,0.3,0.6,0.6,0.6   s0.6-0.3,0.6-0.6v-47.1c0.1,0,0.1,0,0.2,0c0.2,0,0.4-0.1,0.5-0.3l0.4,0.2c0,0,0,0,0,0l0.4,0.1c0.1,0,0.1,0,0.2,0h0.4h5.4h0.4   c0.1,0,0.1,0,0.2,0l0.4-0.1c0,0,0,0,0,0l0.4-0.2c0.1,0.2,0.3,0.3,0.5,0.3c0,0,0.1,0,0.1,0v5.6c0,0.3,0.3,0.6,0.6,0.6   s0.6-0.3,0.6-0.6v-6.6l0.8-0.3c1-0.4,1.8-1.4,1.8-2.5v-3.3c0-1.5-1.2-2.7-2.7-2.7h-2.2v-5.6c0-1.8,1.3-3.2,3-3.5   c0.2,1.1,1.2,1.9,2.3,1.9h5.8c0.4,0.7,1.2,1.2,2.1,1.2h9.5c0.3,0,0.6-0.3,0.6-0.6s-0.3-0.6-0.6-0.6h-9.5c-0.5,0-1-0.3-1.2-0.8   c-0.1-0.1-0.1-0.3-0.1-0.5v-8.5c0-0.2,0-0.3,0.1-0.5c0.2-0.5,0.7-0.8,1.2-0.8h12.7v22c0,2.3,1.8,4.1,4.1,4.1c2.3,0,4.1-1.8,4.1-4.1   v-9.9h5.3c0.3,0.9,1.2,1.6,2.2,1.6h17c2.2,2.9,4.9,5.4,8,7.4c1.2,0.8,2.4,1.4,3.7,2c0,0,0,0.1,0,0.1c1,3.5,4.3,5.9,8,5.9   C132.1,105.5,134.6,104.3,136.2,102.2z M40.2,100.5v-3.3c0-0.9,0.7-1.6,1.6-1.6h0.6v6.8l-1.1-0.4C40.6,101.7,40.2,101.1,40.2,100.5   z M44.9,103.3c-0.2,0-0.4,0-0.6-0.1l-0.2-0.1l-0.6-0.2v-7.2h1.1h5.9h1.1v7.2l0,0l-0.8,0.3c-0.2,0.1-0.4,0.1-0.6,0.1H44.9z    M54.9,97.2v3.3c0,0.7-0.4,1.3-1,1.5l-1.1,0.4v-6.8h0.5C54.2,95.6,54.9,96.3,54.9,97.2z M49.9,88.8v5.6h-4.8V82.9   c0-2,1.6-3.5,3.5-3.5h5.3v4.8C51.7,84.5,49.9,86.5,49.9,88.8z M56.5,86.1c-0.7,0-1.3-0.6-1.3-1.3v-0.1v-5.9v-0.1   c0-0.7,0.6-1.3,1.3-1.3H62c0,0,0,0.1,0,0.1V86c0,0,0,0.1,0,0.1H56.5z M85.3,76.3h5.1v11h-5.1V76.3z M92.8,88.8   c-0.6,0-1.2-0.5-1.3-1.1c0-0.1,0-0.1,0-0.2V76c0-0.1,0-0.1,0-0.2c0,0,0,0,0,0s0,0,0,0c0.1-0.6,0.6-1.1,1.3-1.1h10.9   c0,0.3,0.1,0.7,0.1,1c0,0.2,0.1,0.5,0.1,0.7c0.1,0.5,0.2,1,0.3,1.5c0,0.2,0.1,0.3,0.1,0.5c0.2,0.7,0.3,1.3,0.5,1.9   c0.1,0.2,0.1,0.3,0.2,0.5c0.2,0.5,0.3,0.9,0.5,1.4c0.1,0.2,0.2,0.5,0.3,0.7c0.2,0.4,0.3,0.8,0.5,1.1c0.1,0.3,0.2,0.5,0.4,0.7   c0.2,0.4,0.3,0.7,0.5,1.1c0.1,0.3,0.3,0.5,0.4,0.8c0.2,0.3,0.4,0.7,0.6,1c0.2,0.2,0.3,0.5,0.5,0.7c0.1,0.2,0.2,0.3,0.3,0.5H92.8z"></path>
	<path class="st1" d="M52.9,117.3c-0.3,0-0.6,0.3-0.6,0.6v33.5c0,0.3,0.3,0.6,0.6,0.6s0.6-0.3,0.6-0.6v-33.5   C53.5,117.6,53.2,117.3,52.9,117.3z"></path>
	<path class="st1" d="M108.8,71.1c0-0.3-0.3-0.6-0.6-0.6s-0.6,0.3-0.6,0.6c0,3.6,1.9,14.9,10.3,19.5c0.1,0,0.2,0.1,0.3,0.1   c0.2,0,0.4-0.1,0.5-0.3c0.2-0.3,0.1-0.6-0.2-0.8C111.2,85.6,108.8,75.4,108.8,71.1z"></path>
	<path class="st1" d="M129.9,41.6c2.4,0,3.7,2.7,3.7,7.4c0,0.3,0.3,0.6,0.6,0.6s0.6-0.3,0.6-0.6c0-5.4-1.8-8.5-4.8-8.5   c-0.3,0-0.6,0.3-0.6,0.6S129.6,41.6,129.9,41.6z"></path>
	<path class="st1" d="M108.1,132.7l11-16.1c0.2-0.3,0.1-0.8-0.2-1c-0.3-0.2-0.8-0.1-1,0.2l-10.7,15.6l-11.5-17.3   c-0.2-0.3-0.7-0.4-1-0.2c-0.3,0.2-0.4,0.7-0.2,1l11.8,17.8l-12.2,17.8c-0.2,0.3-0.1,0.8,0.2,1c0.1,0.1,0.3,0.1,0.4,0.1   c0.2,0,0.4-0.1,0.6-0.3l11.9-17.3l11.5,17.3c0.1,0.2,0.4,0.3,0.6,0.3c0.1,0,0.3,0,0.4-0.1c0.3-0.2,0.4-0.7,0.2-1L108.1,132.7z"></path>
	<path class="st1" d="M149.7,147.4c-0.2-0.3-0.7-0.3-1-0.1c0,0-4.3,3.4-10.9,3.4c-6.3,0-10-4.4-10-11.8c0-7.2,1.2-13.9,10-13.9   c9.9,0,10,8.9,10,9.2c0,1.4-0.5,3-2,3h-12.2c-0.4,0-0.7,0.3-0.7,0.7s0.3,0.7,0.7,0.7h12.2c2.1,0,3.5-1.8,3.5-4.4   c0-3.7-2.4-10.7-11.5-10.7c-10.1,0-11.5,7.7-11.5,15.3c0,8.2,4.4,13.2,11.5,13.2c7.1,0,11.6-3.6,11.8-3.8   C149.9,148.1,150,147.7,149.7,147.4z"></path>
</g>
</svg>
