<?xml version="1.0" encoding="UTF-8"?>
<!-- Generator: Adobe Illustrator 23.1.0, SVG Export Plug-In . SVG Version: 6.00 Build 0)  -->
<svg xmlns="http://www.w3.org/2000/svg" xmlns:xlink="http://www.w3.org/1999/xlink" version="1.1" id="Слой_1" x="0px" y="0px" viewBox="0 0 188.8 188.8" style="enable-background:new 0 0 188.8 188.8;" xml:space="preserve">
<style type="text/css">
	.st0{fill:#FFF1EF;}
	.st1{fill:#A87E72;}
</style>
<g>
	<g>
		<circle class="st0" cx="94.4" cy="94.4" r="94.4"></circle>
	</g>
</g>
<g>
	<path class="st1" d="M69.2,96.9c-0.3,0-0.5,0.2-0.5,0.5c0,0.2-0.1,1-0.3,1.4c-0.2,0.3-0.8,1.5-1.4,2.6c-0.5,0.9-1.1,2.1-1.1,2.2   c-0.2,0.2-0.2,0.5,0.1,0.7c0.1,0.1,0.2,0.1,0.3,0.1c0.1,0,0.3-0.1,0.4-0.2c0.1-0.1,0.2-0.3,1.3-2.4c0.5-1,1.1-2.2,1.3-2.5   c0.5-0.8,0.5-1.9,0.5-2C69.7,97.1,69.5,96.9,69.2,96.9C69.2,96.9,69.2,96.9,69.2,96.9z"></path>
	<path class="st1" d="M152.1,61.3c-0.2-0.2-0.5-0.1-0.7,0.1c-2.8,3.7-22.7,15.9-24.5,16.9c-1.8,1-2.8,2.3-3.1,2.7   c0,0.1-0.1,0.2-0.1,0.2c-0.2,0.4-0.5,0.8-2.1,1.3c-1.9,0.5-2.8,0.1-3.6-0.2l-0.2-0.1C117,82,116,82,114.8,82c-0.9,0-1.9,0-2.9-0.1   c-0.4-0.1-0.8-0.1-1.2-0.2c-0.1-0.1-0.3-0.5-0.2-1.2c0-0.2,0.7-0.4,3.5-0.4c0.3,0,0.5,0,0.8,0c1.1,0,2-0.5,3-1   c0.6-0.3,1.3-0.7,2.1-0.9c0.3-0.1,0.4-0.4,0.3-0.6c-0.1-0.3-0.4-0.4-0.6-0.3c-0.8,0.3-1.6,0.6-2.2,1c-0.9,0.5-1.7,0.9-2.6,0.9   c-0.2,0-0.5,0-0.8,0c-2,0-4.4-0.1-4.5,1.3c0,0.4,0,0.8,0.1,1.1c-3.8-0.5-7.4-0.8-9.1-0.8c-0.2,0-0.3,0-0.5,0   c0.3-0.1,0.9-0.2,1.8-0.3c1.7-0.2,2.5-0.5,3.3-0.8c0.5-0.2,1-0.4,1.8-0.6c0.5-0.1,1-0.2,1.5-0.3c1.4-0.2,2.4-0.4,3.2-0.9   c0.2-0.1,0.3-0.2,0.4-0.3c0.6-0.4,1-0.7,2.4-0.8c0.2,0,0.4-0.1,0.4-0.3c0.2,0,0.4,0,0.6-0.1c3-0.3,5.5-1,6.6-1.7   c1-0.7,13.8-13.4,15.3-14.8c0.2-0.2,0.2-0.5,0-0.7c-0.2-0.2-0.5-0.2-0.7,0c-5.7,5.7-14.4,14.2-15.1,14.7c-0.8,0.5-2.8,1.2-6.2,1.6   c-3.2,0.3-4.2,0.5-5.1,0.9c-5,0.6-8.1,1.5-9.7,2c-0.5,0.2-0.9,0.3-1.1,0.3c-1.4,0-2,0.3-2.5,0.7c-0.3,0.1-0.5,0.2-0.7,0.4   C96,80.2,96,80.4,96,80.5c0,0.1,0,0.1,0.1,0.2c0.1,0.2,0.3,0.3,0.4,0.4c-0.3,0.1-0.7,0.1-1,0.2c-0.9,0.2-1.6,0.3-2.4,0.3   c-3.9,0-4.8,0.3-5.7,0.5c-0.7,0.2-1.5,0.4-4.3,0.5c-2.9,0.1-5-0.7-6.3-1.5c-0.9-6.5-5.8-11-14.1-12.8c-2.1-0.5-4.4-1-6.6-1.1   c0.2-0.1,0.3-0.3,0.3-0.5c-0.3-3.6-2.2-6-5.3-6.8c-4.4-1.1-10,1.4-12.9,5.7c-1.6,2.5-2.2,4.8-1.7,6.8c0.6,2.5,2.7,4.1,4.4,5   c0.1,0,0.2,0.1,0.2,0.1c0,0,0,0,0.1,0c-0.2,0.3-0.3,0.6-0.4,1c-5.6,12.8,5.6,18.6,6.8,19.2c0.5,0.6,3.2,3.4,5,3.5   c1.6,0.1,2.1,0.4,3,1.4c0.2,0.2,0.5,0.6,0.9,0.9l-0.2,0.9c-1.3,7.1-2.4,14.1-1.4,16.1c0.6,1.3,2.2,2.9,4.6,3.7   c0.8,0.3,1.8,0.5,3,0.5c1.3,0,2.7-0.3,4.3-1c0.1,0,0.2,0,0.3,0.1c0.8,0.1,1.7,0.3,2.7,0.5c3.3,0.6,5.7,1.1,7.3,1.1   c0.8,0,1.4-0.1,1.7-0.4c1-0.8,1.9-2.7,1.6-5.1c0.9,0.3,1.9,0.3,2.9-0.1c-0.2,0.9-0.1,1.6,0.2,2.4c0.6,1.3,2.1,2.3,4.5,2.9   c0.6,0.2,1.2,0.2,1.8,0.2c1.3,0,2.4-0.4,3.2-1.2c0.8-0.8,1.2-2,1.1-3.4c0.7,0.4,1.5,0.6,2.2,0.5c1-0.1,2-0.7,2.9-1.7   c0.3-0.3,0.6-0.7,0.9-1.2c5,1.8,9.7,3.6,13.9,5.2c7.5,2.8,13.5,5.1,16.6,6c0.8,0.2,1.6,0.3,2.3,0.3c2.1,0,3.8-0.9,4.8-2.5   c1.8-2.8,1.3-7-1.3-10.3l-0.5-0.6c-3.3-4.3-8.9-11.4-20-15.8c-6.2-2.5-10.6-6.2-10.7-7.1c0.1-0.2,0-0.5-0.2-0.6   c-0.2-0.1-0.5-0.1-0.7,0.2c-0.1,0.2-0.2,0.4,0,0.8c0.6,1.7,5.7,5.4,11.3,7.7c10.9,4.3,16.4,11.3,19.6,15.5l0.5,0.6   c2.3,3,2.8,6.7,1.2,9.2c-1.2,1.8-3.4,2.5-6.1,1.7c-3.1-0.9-9-3.1-16.6-5.9c-4.1-1.5-8.7-3.3-13.7-5.1c0.8-1.5,1-3,0.5-4.2   c-0.3-0.8-0.9-1.5-1.6-2c3.9,0.8,7.6,1.8,10.9,2.8c2.2,0.8,4.5,1.7,6.8,2.8c0.1,0,0.1,0,0.2,0c0.2,0,0.4-0.1,0.5-0.3   c0.1-0.3,0-0.5-0.3-0.7c-2.3-1-4.6-1.9-6.8-2.8c0,0,0,0,0,0c0,0,0,0,0,0c-4-1.5-7.7-2.7-10.9-3.7l0,0c0.1-1.2-0.4-2.7-1.5-4.2   c-1.1-1.7-2.7-2.7-4.3-2.6c-1.2,0.1-2.3,0.7-3.1,1.8c-0.3-0.8-0.7-1.4-1.3-1.8c-1-0.7-2.3-0.9-4-0.6c-2.1-4.2,0.2-8.8,1.6-11.5   c0.2-0.4,0.4-0.8,0.5-1.1c0.1-0.3,0-0.5-0.2-0.7c-0.2-0.1-0.5,0-0.7,0.2c-0.1,0.3-0.3,0.7-0.5,1.1c-1.5,2.9-3.8,7.6-1.7,12.2   c-0.1,0-0.3,0.1-0.4,0.1c-0.2-0.2-0.7-0.5-1.1-0.6c-0.7-0.2-3.6-0.4-5.8-0.2c0.2-1.3,0.4-3,0.4-5.1c0-0.8,0-1.5,0-2.1   c0.1-3.8,0.2-6-4.5-10.5c-0.2-0.2-0.5-0.2-0.7,0c-0.2,0.2-0.2,0.5,0,0.7c4.4,4.3,4.3,6,4.2,9.8c0,0.6,0,1.3,0,2.1   c0,5.2-0.8,7.3-1.9,8.9c-0.8,1.1-1.9,0.9-3.1,0.6l-0.3-0.1c-0.9-0.2-1.6-0.1-2.5,0c-0.2,0-0.5,0.1-0.7,0.1l-0.2,0   c-1.1,0.1-1.3,0.1-5-0.3c-3.8-0.5-5.5-2.4-6.4-3.4c-1-1.1-1.7-1.6-3.7-1.7c-0.5,0-1.3-0.5-2-1c1.6-1.7,3.7-2.3,4.8-1.8   c1.4,0.5,2.2,2,2.7,2.9l0.1,0.2c0.1,0.1,0.2,0.3,0.3,0.5c0.4,0.7,0.8,1.6,1.7,1.9c0.2,0,0.3,0.1,0.5,0.1c0.4,0,0.7-0.1,1.1-0.3   c1.9-1,2.6-2.2,2.7-2.3c0.1-0.2,0.1-0.5-0.2-0.7c-0.2-0.1-0.5-0.1-0.7,0.2c0,0-0.7,1.1-2.3,2c-0.3,0.2-0.6,0.2-0.8,0.2   c-0.5-0.1-0.8-0.8-1.1-1.4c-0.1-0.2-0.2-0.4-0.3-0.6l-0.1-0.2c-0.6-1-1.6-2.6-3.2-3.3c-1.7-0.7-4.2,0.2-6,2.1   c-0.7-0.6-1.3-1.3-1.7-1.6c0-0.1-0.1-0.1-0.2-0.1c-0.5-0.2-11.9-5.4-6.4-18c5.7-12.9,13.4-11.2,20.7-9.5c7.5,1.7,11.9,5.4,13.1,11   c-0.5-0.5-0.8-0.8-0.9-0.9c-0.2-0.2-0.5-0.3-0.7-0.1c-0.2,0.2-0.3,0.5-0.1,0.7c0.1,0.2,2.8,3.9,9.2,3.7c2.9-0.1,3.8-0.3,4.5-0.5   c0.9-0.2,1.7-0.4,5.5-0.5c0.8,0,1.6-0.2,2.5-0.3c1-0.2,2.2-0.4,3.7-0.5c0,0,0.1,0,0.1,0c0,0,0.1,0,0.1,0c0.2,0,0.5,0,0.7,0   c3.4,0,15.1,1.2,20.3,3.1c5.2,1.8,7.6,2.8,7.6,2.8c0.1,0,0.1,0,0.2,0c0.2,0,0.4-0.1,0.5-0.3c0.1-0.3,0-0.5-0.3-0.6   c0,0-2.5-1-7.7-2.8c-0.2-0.1-0.4-0.1-0.6-0.2c0.4,0,0.8-0.1,1.3-0.2c1.9-0.5,2.4-1.1,2.8-1.7c0-0.1,0.1-0.1,0.1-0.2   c0.3-0.4,1.2-1.5,2.8-2.4c0.2-0.1,21.7-13.1,24.8-17.2C152.4,61.7,152.4,61.4,152.1,61.3z M80,118.5c-1-0.7-1.5-1.9-1.6-3.5   c0-2.1,0.4-3.6,1.2-4.3c0.6-0.5,1.4-0.7,2.5-0.6c0.2,0.2,0.4,0.4,0.7,0.6c0.1,0.1,0.1,0.1,0.2,0.2c0.3,0.2,0.7,0.5,1.1,0.7   c0.1,0.1,0.2,0.1,0.4,0.2c0.3,0.2,0.6,0.3,0.9,0.5c0.2,0.1,0.4,0.2,0.5,0.2c0.2,0.1,0.4,0.2,0.7,0.3c0,0.1,0,0.2,0,0.3   c0,0.7,0.3,1.4,0.8,1.9c-1.2,1.5-2.4,2.7-3.5,3.4c0,0,0,0,0,0C82.4,119.2,81,119.2,80,118.5z M89.3,111.4c0.6,0,1.2,0.4,1.5,0.9   c0.1,0.2,0.2,0.5,0.2,0.7c0,0.9-0.7,1.6-1.6,1.6c-0.9,0-1.6-0.7-1.6-1.6c0-0.2,0-0.3,0.1-0.5c0,0,0,0,0,0   C87.9,111.8,88.6,111.4,89.3,111.4z M92.2,123.3c-0.9,0.9-2.4,1.1-4,0.7c-2-0.5-3.3-1.4-3.8-2.4c-0.3-0.7-0.3-1.6,0.2-2.6   c1.3-0.8,2.5-2,3.7-3.6c0.3,0.1,0.6,0.2,1,0.2c0.5,0,0.9-0.1,1.3-0.4c1.2,1.6,1.9,3,2.3,4.3c0,0,0,0,0,0   C93.3,121.2,93,122.5,92.2,123.3z M99.6,117.1L99.6,117.1c-0.4,0.6-0.8,1.2-1.1,1.6c-0.7,0.8-1.5,1.3-2.3,1.4   c-0.8,0.1-1.6-0.2-2.4-0.9c-0.4-1.4-1.2-2.9-2.4-4.6c0.4-0.5,0.6-1,0.6-1.6c0-0.2,0-0.4-0.1-0.6c0,0,0,0,0,0   c0.1-0.1,0.3-0.1,0.4-0.2c0.2-0.1,0.4-0.1,0.6-0.2c0.2-0.1,0.4-0.1,0.6-0.2c0.2,0,0.3-0.1,0.5-0.1c0.2,0,0.4-0.1,0.5-0.1   c0.2,0,0.3-0.1,0.4-0.1c0.2,0,0.3,0,0.5-0.1c0.1,0,0.3,0,0.4,0c0.2,0,0.3,0,0.4,0c0.1,0,0.2,0,0.3,0c0.1,0,0.3,0,0.4,0   c0.1,0,0.2,0,0.3,0c0.1,0,0.2,0,0.4,0.1c0.1,0,0.1,0,0.2,0c0.1,0,0.2,0.1,0.3,0.1c0.1,0,0.1,0,0.2,0.1c0.9,0.3,1.6,0.9,1.9,1.8   C100.6,114.5,100.3,115.8,99.6,117.1z M94,103.4c1.2-0.1,2.5,0.8,3.5,2.2c1,1.6,1.5,2.9,1.3,4c0,0.3-0.1,0.5-0.2,0.7   c-0.1,0.1-0.1,0.2-0.2,0.4c-0.1,0-0.2,0-0.2-0.1c-0.1,0-0.2,0-0.3-0.1c-0.2,0-0.3-0.1-0.5-0.1c-0.1,0-0.2,0-0.3,0   c-0.2,0-0.4,0-0.6,0c-0.1,0-0.2,0-0.2,0c-0.2,0-0.5,0-0.8,0.1c0,0-0.1,0-0.1,0c-0.3,0-0.6,0.1-1,0.2c-0.1,0-0.1,0-0.2,0   c-0.3,0.1-0.5,0.1-0.8,0.2c-0.1,0-0.2,0.1-0.4,0.1c-0.2,0.1-0.5,0.1-0.7,0.2c-0.1,0-0.3,0.1-0.4,0.1c-0.1,0.1-0.3,0.1-0.4,0.2   c0,0-0.1-0.1-0.1-0.1c-0.1-0.1-0.1-0.1-0.2-0.2c-0.1-0.1-0.2-0.2-0.3-0.3c-0.1,0-0.1-0.1-0.2-0.1c-0.1-0.1-0.3-0.1-0.4-0.2   c-0.1,0-0.1-0.1-0.2-0.1c0,0-0.1,0-0.1,0c0.2-1.9,0.6-3.5,1.2-4.7c0,0,0,0,0,0C91.8,104.2,92.8,103.4,94,103.4z M87,102.6   c0.8,0,1.5,0.2,2,0.5c0.6,0.4,1,1.2,1.1,2.2c-0.7,1.3-1.1,3-1.3,5c-0.1,0-0.1,0-0.2,0c0,0-0.1,0-0.1,0c-0.2,0.1-0.4,0.1-0.6,0.2   c0,0-0.1,0-0.1,0.1c-0.2,0.1-0.3,0.2-0.5,0.4c0,0,0,0,0,0c-0.1,0.2-0.3,0.3-0.4,0.5c0,0,0,0,0,0c-0.2-0.1-0.4-0.1-0.6-0.2   c-0.2-0.1-0.4-0.2-0.6-0.2c-0.3-0.1-0.5-0.2-0.7-0.4c-0.2-0.1-0.3-0.2-0.5-0.3c-0.2-0.1-0.4-0.3-0.7-0.4c-0.1-0.1-0.3-0.2-0.4-0.2   c-0.3-0.2-0.6-0.5-0.8-0.7c0,0,0,0,0,0c-1.1-1-1.6-2.2-1.4-3.3c0.2-1.3,1.3-2.3,2.9-2.9l0.2-0.1c0.3-0.1,0.7-0.2,1-0.3   C86,102.7,86.5,102.6,87,102.6z M83,102.6c-0.8,0.4-1.4,0.9-1.9,1.5l-0.2-1.8c0.9,0,1.5,0.1,1.7,0.2   C82.8,102.5,82.9,102.5,83,102.6z M67.9,106.5l0.2,0c0.3,0,0.5-0.1,0.8-0.1c0.9-0.1,1.4-0.2,2.1,0l0.3,0.1c0.5,0.1,1.1,0.3,1.8,0.3   c0.8,0,1.7-0.3,2.4-1.2c0.6-0.8,1.1-1.8,1.5-3.3c0.9-0.1,2-0.1,3-0.1l0.3,3.8c-0.1,1,0.2,2.1,0.9,3.1c-0.9,0-1.6,0.3-2.2,0.8   c-1.1,1-1.6,2.7-1.6,5.1c0,1.8,0.7,3.3,1.8,4.2c0.5,2.4-0.2,4.2-1.1,4.9c-0.7,0.5-5.4-0.4-8.2-0.9c-1-0.2-1.9-0.4-2.7-0.5   c-5.6-1-7.3-2.5-7.8-3.5c-0.3-0.8-0.1-1.7,0.7-2.8c3.1-4.3,10-1.1,13.3,0.5l0.1,0.1c1.6,0.8,2.2,1.7,2,2.4   c-0.1,0.5-0.7,0.8-1.4,0.9c-0.3,0-0.5,0.2-0.5,0.5c0,0.3,0.2,0.5,0.5,0.5c1.3,0,2.2-0.7,2.4-1.7c0.2-1-0.4-2.4-2.6-3.5l-0.1-0.1   c-3.3-1.5-10.9-5.1-14.6-0.1c-1,1.4-1.3,2.6-0.8,3.8c0.7,1.6,2.8,2.9,6.4,3.7c-2.2,0.7-4,0.4-5.2-0.1c-2-0.7-3.5-2.1-4-3.2   c-0.9-1.9,0.7-11.1,1.5-15.5l0.1-0.4c1.2,0.9,2.8,1.8,5.3,2.1C66.5,106.7,66.7,106.6,67.9,106.5z M41.7,76.6c0-0.1-0.1-0.1-0.2-0.2   c-1.5-0.8-3.3-2.2-3.9-4.3c-0.5-1.8,0.1-3.8,1.5-6c2.6-3.9,7.9-6.3,11.8-5.3c1.9,0.5,4.1,1.9,4.5,5.9c0,0.2,0.1,0.3,0.3,0.4   C50.7,66.9,45.7,68.6,41.7,76.6z M98.1,80.3c0.2,0,0.5-0.1,0.8-0.1c-0.1,0.1-0.1,0.1-0.2,0.2c-0.1,0.1-0.1,0.2-0.1,0.4   c-0.4,0-1-0.1-1.4-0.4C97.3,80.4,97.6,80.3,98.1,80.3z M104.7,78.8c-0.8,0.3-1.5,0.6-3.1,0.7c-0.1,0-0.1,0-0.2,0   c0.3-0.1,0.7-0.2,1-0.3c1.1-0.3,2.3-0.6,2.6-0.6c0,0,0,0,0,0C105,78.7,104.8,78.8,104.7,78.8z"></path>
</g>
</svg>
