<?xml version="1.0" encoding="UTF-8"?>
<!-- Generator: Adobe Illustrator 23.1.0, SVG Export Plug-In . SVG Version: 6.00 Build 0)  -->
<svg xmlns="http://www.w3.org/2000/svg" xmlns:xlink="http://www.w3.org/1999/xlink" version="1.1" id="Слой_1" x="0px" y="0px" viewBox="0 0 188.8 188.8" style="enable-background:new 0 0 188.8 188.8;" xml:space="preserve">
<style type="text/css">
	.st0{fill:#FFF1EF;}
	.st1{fill:#A87E72;}
</style>
<circle class="st0" cx="94.4" cy="94.4" r="94.4"></circle>
<g>
	<path class="st1" d="M102.4,100.7c-3,1.3-5.8,1.9-8.3,1.9c-2,0-4.1-0.4-6.5-1.2c-0.3-0.1-0.5,0-0.6,0.3c-0.1,0.3,0,0.5,0.3,0.6   c2.4,0.8,4.7,1.3,6.8,1.3c2.7,0,5.7-0.7,8.7-2c0.3-0.1,0.4-0.4,0.3-0.7C102.9,100.7,102.6,100.6,102.4,100.7z"></path>
	<path class="st1" d="M71.9,64.2C71.9,64.2,71.9,64.2,71.9,64.2c0,0.1,0,0.1,0,0.2c0,0,0,0.1,0.1,0.1c3.3,8.8,12.3,14.6,23,14.8   c11.1-0.2,20-5.7,23.2-14.5c0,0,0,0,0,0c0,0,0,0,0,0c0,0,0-0.1,0-0.1c0,0,0-0.1,0-0.1c0-0.1,0-0.2-0.1-0.2c0,0,0,0,0,0   c0,0,0-0.1-0.1-0.1c0,0-0.1,0-0.1,0c0,0,0,0,0,0c0,0,0,0,0,0c-0.1,0-0.2-0.1-0.3-0.1c0,0-0.1,0-0.1,0c0,0,0,0-0.1,0   c-3.5,2-8.2,0.2-12-1.2c-2-0.7-3.7-1.4-5-1.4c-2,0-2.8,0.4-3.6,0.7c-0.6,0.3-1,0.5-2,0.5c-1,0-1.5-0.3-2-0.5   c-0.7-0.3-1.6-0.7-3.6-0.7c-1.2,0-2.9,0.6-4.8,1.2c-3.7,1.3-8.4,2.9-11.9,1c-0.2-0.1-0.4-0.1-0.5,0c0,0,0,0,0,0c0,0,0,0,0,0   c0,0,0,0,0,0c0,0-0.1,0.1-0.1,0.2C71.9,64,71.9,64.1,71.9,64.2z M95,78.2c-9.5-0.1-17.6-4.9-21.2-12.2c2.2,1.1,6.2,1.2,10.1,1.2   c2.8,0,5.4,0.1,6.9,0.5c1.5,0.4,2.9,0.7,4.3,0.7c1.3-0.1,2.7-0.3,4.2-0.7c1.5-0.4,4.2-0.4,7.1-0.4c3.9,0,7.9,0.1,10.1-1   C112.8,73.6,104.8,78.1,95,78.2z M84.9,63.7c1.8-0.6,3.4-1.2,4.5-1.2c1.8,0,2.5,0.3,3.1,0.6c0.6,0.3,1.2,0.6,2.4,0.6   c1.2,0,1.8-0.3,2.4-0.6c0.7-0.3,1.4-0.6,3.1-0.6c1.1,0,2.7,0.6,4.6,1.3c2.7,1,5.8,2.1,8.7,2.1c0.2,0,0.4,0,0.6,0   c-2.1,0.4-5.3,0.4-8.1,0.4c-2.9,0-5.7-0.1-7.4,0.4c-1.4,0.4-2.7,0.6-3.9,0.7c-1.3-0.1-2.6-0.3-4-0.7c-1.6-0.5-4.3-0.5-7.1-0.5   c-2.9,0-6-0.1-8.1-0.6C78.9,65.8,82.1,64.7,84.9,63.7z"></path>
	<path class="st1" d="M86.6,80.8c-0.8-0.6-1.8-0.7-3-0.2c-2.9,1.2-6.4,6.2-7,11.6c-0.1,1.1-0.3,2.3-0.6,3.6   c-0.6,2.7-1.5,5.7-2.7,8.4c-0.6,0.7-2.1,1.7-4.1,1.6c-2.3-0.2-4.5-1.9-6.3-4.9c-1.4-2.5-3.4-6.6-5.7-12.1c-0.2-3.2,0.1-6,0.4-8.3   c0-0.3,0.1-0.7,0.1-1c5.2,5.8,10.6,10.9,15.7,14.8c0.1,0.1,0.2,0.1,0.3,0.1c0.1,0,0.3-0.1,0.4-0.2c0.2-0.2,0.1-0.5-0.1-0.7   c-5.2-4-10.8-9.4-16.3-15.5c-0.3-0.3-0.5-0.5-0.7-0.8c-0.1-0.1-0.2-0.2-0.3-0.4c-0.1-0.1-0.2-0.3-0.4-0.4c-0.1-0.2-0.3-0.3-0.4-0.5   c-0.1-0.1-0.2-0.2-0.2-0.3c-0.2-0.3-0.4-0.5-0.7-0.8c0,0,0,0-0.1-0.1c-0.1-0.1-0.1-0.1-0.2-0.2c0,0,0-0.1-0.1-0.1   c-2.1-2.4-4.1-5-6.1-7.7c0,0,0,0,0,0c-0.8-2.3-1.5-4.4-2.1-6.2c-2.4-7.9-5.9-9.7-7.9-10.1c-1.2-2.7-1.8-4.9-1.8-6.3   c0-0.3-0.2-0.5-0.5-0.5s-0.5,0.2-0.5,0.5c0,1.5,0.6,3.6,1.7,6.3c-0.1,0-0.2,0.1-0.3,0.2c-0.9,1.2,0.3,11,2.7,18.9   c1.2,4.1,1.4,5.2,1.5,6.5c0.1,1.5,0.3,3,2.1,8.7c0,0.1,0.1,0.3,0.1,0.4l0,0.1c-0.1,7.6-0.8,10.8-2,13.5c-1.3,3-1.6,5.3,0.4,8.6   c0.3,0.6,8.4,14.3,12.7,34.3c0.2,1,0.5,2.1,0.9,3.3c0.1,0.2,0.3,0.4,0.5,0.4c0,0,0.1,0,0.1,0c0.3-0.1,0.4-0.4,0.3-0.6   c-0.3-1.1-0.6-2.2-0.9-3.2c-4.3-20.1-12.5-34-12.8-34.6c-1.8-3-1.5-5-0.3-7.7c1.3-2.9,2-6.1,2.1-14c0,0,0-0.1,0-0.1l-0.1-0.2   c0-0.1-0.1-0.3-0.1-0.4c-1.7-5.6-1.9-7.1-2-8.5c-0.1-1.3-0.3-2.5-1.5-6.7c-2.4-7.9-3.3-16.4-2.9-17.9c0.1,0,0.1,0,0.2,0   c1.4,0.2,4.9,1.4,7.4,9.4c0.6,1.8,1.3,4,2.1,6.2c0,0,0,0,0,0c0,0,0,0,0,0c0,0,0,0,0,0c0,0,0,0,0,0c0.2,0.6,0.5,1.3,0.7,1.9   c0.4,1,0.8,2.1,1.2,3.2c1.4,3.7,2.9,7.6,4.4,11.3c0.8,1.9,1.5,3.8,2.3,5.5c0,0,0,0,0,0c2.3,5.5,4.4,9.8,5.8,12.3   c2.5,4.3,5.2,5.3,7.1,5.4c2.4,0.2,4.2-1.1,4.9-1.9c0,0,0.1-0.1,0.1-0.2c1.2-2.8,2.1-5.9,2.7-8.6c0.3-1.3,0.5-2.6,0.6-3.7   c0.6-5,3.8-9.7,6.4-10.8c0.8-0.3,1.5-0.3,2,0.1c2.1,1.6,0.1,11.7-1.1,17.7l-0.3,1.5c-0.1,0.4-0.1,0.7-0.2,1.1l-0.1,0.5   c-0.5,2.9-0.5,5.5-0.4,8.2c0.1,3.7,0.2,7.6-1.2,13c-1,3.9-2.2,5.3-3.2,6.5c-1.6,1.9-2.4,3.2-1.3,9.4c0.3,1.6,0.9,3.4,2,5.5   c0.1,0.2,0.4,0.3,0.7,0.2c0.2-0.1,0.4-0.4,0.2-0.7c-1-2-1.6-3.8-1.9-5.2c-1.1-6-0.3-7,1.1-8.5c1.1-1.2,2.4-2.8,3.4-6.9   c1.4-5.5,1.3-9.6,1.2-13.3c-0.1-2.7-0.1-5.2,0.4-8l0.1-0.5c0.1-0.3,0.1-0.7,0.2-1l0.3-1.5C87.7,90.4,89,82.6,86.6,80.8z M56.1,86.1   c-0.3-0.7-0.6-1.4-0.9-2.2c-0.1-0.2-0.2-0.5-0.3-0.7c-0.1-1.7-0.1-3.6-0.1-5.6c0-0.5,0.1-0.9,0.2-1.3c0,0,0,0,0,0c0,0,0,0,0,0   c0.3,0.3,0.6,0.7,0.9,1c0,0,0,0,0,0.1c0.3,0.4,0.6,0.7,0.9,1.1c0,0,0,0,0.1,0.1c-0.1,0.6-0.1,1.2-0.2,1.8c-0.2,1.7-0.5,3.6-0.5,5.9   C56.1,86.2,56.1,86.1,56.1,86.1z M52.9,78.2c-0.1-0.3-0.2-0.5-0.3-0.8c-0.2-0.6-0.5-1.2-0.7-1.8c-0.1-0.2-0.2-0.5-0.3-0.7   c-0.3-0.8-0.6-1.6-0.9-2.4c-0.1-0.2-0.2-0.4-0.2-0.6c-0.2-0.6-0.4-1.2-0.7-1.8c0-0.1-0.1-0.2-0.1-0.3c0.1,0.1,0.2,0.3,0.3,0.4   c0.5,0.6,0.9,1.2,1.4,1.7c0.2,0.2,0.4,0.5,0.6,0.7c0.5,0.7,1.1,1.3,1.6,2c0.1,0.1,0.1,0.1,0.2,0.2c0,0.9,0,1.8,0,2.7c0,1,0,2,0,2.9   c0-0.1-0.1-0.2-0.1-0.3C53.5,79.6,53.2,78.9,52.9,78.2z"></path>
	<path class="st1" d="M146.4,84.7c1.7-5.7,1.9-7.2,2-8.7c0.1-1.3,0.3-2.4,1.5-6.5c2.4-8,3.6-17.7,2.7-18.9c-0.1-0.2-0.3-0.3-0.5-0.3   c0,0,0,0-0.1,0c-1.4,0-5.8,0.8-8.7,10.2c-0.4,1.3-0.9,2.8-1.5,4.4c-0.3-1.7-0.6-4.1-0.4-5.7c0-0.2,0-0.5,0-0.7   c2.7-5.8,4.2-10.6,4.2-13.9c0-0.3-0.2-0.5-0.5-0.5s-0.5,0.2-0.5,0.5c0,3.1-1.5,7.9-4.1,13.5c0,0,0,0,0,0c-1,2.1-2.1,4.3-3.4,6.5   c-0.7,1.1-1.3,2.3-2.1,3.4l-0.4,0.7c-0.3,0.4-0.5,0.9-0.8,1.3c0,0,0,0,0,0c0,0,0,0,0,0c-5.5,8.4-12.1,16.2-18.5,21.9   c-0.2,0.2-0.2,0.5,0,0.7c0.1,0.1,0.2,0.2,0.4,0.2c0.1,0,0.2,0,0.3-0.1c6.2-5.5,12.6-13,18-21.2c0.2,0.8,0.4,1.7,0.5,2.6   c-0.1-0.1-0.3-0.1-0.5-0.1c-0.5,0-0.9,0.1-1.4,0.5c-1.1,1.2-0.8,3.2-0.5,6.1c0.3,2.2,0.7,5,0.4,8.3c-1.1,2.5-2.1,4.9-3.1,6.9   c-1,2.2-1.9,3.9-2.6,5.2c-1.8,3.1-4,4.8-6.3,4.9c-2,0.1-3.5-0.8-4.1-1.5c-1.3-3.2-2.4-6.8-3-9.9c-0.1-0.7-0.2-1.4-0.3-2.1   c-0.6-5.4-4.1-10.4-7-11.6c-1.1-0.5-2.2-0.4-3,0.2c-2.4,1.8-1.1,9.6,0.7,18.7l0.1,0.7c0.1,0.6,0.2,1.2,0.3,1.7l0.1,0.6   c0.5,2.8,0.5,5.3,0.4,8c-0.1,3.6-0.2,7.8,1.2,13.3c1,4.1,2.3,5.6,3.4,6.9c1.3,1.6,2.2,2.5,1.1,8.5c-0.3,1.5-0.9,3.2-1.9,5.2   c-0.1,0.2,0,0.5,0.2,0.7c0.3,0.1,0.5,0,0.7-0.2c1-2.1,1.7-3.9,2-5.5c1.1-6.2,0.3-7.5-1.3-9.4c-1-1.2-2.2-2.6-3.2-6.5   c-1.3-5.4-1.3-9.3-1.2-13c0.1-2.7,0.1-5.3-0.4-8.2l-0.1-0.6c-0.1-0.5-0.2-1.1-0.3-1.7l-0.1-0.7c-1.2-6-3.2-16.1-1.1-17.7   c0.5-0.4,1.2-0.4,2-0.1c2.6,1.1,5.9,5.8,6.4,10.8c0.1,0.8,0.2,1.5,0.3,2.2c0.6,3.2,1.7,6.9,3.1,10.1c0,0,0,0.1,0.1,0.1   c0.7,0.9,2.6,2.1,5,2c1.9-0.1,4.6-1.2,7.1-5.4c0.7-1.3,1.7-3,2.7-5.2c1-2.1,2.1-4.5,3.1-7.1c0.8-1.8,1.5-3.7,2.3-5.5c0,0,0,0,0,0   c0.8-2.1,1.7-4.2,2.5-6.3c1.4-3.5,2.7-7.1,3.8-10.1c0.8-2.3,1.5-4.4,2.1-6.3c2.6-8.3,6.2-9.4,7.6-9.5c0.3,1.5-0.5,10-2.9,17.9   c-1.3,4.2-1.4,5.4-1.5,6.7c-0.1,1.4-0.3,2.9-2,8.5c-0.1,0.1-0.1,0.3-0.1,0.4l-0.1,0.2c0,0,0,0.1,0,0.2c0.1,7.9,0.8,11.1,2.1,14   c1.2,2.8,1.5,4.7-0.3,7.7c-0.3,0.6-8.5,14.3-12.8,34.6c-0.2,1-0.5,2.1-0.9,3.2c-0.1,0.3,0.1,0.5,0.3,0.6c0.1,0,0.1,0,0.2,0   c0.2,0,0.4-0.1,0.5-0.3c0.4-1.2,0.7-2.3,0.9-3.3c4.3-20.1,12.4-33.7,12.7-34.3c2-3.4,1.7-5.6,0.4-8.6c-1.2-2.8-1.9-5.9-2-13.5   l0-0.2C146.4,84.9,146.4,84.8,146.4,84.7z M140.7,68.6c0,0,0,0.1,0,0.1c-0.2,0.6-0.4,1.1-0.6,1.7c-0.1,0.2-0.1,0.3-0.2,0.5   c-0.2,0.5-0.4,1-0.5,1.5c-0.1,0.2-0.1,0.4-0.2,0.6c-0.2,0.5-0.4,1-0.5,1.5c-0.1,0.2-0.1,0.4-0.2,0.5c-0.2,0.6-0.4,1.1-0.7,1.7   c0,0.1-0.1,0.2-0.1,0.3c-0.3,0.7-0.5,1.4-0.8,2.1c0,0.1,0,0.1-0.1,0.2c-0.2,0.5-0.4,1-0.6,1.5c0-1,0-2,0-2.9c0,0,0,0,0,0   c0,0,0,0,0,0c0-0.9,0-1.8,0-2.6c0-0.1,0-0.3,0-0.4c0-0.3,0-0.6,0-0.9c0-0.1,0-0.3,0-0.4c0-0.3,0-0.5,0-0.8c0-0.2,0-0.3,0-0.5   c0-0.2,0-0.4,0-0.7c0-0.3,0-0.5,0-0.8c0-0.1,0-0.2,0-0.2c0-0.7,0-1.3,0-1.9c0.5-0.8,0.9-1.5,1.4-2.3c0.1-0.2,0.3-0.5,0.4-0.7   c0.3-0.5,0.6-1.1,0.9-1.6c0.1-0.3,0.3-0.5,0.4-0.8c0.3-0.5,0.6-1.1,0.9-1.6c0.1-0.2,0.2-0.4,0.3-0.6c0-0.1,0.1-0.1,0.1-0.2   c0.1,2.4,0.6,5.2,0.8,6.2C141.1,67.4,140.9,68,140.7,68.6z M135.1,71.4c-0.1-0.4-0.2-0.7-0.3-1.1c0.1-0.1,0.2-0.2,0.2-0.4   c0,0.2,0,0.4,0,0.6C135.1,70.9,135.1,71.1,135.1,71.4z M133.5,75.1c0.2-0.1,0.3-0.2,0.5-0.2c0.4,0,0.7,0.3,0.9,0.4   c0,0.3,0.1,0.5,0.1,0.8c0,0.1,0,0.2,0,0.3c0.1,0.4,0.1,0.8,0.1,1.2c0,0.8,0,1.5,0,2.3c0,0.5,0,1.1,0,1.6c0,0.1,0,0.3,0,0.4   c0,0.3,0,0.5,0,0.8c0,0.2,0,0.4,0,0.6c-0.4,1-0.8,2-1.2,2.9c0,0,0,0,0,0.1c0-2.2-0.3-4.2-0.5-5.9C133,77.8,132.7,75.9,133.5,75.1z"></path>
	<path class="st1" d="M101.5,74.6c-1.1,0.2-2.2,0.4-3.3,0.5c-0.3,0-0.5,0.3-0.5,0.5c0,0.3,0.2,0.5,0.5,0.5c0,0,0,0,0,0   c1.1-0.1,2.3-0.3,3.4-0.5c0.3-0.1,0.4-0.3,0.4-0.6C102,74.8,101.7,74.6,101.5,74.6z"></path>
	<path class="st1" d="M93,75.2c-4.6-0.4-8.6-1.8-11.6-4.1c-0.2-0.2-0.5-0.1-0.7,0.1c-0.2,0.2-0.1,0.5,0.1,0.7   c3.1,2.4,7.3,3.9,12.1,4.3c0,0,0,0,0,0c0.3,0,0.5-0.2,0.5-0.5C93.5,75.4,93.3,75.2,93,75.2z"></path>
	<path class="st1" d="M77.1,60.3c0,0,0.1,0,0.1,0c0.6-0.2,1.3-0.3,1.9-0.5c0.3-0.1,0.4-0.4,0.3-0.6c-0.1-0.3-0.4-0.4-0.6-0.3   c-0.6,0.2-1.3,0.4-1.9,0.5c-0.3,0.1-0.4,0.3-0.4,0.6C76.7,60.1,76.9,60.3,77.1,60.3z"></path>
	<path class="st1" d="M88.6,57.3C88.6,57.3,88.7,57.3,88.6,57.3c0.7-0.1,1.3-0.1,2,0c0.2,0,0.3-0.1,0.4-0.2l-0.5,1.6l3.9-0.9   l-2.7-2.9l-0.6,1.9c0-0.3-0.2-0.5-0.5-0.5c-0.7,0-1.3,0-2.1,0c-0.3,0-0.5,0.3-0.4,0.5C88.2,57.1,88.4,57.3,88.6,57.3z"></path>
	<path class="st1" d="M84.7,58.1c0,0,0.1,0,0.1,0c0.6-0.2,1.3-0.3,1.9-0.5c0.3-0.1,0.4-0.3,0.4-0.6c-0.1-0.3-0.3-0.4-0.6-0.4   c-0.6,0.1-1.3,0.3-2,0.5c-0.3,0.1-0.4,0.3-0.4,0.6C84.3,57.9,84.5,58.1,84.7,58.1z"></path>
	<path class="st1" d="M80.9,59.2c0,0,0.1,0,0.1,0l1.9-0.6c0.3-0.1,0.4-0.4,0.3-0.6c-0.1-0.3-0.4-0.4-0.6-0.3l-1.9,0.6   c-0.3,0.1-0.4,0.4-0.3,0.6C80.5,59.1,80.7,59.2,80.9,59.2z"></path>
	<path class="st1" d="M69.1,60.2c0.6,0.2,1.3,0.4,2,0.5c0,0,0,0,0.1,0c0.2,0,0.5-0.2,0.5-0.4c0-0.3-0.1-0.5-0.4-0.6   c-0.6-0.1-1.2-0.3-1.8-0.5c-0.3-0.1-0.5,0-0.6,0.3C68.7,59.9,68.9,60.1,69.1,60.2z"></path>
	<path class="st1" d="M73.2,60.9C73.2,60.9,73.2,60.9,73.2,60.9c0.7,0,1.3-0.1,2.1-0.2c0.3,0,0.5-0.3,0.4-0.6c0-0.3-0.3-0.5-0.6-0.4   c-0.7,0.1-1.3,0.2-1.9,0.2c-0.3,0-0.5,0.2-0.5,0.5C72.7,60.7,72.9,60.9,73.2,60.9z"></path>
	<path class="st1" d="M121.6,64.5c0,0,0.1,0,0.1,0c0.2,0,0.4-0.2,0.5-0.4c0.1-0.7,0.2-1.3,0.3-2c0-0.3-0.2-0.5-0.4-0.5   c-0.3,0-0.5,0.2-0.5,0.4c-0.1,0.6-0.2,1.3-0.3,1.9C121.1,64.2,121.3,64.4,121.6,64.5z"></path>
	<path class="st1" d="M120.3,68.2c0.1,0,0.1,0,0.2,0c0.2,0,0.4-0.1,0.5-0.3c0.3-0.6,0.5-1.3,0.7-1.9c0.1-0.3-0.1-0.5-0.3-0.6   c-0.3-0.1-0.5,0.1-0.6,0.3c-0.2,0.6-0.4,1.2-0.7,1.8C119.9,67.8,120,68.1,120.3,68.2z"></path>
	<path class="st1" d="M118.3,71.7c0.1,0.1,0.2,0.1,0.3,0.1c0.2,0,0.3-0.1,0.4-0.2c0.4-0.6,0.7-1.1,1.1-1.7c0.1-0.2,0-0.5-0.2-0.7   c-0.2-0.1-0.5,0-0.7,0.2c-0.3,0.6-0.7,1.1-1,1.7C118,71.2,118,71.5,118.3,71.7z"></path>
	<path class="st1" d="M115,76.1c0.2-0.2,0.2-0.5,0-0.7c-0.2-0.2-0.5-0.2-0.7,0c-0.5,0.4-1,0.9-1.5,1.3c-0.2,0.2-0.3,0.5-0.1,0.7   c0.1,0.1,0.2,0.2,0.4,0.2c0.1,0,0.2,0,0.3-0.1C114,77,114.5,76.5,115,76.1z"></path>
	<path class="st1" d="M117,72.5c-0.4,0.5-0.8,1-1.3,1.5c-0.2,0.2-0.2,0.5,0,0.7c0.1,0.1,0.2,0.1,0.3,0.1c0.1,0,0.3-0.1,0.4-0.2   c0.5-0.5,0.9-1,1.3-1.5c0.2-0.2,0.1-0.5-0.1-0.7C117.5,72.3,117.2,72.3,117,72.5z"></path>
	<polygon class="st1" points="109.3,79.4 113.3,79.3 111.3,75.9  "></polygon>
</g>
</svg>
