<?xml version="1.0" encoding="UTF-8"?>
<!-- Generator: Adobe Illustrator 23.1.0, SVG Export Plug-In . SVG Version: 6.00 Build 0)  -->
<svg xmlns="http://www.w3.org/2000/svg" xmlns:xlink="http://www.w3.org/1999/xlink" version="1.1" id="Слой_1" x="0px" y="0px" viewBox="0 0 188.8 188.8" style="enable-background:new 0 0 188.8 188.8;" xml:space="preserve">
<style type="text/css">
	.st0{fill:#FFF1EF;}
	.st1{fill:#A87E72;}
</style>
<circle class="st0" cx="94.4" cy="94.4" r="94.4"></circle>
<g>
	<path class="st1" d="M89.2,122.5c-1.1-0.2-5.2-0.2-6.7-0.1c-1,0.1-1,0-1.3-0.2c-0.1-0.1-0.2-0.2-0.3-0.3c-0.2-0.2-0.5-0.1-0.7,0.1   c-0.2,0.2-0.1,0.5,0.1,0.7c0.1,0.1,0.2,0.1,0.3,0.2c0.5,0.4,0.8,0.6,2.1,0.4c1.5-0.2,5.4-0.2,6.4,0c0.5,0.1,1.5,0.2,2.3,0.2   c0.8,0,1.7-0.1,2.1-0.2c0.5-0.2,3.5-0.2,4.9-0.2l1,0c1.4,0,2.9-0.4,3.2-1.2c0.1-0.3,0-0.6-0.3-0.7c-0.3-0.1-0.5,0-0.6,0.3   c-0.1,0.1-0.8,0.5-2.2,0.5l-1,0c-2.5,0-4.6,0-5.2,0.2C92.5,122.7,90.2,122.8,89.2,122.5z"></path>
	<path class="st1" d="M152,50.6c-0.3,0-0.5,0.2-0.5,0.5c-0.1,1.8-2.1,5.2-3.9,8.6c-1.3,2.4-2.7,4.9-3.4,6.7c-0.4,1-1,2.6-1.7,4.5   c-2.4,6.4-6.5,17.2-7.4,18.5c-1.3,1.8-4.1,7.1-5.6,11.4c-0.6,1.8-2.2,5.3-3.8,9c-2.1,4.8-4.3,9.8-4.8,11.6c-0.4,1.5-1,4-1.7,4.3   c0,0-0.2,0.1-0.5-0.1c0,0-1.8-0.9-2-3.5c0.3,0.2,0.6,0.4,0.9,0.5c0.2,0.1,0.3,0.1,0.5,0.1c0.2,0,0.4,0,0.5-0.1c0.6-0.3,0.7-1,1-2   c0.2-0.9,0.5-1.9,1.1-3.2c0.6-1.3,1.1-2.7,1.7-4c0.8-2,1.6-4.1,2.8-6.3c1.4-2.6,1.6-4.3,1.9-5.7c0.1-0.6,0.2-1.2,0.4-1.7l0.4-1.2   c1.1-3.1,4.1-11.5,5.1-13.7c0.1-0.2,0-0.5-0.2-0.7c-0.2-0.1-0.5,0-0.7,0.2c-1.1,2.3-4,10.4-5.2,13.8l-0.4,1.1   c-0.2,0.6-0.3,1.2-0.4,1.9c-0.2,1.3-0.5,2.9-1.8,5.4c-1.2,2.3-2,4.4-2.8,6.4c-0.5,1.4-1,2.7-1.6,4c-0.6,1.3-0.9,2.5-1.2,3.3   c-0.2,0.7-0.4,1.3-0.5,1.4c0,0-0.1,0-0.2,0c-1.7-0.5-2.3-2.7-1.9-6.2c0-0.1,2.5-10.7,3.3-12.5c0,0,0-0.1,0-0.1   c0-0.1,1.8-13.5,2.8-18.7c1.1-5.5,0.8-7.9-3-13.2c-0.2-0.2-0.5-0.3-0.7-0.1c-0.2,0.2-0.3,0.5-0.1,0.7c0,0,0,0,0,0   c-2.5-0.1-5.4,1.3-8,2.6c-0.4,0.2-0.9,0.4-1.3,0.6c-2.3,1.1-6,2.1-8.8,1c-1.4-0.5-2.4-1.5-3-2.9c-0.1-0.4,2.2-1.3,3.6-1.8   c1.5-0.6,3.1-1.2,4.8-2.1c4.5-2.3,13.1-7.5,15.3-9.2c1.8-1.4,4.2-2.5,7.2-3.9l1.6-0.8c4.2-2,3.4-5.6,3.4-5.6   c-0.1-0.3-0.3-0.4-0.6-0.4c-0.3,0.1-0.4,0.3-0.4,0.6c0,0,0.6,2.8-2.8,4.5l-1.6,0.8c-3.1,1.4-5.5,2.6-7.4,4   c-2.2,1.7-10.7,6.8-15.1,9.1c-1.7,0.8-3.3,1.5-4.8,2.1c-2.8,1.1-4.6,1.8-4.1,3.1c0.7,1.7,1.9,2.9,3.6,3.5c0.9,0.4,2,0.5,3,0.5   c2.3,0,4.8-0.7,6.5-1.6c0.4-0.2,0.8-0.4,1.3-0.6c2.8-1.4,6-2.9,8.4-2.3c2.8,4.2,2.9,6.4,2,11.3c-1,5.1-2.7,17.7-2.8,18.7   c-0.8,2-3.2,12.2-3.3,12.7c-0.4,2.8,0,4.6,0.6,5.7v1c0,0,0,0,0,0c0,0,0,0,0,0c0,5.8-15.7,19.4-24.3,19.4c-8.2,0-20.9-9.9-24.4-21.4   c0.9-1,1.5-2.8,1.3-6c-0.1-0.4-1.6-10.8-2.2-12.9c0-1-0.6-13.7-1.2-18.9c-0.5-4.9-0.2-7.1,3-11c2.5-0.4,5.5,1.4,8.1,3   c0.4,0.3,0.8,0.5,1.2,0.7c1.9,1.1,4.6,2.1,7.3,2.1c0.8,0,1.5-0.1,2.2-0.3c1.7-0.5,3-1.6,3.9-3.2c0.5-1.2-1.2-2.1-3.9-3.4   c-1.4-0.7-3-1.5-4.6-2.4c-4.2-2.6-12.3-8.5-14.3-10.3c-1.8-1.6-4.1-3-7-4.7l-1.6-0.9c-3.3-1.9-2.5-4.6-2.5-4.7   c0.1-0.3-0.1-0.5-0.3-0.6c-0.3-0.1-0.5,0.1-0.6,0.3c0,0-1.1,3.5,2.9,5.9l1.6,0.9c2.9,1.7,5.2,3,6.9,4.5c2.1,1.9,10.2,7.8,14.4,10.4   c1.6,1,3.2,1.8,4.6,2.5c1.3,0.7,3.6,1.8,3.4,2.1c-0.7,1.4-1.8,2.3-3.2,2.7c-2.8,0.8-6.4-0.4-8.7-1.8c-0.4-0.2-0.8-0.5-1.2-0.7   c-2.5-1.5-5.2-3.2-7.8-3.2c0,0,0,0,0,0c0.2-0.2,0.2-0.5-0.1-0.7c-0.2-0.2-0.5-0.2-0.7,0.1c-4.2,4.9-4.7,7.3-4.1,12.9   c0.6,5.3,1.2,18.8,1.2,18.9c0,0,0,0.1,0,0.1c0.6,1.9,2.2,12.7,2.2,12.7c0.2,3.5-0.7,5.7-2.4,6c-0.1,0-0.2,0-0.2,0   c-0.2-0.1-0.3-0.8-0.4-1.5c-0.2-0.9-0.4-2-0.9-3.4c-0.5-1.4-0.9-2.7-1.3-4.1c-0.6-2.1-1.3-4.3-2.3-6.7c-1.1-2.5-1.2-4.2-1.3-5.5   c-0.1-0.7-0.1-1.3-0.3-1.9l-0.3-1.2c-0.9-3.5-3.1-11.8-4-14.2c-0.1-0.3-0.4-0.4-0.6-0.3C53,81.4,52.9,81.7,53,82   c0.9,2.3,3.1,10.8,3.9,14l0.3,1.2c0.1,0.5,0.2,1.1,0.2,1.7c0.1,1.4,0.2,3.1,1.4,5.8c1,2.3,1.6,4.5,2.2,6.5c0.4,1.4,0.8,2.8,1.3,4.2   c0.5,1.3,0.7,2.4,0.8,3.2c0.2,1.1,0.3,1.8,0.9,2.1c0.2,0.1,0.4,0.2,0.6,0.2c0.1,0,0.2,0,0.4,0c0.3-0.1,0.6-0.2,1-0.4   c-0.4,2.6-2.2,3.3-2.3,3.3c-0.3,0.1-0.4,0.1-0.5,0c-0.7-0.4-1.1-2.9-1.3-4.4c-0.3-1.8-2-6.9-3.8-11.9c-1.3-3.8-2.6-7.4-3-9.3   c-1.1-4.4-3.4-9.9-4.6-11.8c-0.8-1.3-4-12.4-5.8-19.1c-0.6-2-1-3.6-1.3-4.7c-0.6-1.9-1.7-4.5-2.9-7c-1.6-3.5-3.2-7.1-3.2-8.9   c0-0.3-0.2-0.5-0.5-0.5c-0.3,0-0.5,0.2-0.5,0.5c0,2,1.6,5.5,3.3,9.3c1.1,2.5,2.3,5,2.8,6.9c0.3,1,0.8,2.7,1.3,4.7   c2.6,9.4,5.1,18,5.9,19.3c1.1,1.8,3.4,7.3,4.5,11.5c0.5,1.9,1.7,5.5,3.1,9.4c1.7,4.9,3.5,10.1,3.7,11.8c0.4,2.7,0.8,4.6,1.8,5.2   c0.2,0.1,0.4,0.2,0.6,0.2c0.2,0,0.4,0,0.7-0.2c0.1,0,1.7-0.7,2.5-2.7c1,2.7,2.5,5.2,4.3,7.5c0,0,0,0,0,0c3.1,6.6,1.6,11.9,1.6,11.9   c-0.1,0.3,0.1,0.5,0.3,0.6c0,0,0.1,0,0.1,0c0.2,0,0.4-0.1,0.5-0.4c0.1-0.2,1.2-4.3-0.6-9.8c5.5,6.1,12.9,10.2,18.3,10.2   c4.8,0,12.3-4.3,17.9-9.3c-2.1,5.1-1.3,8.8-1.3,8.9c0.1,0.2,0.3,0.4,0.5,0.4c0,0,0.1,0,0.1,0c0.3-0.1,0.4-0.3,0.4-0.6   c0,0-0.9-4.6,2.3-10.6c2.4-2.4,4.2-4.8,5-6.9c0.7,1.6,2,2.2,2,2.2c0.3,0.2,0.6,0.2,0.8,0.2c0.2,0,0.4,0,0.5-0.1   c1.1-0.5,1.6-2.4,2.3-5c0.4-1.7,2.6-6.6,4.7-11.4c1.6-3.7,3.2-7.2,3.9-9.1c1.5-4.1,4.2-9.4,5.4-11.1c1-1.3,4.1-9.6,7.6-18.8   c0.7-1.9,1.3-3.5,1.7-4.5c0.7-1.8,2.1-4.2,3.4-6.6c2-3.6,3.9-7,4.1-9C152.4,50.8,152.2,50.6,152,50.6z"></path>
	<path class="st1" d="M108.5,99.8C108.5,99.8,108.5,99.8,108.5,99.8c1-0.4,2.1,0.2,2.4,0.6c0.1,0.1,0.2,0.2,0.4,0.2   c0.1,0,0.2,0,0.3-0.1c0.2-0.2,0.2-0.5,0.1-0.7c-0.2-0.3-0.6-0.6-1.1-0.8c0.5-0.2,0.9-0.2,1.8-0.2c0.3,0,0.5-0.2,0.5-0.5   c0-0.3-0.2-0.5-0.5-0.5c-1.6,0-1.9,0.1-3.2,0.6c-0.3,0.1-0.7,0.3-1.1,0.4c-2.1,0.8-8.9,0.6-10.4-0.6c-0.2-0.2-0.5-0.1-0.7,0.1   c-0.2,0.2-0.1,0.5,0.1,0.7c1.1,0.9,4,1.3,6.7,1.3C105.7,100.4,107.6,100.2,108.5,99.8z"></path>
	<path class="st1" d="M84.2,98.4c-0.2-0.2-0.5-0.3-0.7-0.1c-1.5,1.2-8.3,1.4-10.4,0.5c-0.4-0.2-0.8-0.3-1.1-0.4   c-1.3-0.5-1.6-0.7-3.2-0.6c-0.3,0-0.5,0.2-0.5,0.5c0,0.3,0.3,0.5,0.5,0.5c0.9,0,1.3,0,1.8,0.2c-0.5,0.2-0.9,0.5-1.1,0.8   c-0.2,0.2-0.1,0.5,0.1,0.7c0.1,0.1,0.2,0.1,0.3,0.1c0.1,0,0.3-0.1,0.4-0.2c0.3-0.4,1.4-1,2.4-0.6l0,0c0,0,0,0,0,0   c1,0.4,2.8,0.6,4.7,0.6c2.7,0,5.6-0.4,6.7-1.3C84.4,99,84.4,98.7,84.2,98.4z"></path>
	<path class="st1" d="M96.9,126c-0.2-0.2-0.5-0.3-0.7-0.1c-1.5,1.1-2.5,1.1-4.7,1.1l-1.1,0c-1.9,0-3.2,0-5.2-1.2   c-0.2-0.1-0.5-0.1-0.7,0.2c-0.1,0.2-0.1,0.5,0.2,0.7c2,1.2,3.4,1.4,5,1.4c0.2,0,0.5,0,0.7,0l1.1,0c2.3,0,3.6,0,5.3-1.3   C97,126.5,97,126.2,96.9,126z"></path>
	<path class="st1" d="M115.7,90.5c-5.9-5.8-9-5-14.7-3.7c-1.1,0.3-2.2,0.5-3.6,0.8c-0.7,0.1-1.2,0.7-1.2,1.4c0,0.5,0.2,1,0.6,1.3   c0.4,0.3,0.9,0.4,1.4,0.2c11.7-3.7,16.4,0.3,16.9,0.7c0,0,0,0,0.1,0.1c0.1,0.1,0.2,0.1,0.4,0.1c0.1,0,0.3,0,0.3-0.1   c0.2-0.2,0.2-0.5,0-0.7C115.8,90.6,115.8,90.5,115.7,90.5z M97.9,89.5c-0.2,0.1-0.3,0-0.5-0.1c-0.1-0.1-0.2-0.3-0.2-0.4   c0-0.2,0.2-0.4,0.4-0.5c1.3-0.3,2.5-0.5,3.6-0.8c2.2-0.5,3.9-0.9,5.5-0.9c1.7,0,3.2,0.4,5,1.6C108.9,87.7,104.5,87.4,97.9,89.5z"></path>
	<path class="st1" d="M84.4,90.8c0.5,0.2,1,0.1,1.4-0.2c0.4-0.3,0.6-0.8,0.6-1.3v0c0-0.7-0.5-1.3-1.2-1.4c-1.3-0.3-2.5-0.5-3.6-0.8   c-5.7-1.3-8.8-2.1-14.7,3.7c-0.1,0.1-0.1,0.1-0.1,0.1c-0.2,0.2-0.2,0.5,0,0.7c0.1,0.1,0.2,0.1,0.3,0.1c0.1,0,0.3,0,0.4-0.1   c0,0,0,0,0.1-0.1C68,91.1,72.7,87,84.4,90.8z M70.8,88.7c3.5-2.4,6.1-1.8,10.5-0.7c1.1,0.3,2.3,0.5,3.6,0.8c0.2,0,0.4,0.2,0.4,0.5   c0,0.2-0.1,0.3-0.2,0.4c-0.1,0.1-0.3,0.1-0.5,0.1c-3.8-1.2-6.9-1.6-9.3-1.6C73.5,88.2,72,88.4,70.8,88.7z"></path>
	<path class="st1" d="M86.6,111.2c-0.5-0.3-0.4-0.7-0.3-0.9C88.1,105.9,89,99.6,89,92c0-0.3-0.2-0.5-0.5-0.5S88,91.8,88,92   c0,7.4-0.9,13.6-2.7,17.9c-0.3,0.8-0.1,1.6,0.7,2.1c0.6,0.4,1.6,0.7,2.7,0.7c1.3,0,2.8-0.4,3.7-1.3c0.2-0.2,0.2-0.5,0-0.7   s-0.5-0.2-0.7,0C90.4,112,87.6,111.9,86.6,111.2z"></path>
	<path class="st1" d="M115.1,105.7c0.1-0.3-0.1-0.5-0.4-0.6c-0.3-0.1-0.5,0.1-0.6,0.4c-0.2,0.7-0.3,1.3-0.5,1.9   c-0.1,0.3,0.1,0.5,0.4,0.6c0,0,0.1,0,0.1,0c0.2,0,0.4-0.2,0.5-0.4C114.7,106.9,114.9,106.3,115.1,105.7z"></path>
	<path class="st1" d="M115.6,103.7c0.2-0.6,0.3-1.3,0.5-1.9c0.1-0.3-0.1-0.5-0.4-0.6c-0.3-0.1-0.5,0.1-0.6,0.4   c-0.2,0.6-0.3,1.3-0.5,1.9c-0.1,0.3,0.1,0.5,0.4,0.6c0,0,0.1,0,0.1,0C115.3,104.1,115.5,104,115.6,103.7z"></path>
	<path class="st1" d="M112.5,113.2c-0.1,0.7-0.2,1.4-0.3,2c0,0.3,0.2,0.5,0.4,0.6c0,0,0,0,0.1,0c0.3,0,0.5-0.2,0.5-0.4   c0.1-0.6,0.1-1.3,0.2-2c0-0.3-0.1-0.5-0.4-0.6C112.8,112.7,112.5,112.9,112.5,113.2z"></path>
	<path class="st1" d="M118.6,88.1c0.1-0.7,0.1-1.4,0.2-2c0-0.3-0.2-0.5-0.5-0.5c-0.3,0-0.5,0.2-0.5,0.5c-0.1,0.6-0.1,1.3-0.2,2   c0,0.3,0.2,0.5,0.4,0.6c0,0,0,0,0.1,0C118.3,88.5,118.5,88.3,118.6,88.1z"></path>
	<path class="st1" d="M117.3,89.9c-0.1,0.6-0.2,1.3-0.3,2c0,0.3,0.1,0.5,0.4,0.6c0,0,0.1,0,0.1,0c0.2,0,0.5-0.2,0.5-0.4   c0.1-0.7,0.2-1.3,0.3-2c0-0.3-0.2-0.5-0.4-0.6C117.6,89.5,117.4,89.6,117.3,89.9z"></path>
	<path class="st1" d="M117.3,78c-0.3,0-0.5,0.2-0.5,0.5s0.2,0.5,0.5,0.5c0.1,0,0.3,0.2,0.5,1.1c0,0.2,0.3,0.4,0.5,0.4   c0,0,0.1,0,0.1,0c0.3,0,0.5-0.3,0.4-0.6C118.5,78.7,118,78,117.3,78z"></path>
	<path class="st1" d="M116.4,95.8c-0.1,0.3,0.1,0.5,0.4,0.6c0,0,0.1,0,0.1,0c0.2,0,0.4-0.2,0.5-0.4c0.1-0.7,0.2-1.3,0.4-2   c0-0.3-0.1-0.5-0.4-0.6c-0.3,0-0.5,0.1-0.6,0.4C116.6,94.5,116.5,95.1,116.4,95.8z"></path>
	<path class="st1" d="M118.9,82.6c0-0.2,0-0.4,0-0.5c0-0.3-0.3-0.5-0.5-0.5c-0.3,0-0.5,0.2-0.5,0.5c0,0.2,0,0.3,0,0.5   c0,0.4,0,0.9,0,1.4c0,0.3,0.2,0.5,0.5,0.5c0,0,0,0,0,0c0.3,0,0.5-0.2,0.5-0.5C118.9,83.6,118.9,83.1,118.9,82.6z"></path>
	<path class="st1" d="M116,97.7c-0.1,0.6-0.3,1.3-0.4,1.9c-0.1,0.3,0.1,0.5,0.4,0.6c0,0,0.1,0,0.1,0c0.2,0,0.4-0.2,0.5-0.4   c0.1-0.6,0.3-1.3,0.4-1.9c0.1-0.3-0.1-0.5-0.4-0.6C116.3,97.3,116,97.4,116,97.7z"></path>
	<path class="st1" d="M113.8,111.4c0.1-0.6,0.2-1.3,0.4-1.9c0.1-0.3-0.1-0.5-0.4-0.6c-0.3-0.1-0.5,0.1-0.6,0.4   c-0.1,0.7-0.3,1.3-0.4,2c0,0.3,0.1,0.5,0.4,0.6c0,0,0.1,0,0.1,0C113.5,111.8,113.7,111.7,113.8,111.4z"></path>
	<path class="st1" d="M114.5,119.1l-1.5,0c0-0.6,0-1.2,0.1-1.9c0-0.3-0.2-0.5-0.5-0.5c-0.3,0-0.5,0.2-0.5,0.5c0,0.7-0.1,1.4-0.1,2   l-1.5,0l2.1,3.4L114.5,119.1z"></path>
	<path class="st1" d="M102,131.4c-0.5,0.4-1,0.9-1.5,1.2c-0.2,0.2-0.3,0.5-0.1,0.7c0.1,0.1,0.2,0.2,0.4,0.2c0.1,0,0.2,0,0.3-0.1   c0.5-0.4,1.1-0.8,1.6-1.3c0.2-0.2,0.2-0.5,0-0.7C102.5,131.2,102.2,131.2,102,131.4z"></path>
	<path class="st1" d="M89.7,135.4c-0.3,0-0.5,0.1-0.6,0.4c0,0.3,0.1,0.5,0.4,0.6c0.7,0.1,1.4,0.2,2,0.2c0,0,0,0,0,0   c0.3,0,0.5-0.2,0.5-0.5c0-0.3-0.2-0.5-0.5-0.5C91,135.6,90.3,135.5,89.7,135.4z"></path>
	<path class="st1" d="M97.4,135.5c0.1,0,0.1,0,0.2,0c0.6-0.3,1.2-0.6,1.8-0.9c0.2-0.1,0.3-0.4,0.2-0.7c-0.1-0.2-0.4-0.3-0.7-0.2   c-0.6,0.3-1.1,0.6-1.7,0.9c-0.3,0.1-0.4,0.4-0.3,0.7C97,135.4,97.2,135.5,97.4,135.5z"></path>
	<path class="st1" d="M95.4,135.1c-0.6,0.2-1.2,0.3-1.9,0.4c-0.3,0-0.5,0.3-0.4,0.6c0,0.3,0.2,0.4,0.5,0.4c0,0,0,0,0.1,0   c0.7-0.1,1.4-0.2,2-0.4c0.3-0.1,0.4-0.3,0.4-0.6C95.9,135.2,95.6,135.1,95.4,135.1z"></path>
	<path class="st1" d="M79.2,131c0.4,0.4,0.8,0.7,1.3,1.1c0.1,0.1,0.2,0.1,0.3,0.1c0.1,0,0.3-0.1,0.4-0.2c0.2-0.2,0.1-0.5-0.1-0.7   c-0.4-0.3-0.8-0.7-1.2-1l-0.3-0.2c-0.2-0.2-0.5-0.2-0.7,0c-0.2,0.2-0.2,0.5,0,0.7L79.2,131z"></path>
	<path class="st1" d="M77.4,129.4c0.1,0.1,0.2,0.1,0.3,0.1c0.1,0,0.3-0.1,0.4-0.2c0.2-0.2,0.2-0.5,0-0.7c-0.5-0.5-1-0.9-1.4-1.3   c-0.2-0.2-0.5-0.2-0.7,0c-0.2,0.2-0.2,0.5,0,0.7C76.4,128.5,76.9,129,77.4,129.4z"></path>
	<path class="st1" d="M84.3,133.5c-0.5-0.3-1.1-0.6-1.7-1c-0.2-0.2-0.5-0.1-0.7,0.1c-0.2,0.2-0.1,0.5,0.1,0.7   c0.6,0.4,1.2,0.7,1.7,1.1c0.1,0,0.2,0.1,0.2,0.1c0.2,0,0.3-0.1,0.4-0.3C84.6,133.9,84.5,133.6,84.3,133.5z"></path>
	<path class="st1" d="M86,134.3c-0.3-0.1-0.5,0-0.7,0.3s0,0.5,0.3,0.7c0.6,0.3,1.3,0.5,1.9,0.7c0,0,0.1,0,0.1,0   c0.2,0,0.4-0.1,0.5-0.4c0.1-0.3-0.1-0.5-0.3-0.6C87.2,134.8,86.6,134.6,86,134.3z"></path>
	<polygon class="st1" points="72.9,124.2 73.8,128.1 76.7,125.4  "></polygon>
</g>
</svg>
