<?xml version="1.0" encoding="UTF-8"?>
<!-- Generator: Adobe Illustrator 23.1.0, SVG Export Plug-In . SVG Version: 6.00 Build 0)  -->
<svg xmlns="http://www.w3.org/2000/svg" xmlns:xlink="http://www.w3.org/1999/xlink" version="1.1" id="Слой_1" x="0px" y="0px" viewBox="0 0 188.8 188.8" style="enable-background:new 0 0 188.8 188.8;" xml:space="preserve">
<style type="text/css">
	.st0{fill:#FFF1EF;}
	.st1{fill:#A87E72;}
</style>
<circle class="st0" cx="94.4" cy="94.4" r="94.4"></circle>
<g>
	<path class="st1" d="M142.8,36.6C142.8,36.7,142.8,36.7,142.8,36.6c-0.1,0-0.2,0.1-0.3,0.1c-9.7,8.3-32,12.8-48,12.8l-1.7,0   c-15.6,0-26.9,0-48.2-10.6c0,0-0.1,0-0.1,0c0-0.1-0.1-0.1-0.2-0.2c-0.2-0.1-0.5,0-0.7,0.3c-5,11.5-8,32.9,3.9,111   c0,0.2,0.3,0.4,0.5,0.4c0,0,0.1,0,0.1,0c0.3,0,0.5-0.3,0.4-0.6c-9.4-61.2-9.5-87.4-6.8-101.4c4.8,6,12.8,10.4,22,15.6   c8,4.5,17.1,9.6,26.2,16.8c0,33.2-2.7,55-8.4,68.7c-0.1,0.3,0,0.5,0.3,0.7c0.1,0,0.1,0,0.2,0c0.2,0,0.4-0.1,0.5-0.3   c5.8-13.7,8.5-35.6,8.5-68.8h3h3c0,33.8,2.8,55.9,8.8,69.5c0.1,0.2,0.3,0.3,0.5,0.3c0.1,0,0.1,0,0.2,0c0.3-0.1,0.4-0.4,0.3-0.7   c-5.9-13.6-8.7-35.6-8.7-69.4c9.1-7.2,18.1-12.2,26-16.6c9.3-5.2,17.4-9.7,22.1-16c3.1,15.5,2.2,43.3-6.8,102   c0,0.3,0.1,0.5,0.4,0.6c0,0,0.1,0,0.1,0c0.2,0,0.5-0.2,0.5-0.4c11.7-76.4,9.6-100.7,3-113.7C143.3,36.6,143,36.5,142.8,36.6z    M123.6,63.5c-8,4.4-17,9.4-26.2,16.7h-3.3h-3.3C81.6,73,72.4,67.9,64.3,63.3c-9.5-5.3-17.6-9.9-22.2-16c0.6-2.9,1.4-5.3,2.3-7.3   C65,50.3,76.3,50.6,91.2,50.6c0.5,0,1.1,0,1.6,0l1.7,0c16,0,38.3-4.5,48.3-12.8c1.3,2.5,2.3,5.5,3.2,9.3   C141.5,53.6,133.6,58,123.6,63.5z"></path>
	<path class="st1" d="M54.8,129.9c-0.2-0.9-0.4-1.8-0.7-2.8c-0.1-0.3-0.3-0.4-0.6-0.4c-0.3,0.1-0.4,0.3-0.4,0.6   c0.2,1,0.5,1.9,0.7,2.8c0.1,0.2,0.3,0.4,0.5,0.4c0,0,0.1,0,0.1,0C54.7,130.5,54.8,130.2,54.8,129.9z"></path>
	<path class="st1" d="M47.1,91.5C47.1,91.5,47.2,91.5,47.1,91.5c0.3,0,0.5-0.3,0.5-0.5c-0.1-0.9-0.2-1.9-0.3-2.8   c0-0.3-0.3-0.5-0.5-0.5c-0.3,0-0.5,0.3-0.5,0.5c0.1,0.9,0.2,1.9,0.3,2.8C46.7,91.3,46.9,91.5,47.1,91.5z"></path>
	<path class="st1" d="M46.8,68.9c0.3,0,0.5-0.2,0.5-0.4c0.1-1,0.2-1.9,0.4-2.8c0-0.3-0.1-0.5-0.4-0.6c-0.3,0-0.5,0.1-0.6,0.4   c-0.1,0.9-0.3,1.9-0.4,2.8C46.3,68.6,46.5,68.8,46.8,68.9C46.7,68.9,46.8,68.9,46.8,68.9z"></path>
	<path class="st1" d="M46.7,85.9C46.7,85.9,46.7,85.9,46.7,85.9c0.3,0,0.5-0.3,0.5-0.5c-0.1-0.9-0.1-1.9-0.2-2.8   c0-0.3-0.2-0.5-0.5-0.5c-0.3,0-0.5,0.2-0.5,0.5c0,0.9,0.1,1.9,0.2,2.8C46.2,85.7,46.4,85.9,46.7,85.9z"></path>
	<path class="st1" d="M45.9,77.1c0,0.9,0,1.8,0,2.6c0,0.3,0.2,0.5,0.5,0.5c0,0,0,0,0,0c0.3,0,0.5-0.2,0.5-0.5c0-0.9,0-1.8,0-2.6   l0-0.2c0-0.3-0.2-0.5-0.5-0.5s-0.5,0.2-0.5,0.5L45.9,77.1z"></path>
	<path class="st1" d="M50,107.8c-0.2-0.9-0.3-1.9-0.5-2.8c0-0.3-0.3-0.5-0.6-0.4c-0.3,0-0.5,0.3-0.4,0.6c0.2,0.9,0.3,1.9,0.5,2.8   c0,0.2,0.3,0.4,0.5,0.4c0,0,0.1,0,0.1,0C49.9,108.3,50.1,108,50,107.8z"></path>
	<path class="st1" d="M46.1,71.2C46,72.1,45.9,73,45.9,74c0,0.3,0.2,0.5,0.5,0.5c0,0,0,0,0,0c0.3,0,0.5-0.2,0.5-0.5   c0-1,0.1-1.9,0.1-2.8c0-0.3-0.2-0.5-0.5-0.5C46.3,70.7,46.1,70.9,46.1,71.2z"></path>
	<path class="st1" d="M56.9,138.2c-0.1-0.3-0.3-0.4-0.6-0.3c-0.3,0.1-0.4,0.3-0.3,0.6l0.3,0.9l-1.4,0.4l2.8,2.8l1-3.9l-1.5,0.4   L56.9,138.2z"></path>
	<path class="st1" d="M53.4,124.4c-0.2-0.9-0.4-1.8-0.6-2.8c-0.1-0.3-0.3-0.4-0.6-0.4c-0.3,0.1-0.4,0.3-0.4,0.6   c0.2,0.9,0.4,1.9,0.6,2.8c0.1,0.2,0.3,0.4,0.5,0.4c0,0,0.1,0,0.1,0C53.3,125,53.5,124.7,53.4,124.4z"></path>
	<path class="st1" d="M55.7,136c0,0,0.1,0,0.1,0c0.3-0.1,0.4-0.3,0.4-0.6c-0.2-0.9-0.5-1.8-0.7-2.7c-0.1-0.3-0.3-0.4-0.6-0.4   c-0.3,0.1-0.4,0.3-0.4,0.6c0.3,1,0.5,1.9,0.7,2.8C55.3,135.9,55.5,136,55.7,136z"></path>
	<path class="st1" d="M52.2,118.9c-0.2-0.9-0.4-1.8-0.6-2.8c-0.1-0.3-0.3-0.4-0.6-0.4c-0.3,0.1-0.4,0.3-0.4,0.6   c0.2,0.9,0.4,1.9,0.6,2.8c0.1,0.2,0.3,0.4,0.5,0.4c0,0,0.1,0,0.1,0C52.1,119.4,52.2,119.2,52.2,118.9z"></path>
	<path class="st1" d="M47.8,97.1C47.8,97.1,47.8,97.1,47.8,97.1c0.3,0,0.5-0.3,0.5-0.6c-0.1-0.9-0.2-1.9-0.3-2.8   c0-0.3-0.3-0.5-0.6-0.4c-0.3,0-0.5,0.3-0.4,0.6c0.1,0.9,0.2,1.9,0.3,2.8C47.3,97,47.5,97.1,47.8,97.1z"></path>
	<path class="st1" d="M48.6,102.8C48.6,102.8,48.6,102.8,48.6,102.8c0.4,0,0.5-0.3,0.5-0.6c-0.1-0.9-0.3-1.9-0.4-2.8   c0-0.3-0.3-0.5-0.6-0.4c-0.3,0-0.5,0.3-0.4,0.6c0.1,0.9,0.3,1.9,0.4,2.8C48.1,102.6,48.3,102.8,48.6,102.8z"></path>
	<path class="st1" d="M51,113.3c-0.2-0.9-0.4-1.8-0.5-2.8c-0.1-0.3-0.3-0.5-0.6-0.4c-0.3,0.1-0.5,0.3-0.4,0.6   c0.2,0.9,0.4,1.9,0.5,2.8c0,0.2,0.3,0.4,0.5,0.4c0,0,0.1,0,0.1,0C50.9,113.9,51.1,113.6,51,113.3z"></path>
	<path class="st1" d="M141.6,70.7c-0.3,0-0.5,0.3-0.5,0.5c0.1,0.9,0.1,1.9,0.1,2.8c0,0.3,0.2,0.5,0.5,0.5c0,0,0,0,0,0   c0.3,0,0.5-0.2,0.5-0.5c0-1-0.1-1.9-0.1-2.8C142.1,70.9,141.8,70.7,141.6,70.7z"></path>
	<path class="st1" d="M142.3,77.1v-0.2c0-0.3-0.2-0.5-0.5-0.5s-0.5,0.2-0.5,0.5v0.2c0,0.9,0,1.7,0,2.6c0,0.3,0.2,0.5,0.5,0.5   c0,0,0,0,0,0c0.3,0,0.5-0.2,0.5-0.5C142.3,78.8,142.3,77.9,142.3,77.1z"></path>
	<path class="st1" d="M141,65.1c-0.3,0-0.5,0.3-0.4,0.6c0.1,0.9,0.3,1.8,0.4,2.8c0,0.3,0.2,0.4,0.5,0.4c0,0,0,0,0.1,0   c0.3,0,0.5-0.3,0.4-0.5c-0.1-1-0.2-1.9-0.4-2.8C141.5,65.2,141.2,65,141,65.1z"></path>
	<path class="st1" d="M140.8,88.1c-0.1,0.9-0.2,1.9-0.3,2.8c0,0.3,0.2,0.5,0.4,0.5c0,0,0,0,0.1,0c0.3,0,0.5-0.2,0.5-0.5   c0.1-0.9,0.2-1.9,0.3-2.8c0-0.3-0.2-0.5-0.5-0.5C141.1,87.7,140.8,87.9,140.8,88.1z"></path>
	<path class="st1" d="M142,85.4c0.1-1,0.1-1.9,0.2-2.8c0-0.3-0.2-0.5-0.5-0.5c-0.3,0-0.5,0.2-0.5,0.5c0,0.9-0.1,1.9-0.2,2.8   c0,0.3,0.2,0.5,0.5,0.5c0,0,0,0,0,0C141.8,85.9,142,85.7,142,85.4z"></path>
	<path class="st1" d="M139.5,99.4c-0.1,0.9-0.3,1.9-0.4,2.8c0,0.3,0.1,0.5,0.4,0.6c0,0,0.1,0,0.1,0c0.2,0,0.5-0.2,0.5-0.4   c0.1-0.9,0.3-1.9,0.4-2.8c0-0.3-0.2-0.5-0.4-0.6C139.8,98.9,139.6,99.1,139.5,99.4z"></path>
	<path class="st1" d="M140.2,93.8c-0.1,0.9-0.2,1.9-0.3,2.8c0,0.3,0.2,0.5,0.4,0.6c0,0,0,0,0.1,0c0.2,0,0.5-0.2,0.5-0.4   c0.1-0.9,0.2-1.9,0.3-2.8c0-0.3-0.2-0.5-0.4-0.6C140.5,93.3,140.3,93.5,140.2,93.8z"></path>
	<path class="st1" d="M138.2,110.2c-0.3-0.1-0.5,0.1-0.6,0.4c-0.2,0.9-0.4,1.9-0.5,2.8c-0.1,0.3,0.1,0.5,0.4,0.6c0,0,0.1,0,0.1,0   c0.2,0,0.4-0.2,0.5-0.4c0.2-0.9,0.4-1.8,0.5-2.8C138.7,110.5,138.5,110.2,138.2,110.2z"></path>
	<path class="st1" d="M134.7,126.8c-0.3-0.1-0.5,0.1-0.6,0.4c-0.2,1-0.5,1.9-0.7,2.8c-0.1,0.3,0.1,0.5,0.4,0.6c0,0,0.1,0,0.1,0   c0.2,0,0.4-0.2,0.5-0.4c0.2-0.9,0.4-1.8,0.7-2.8C135.1,127.1,135,126.9,134.7,126.8z"></path>
	<path class="st1" d="M133.3,132.3c-0.3-0.1-0.5,0.1-0.6,0.4c-0.3,1-0.5,1.9-0.7,2.7c-0.1,0.3,0.1,0.5,0.4,0.6c0,0,0.1,0,0.1,0   c0.2,0,0.4-0.1,0.5-0.4c0.2-0.9,0.5-1.8,0.7-2.8C133.8,132.7,133.6,132.4,133.3,132.3z"></path>
	<path class="st1" d="M136,121.3c-0.3-0.1-0.5,0.1-0.6,0.4c-0.2,0.9-0.4,1.9-0.6,2.8c-0.1,0.3,0.1,0.5,0.4,0.6c0,0,0.1,0,0.1,0   c0.2,0,0.4-0.2,0.5-0.4c0.2-0.9,0.4-1.8,0.6-2.8C136.4,121.6,136.2,121.3,136,121.3z"></path>
	<path class="st1" d="M137.2,115.7c-0.3-0.1-0.5,0.1-0.6,0.4c-0.2,0.9-0.4,1.9-0.6,2.8c-0.1,0.3,0.1,0.5,0.4,0.6c0,0,0.1,0,0.1,0   c0.2,0,0.4-0.2,0.5-0.4c0.2-0.9,0.4-1.8,0.6-2.8C137.6,116,137.4,115.8,137.2,115.7z"></path>
	<path class="st1" d="M132.2,138.4c0.1-0.3-0.1-0.5-0.3-0.6c-0.3-0.1-0.5,0.1-0.6,0.3l-0.3,0.9l-1.5-0.4l1,3.9l2.8-2.8l-1.4-0.4   L132.2,138.4z"></path>
	<path class="st1" d="M139.2,104.6c-0.3,0-0.5,0.1-0.6,0.4c-0.2,0.9-0.3,1.9-0.5,2.8c0,0.3,0.1,0.5,0.4,0.6c0,0,0.1,0,0.1,0   c0.2,0,0.4-0.2,0.5-0.4c0.2-0.9,0.3-1.9,0.5-2.8C139.7,104.9,139.5,104.6,139.2,104.6z"></path>
</g>
</svg>
