<?xml version="1.0" encoding="UTF-8"?>
<!-- Generator: Adobe Illustrator 23.1.0, SVG Export Plug-In . SVG Version: 6.00 Build 0)  -->
<svg xmlns="http://www.w3.org/2000/svg" xmlns:xlink="http://www.w3.org/1999/xlink" version="1.1" id="Слой_1" x="0px" y="0px" viewBox="0 0 188.8 188.8" style="enable-background:new 0 0 188.8 188.8;" xml:space="preserve">
<style type="text/css">
	.st0{fill:#FFF1EF;}
	.st1{fill:#A87E72;}
</style>
<circle class="st0" cx="94.4" cy="94.4" r="94.4"></circle>
<g>
	<path class="st1" d="M61.4,72.9c7.2-3.6,8.2-3.3,12.5-2c3.3,1,7.9,2.7,9.8,3.4c0.1,0.1,0.3,0.1,0.5,0.1c0.3,0,0.5-0.1,0.7-0.2   c0.4-0.2,0.6-0.6,0.6-1.1v-0.9c0-0.5-0.3-0.9-0.7-1.1c-1.9-1-8.4-4.1-13.2-3.9c-5.6,0.2-10.5,4.9-10.7,5c-0.2,0.2-0.2,0.4-0.1,0.6   C60.9,72.9,61.2,73,61.4,72.9z M71.6,68c4.6-0.2,10.8,2.9,12.7,3.8c0.1,0,0.2,0.2,0.2,0.3v0.9c0,0.1-0.1,0.2-0.1,0.2   c0,0-0.1,0.1-0.3,0c-1.8-0.7-6.4-2.4-9.8-3.4C72.3,69.4,71,69,69.7,69c-1.2,0-2.4,0.3-4,0.9C67.3,69,69.4,68.1,71.6,68z"></path>
	<path class="st1" d="M68.3,82.7c0.9,0.4,1.9,0.8,3.4,0.9c0.4,0,0.8,0,1.3,0c1.8,0,3.6-0.3,5.2-0.5c1.9-0.3,3.8-0.6,4.9-0.3   c0.3,0.1,0.5-0.1,0.6-0.4c0.1-0.3-0.1-0.5-0.4-0.6c-1.3-0.3-3.2-0.1-5.3,0.2c-2,0.3-4.2,0.6-6.3,0.4c-1.8-0.2-2.9-0.8-3.9-1.3   c-1.2-0.7-2.3-1.3-4.2-0.7c-0.3,0.1-0.4,0.4-0.3,0.6c0.1,0.3,0.4,0.4,0.6,0.3c0.6-0.2,1-0.2,1.5-0.2c-0.2,0.1-0.4,0.2-0.5,0.3   c-0.2,0.2-0.3,0.5-0.1,0.7c0.2,0.2,0.5,0.3,0.7,0.1C66.1,82.2,67.2,82.1,68.3,82.7C68.3,82.7,68.3,82.7,68.3,82.7z"></path>
	<path class="st1" d="M58,90.5C52.2,72.5,67.7,64,80.1,57.3c7.7-4.2,14.4-7.8,14.2-12.9c0-0.3-0.2-0.5-0.5-0.5c0,0,0,0,0,0   c-0.3,0-0.5,0.2-0.5,0.5c0.1,4.4-6.3,7.9-13.7,11.9C66.9,63.3,51,72,57.1,90.8c7.3,22.6-4.5,40.2-10.1,46.9   c3.6-7.3,10.3-24.4,2.3-39c-0.9-1.6-1.7-3.2-2.4-4.7c-2.9-5.9-3.3-13-1.1-19.5c1.7-5.3,5-9.6,8.8-11.4c0.2-0.1,0.3-0.4,0.2-0.7   c-0.1-0.2-0.4-0.3-0.7-0.2c-4.1,2-7.4,6.4-9.3,12c-1.3,4-1.7,8.2-1.2,12.3c-3.1-8.6-3.8-15.9-1.9-21.5c1.7-4.9,5.3-8.6,10.9-11   c9.9-4.3,15.3-10.4,18-14.7c0.1-0.2,0.1-0.5-0.2-0.7c-0.2-0.1-0.5-0.1-0.7,0.2C67,43,61.8,48.9,52.1,53.1c-0.9,0.4-1.8,0.9-2.6,1.3   c-0.4-4.8,0.8-9.9,3.3-14.9c0.1-0.2,0-0.5-0.2-0.7c-0.2-0.1-0.5,0-0.7,0.2C49.2,44.3,48,49.8,48.5,55c-3.8,2.4-6.4,5.6-7.8,9.6   c-2.5,7.4-0.7,17.7,5.2,29.8c0.1,0.2,0.2,0.4,0.3,0.6c0,0,0,0,0,0c0.7,1.4,1.4,2.7,2.2,4.1c10.2,18.5-4.1,41.3-4.2,41.5   c-0.1,0.2-0.1,0.5,0.1,0.7c0.1,0.1,0.2,0.1,0.3,0.1c0.1,0,0.2,0,0.3-0.1C45.1,141.2,67.6,120.1,58,90.5z"></path>
	<path class="st1" d="M92.4,102.6c-1.6,1.4-4.8,1.5-6.1,0.6c-0.6-0.4-0.5-0.9-0.4-1.2c2.1-5.1,3.2-12.5,3.2-21.3   c0-0.3-0.2-0.5-0.5-0.5s-0.5,0.2-0.5,0.5c0,8.7-1.1,15.9-3.1,20.9c-0.4,0.9-0.1,1.8,0.8,2.4c0.7,0.5,1.9,0.8,3.1,0.8   c1.6,0,3.2-0.5,4.3-1.5c0.2-0.2,0.2-0.5,0-0.7C92.9,102.4,92.6,102.4,92.4,102.6z"></path>
	<path class="st1" d="M113.6,67c-4.8-0.2-11.3,3-13.2,3.9c-0.4,0.2-0.7,0.7-0.7,1.1v0.9c0,0.4,0.2,0.8,0.6,1.1   c0.2,0.2,0.5,0.2,0.7,0.2c0.2,0,0.3,0,0.5-0.1c2.3-0.9,6.5-2.5,9.8-3.4c4.2-1.2,5.2-1.5,12.5,2c0.2,0.1,0.5,0,0.6-0.2   c0.1-0.2,0.1-0.5-0.1-0.6C124.1,71.9,119.2,67.3,113.6,67z M111,69.9c-3.3,1-7.6,2.6-9.8,3.4c-0.1,0-0.2,0-0.3,0   c0,0-0.1-0.1-0.1-0.2v-0.9c0-0.1,0.1-0.2,0.2-0.3c1.8-0.9,7.7-3.8,12.2-3.8c0.1,0,0.3,0,0.4,0c2.1,0.1,4.2,0.9,5.9,1.9   C116,68.6,114.3,68.9,111,69.9z"></path>
	<path class="st1" d="M121.7,81.3c0.1-0.3-0.1-0.5-0.3-0.6c-1.9-0.6-3,0-4.2,0.7c-1,0.5-2.1,1.2-3.9,1.3c-2,0.2-4.3-0.2-6.3-0.4   c-2.1-0.3-4-0.6-5.3-0.2c-0.3,0.1-0.4,0.3-0.4,0.6c0.1,0.3,0.3,0.4,0.6,0.4c1.1-0.3,3,0,4.9,0.3c1.6,0.2,3.5,0.5,5.2,0.5   c0.4,0,0.8,0,1.3,0c1.5-0.1,2.5-0.5,3.4-0.9c0,0,0,0,0,0c1.1-0.6,2.3-0.6,2.7-0.2c0.2,0.2,0.5,0.1,0.7-0.1c0.2-0.2,0.1-0.5-0.1-0.7   c-0.2-0.1-0.3-0.2-0.5-0.3c0.4,0,0.9,0,1.5,0.2C121.3,81.8,121.6,81.6,121.7,81.3z"></path>
	<path class="st1" d="M94.7,112.8c-0.6,0.3-1.1,0.5-2,0.5l-0.1,0c0,0-0.1,0-0.1,0c0,0,0,0,0,0c-0.9,0-1.4-0.2-2-0.5   c-0.6-0.3-1.3-0.6-2.4-0.6c-2.5,0-4.4,1.3-6,2.5l0.3,0.4l0.4,0.4c1.5-1,3.3-2.2,5.4-2.2c0.9,0,1.4,0.2,2,0.5   c0.6,0.3,1.3,0.6,2.4,0.6l0.1,0l0.1,0c1.1,0,1.8-0.3,2.4-0.6c0.6-0.3,1.1-0.5,2-0.5c2.2,0,3.9,1.2,5.4,2.2l0.2,0.2   c0.1,0.1,0.2,0.1,0.3,0.1c0.2,0,0.3-0.1,0.4-0.2c0.2-0.2,0.1-0.5-0.1-0.7l-0.2-0.2c-1.6-1.1-3.5-2.4-6-2.4   C95.9,112.2,95.3,112.5,94.7,112.8z"></path>
	<path class="st1" d="M97.9,123c-1.6,0.7-3.4,1-5.3,1c-1.8,0-3.4-0.3-5-0.9c-0.3-0.1-0.5,0-0.6,0.3c-0.1,0.3,0,0.5,0.3,0.6   c1.7,0.6,3.4,0.9,5.3,0.9c0,0,0,0,0,0h0c2,0,3.9-0.4,5.7-1.1c0.3-0.1,0.4-0.4,0.3-0.7C98.4,123,98.1,122.9,97.9,123z"></path>
	<path class="st1" d="M102.8,117.6c0.2,0,0.3-0.1,0.5-0.1c0.2,0,0.4-0.1,0.6-0.1c0.1,0,0.3-0.1,0.4-0.1c0.2,0,0.4-0.1,0.6-0.2   c0.1,0,0.2-0.1,0.4-0.2c0.2-0.1,0.3-0.1,0.4-0.2c0,0,0,0,0.1,0c0,0,0,0,0,0s0,0,0,0c0,0,0,0,0.1,0c0,0,0.1-0.1,0.1-0.1   c0.2-0.2,0.2-0.4,0-0.7c-0.2-0.2-0.5-0.2-0.8,0c0,0,0,0,0,0c0,0-0.1,0.1-0.1,0.1c-0.1,0-0.1,0.1-0.2,0.1c0,0,0,0,0,0   c-0.8,0.3-2,0.5-3.4,0.6c-1.3,0.1-2.7,0.3-4.2,0.6c-1,0.2-2.5,0.3-4.7,0.2c0,0,0,0,0,0c0,0,0,0,0,0c-2.2,0.1-3.7,0.1-4.7-0.2   c-1.5-0.4-2.9-0.5-4.2-0.6c-1.6-0.2-3-0.3-3.8-0.8c0,0,0,0,0,0c0,0-0.1-0.1-0.1-0.1c-0.2-0.2-0.5-0.1-0.7,0.1   c-0.2,0.2-0.1,0.5,0.1,0.7c0,0,0.1,0.1,0.2,0.1l0,0c0,0,0,0,0,0c1,0.6,2.5,0.8,4.2,1c1.2,0.1,2.6,0.3,4.1,0.6   c0.7,0.2,1.7,0.3,3,0.3c0.6,0,1.2,0,2-0.1c0.7,0,1.4,0.1,2,0.1c1.3,0,2.3-0.1,3-0.3c1.4-0.3,2.8-0.5,4.1-0.6   C102,117.7,102.4,117.6,102.8,117.6z"></path>
	<path class="st1" d="M136.8,39.6c-0.2-0.2-0.5-0.2-0.7-0.1c-0.2,0.2-0.2,0.5-0.1,0.7c17.1,21.2,13.8,51.2,4.9,72.2   c-9.4,22.4,2.1,37.5,2.3,37.6c0.1,0.1,0.2,0.2,0.4,0.2c0.1,0,0.2,0,0.3-0.1c0.2-0.2,0.3-0.5,0.1-0.7c-0.1-0.1-11.3-14.8-2.1-36.6   C150.9,91.6,154.2,61.2,136.8,39.6z"></path>
	<path class="st1" d="M122.9,64.7c-14.4-2.5-28.8-10.2-29.7-12.3c-0.1-0.3-0.4-0.4-0.7-0.3c-0.3,0.1-0.4,0.4-0.3,0.7   c1.1,2.6,16.3,10.4,30.4,12.8c3,0.5,5.4,2.2,7,4.9c4.5,7.3,3,21.7-0.5,32.6c-4.1,13.2-21.1,37.3-36.5,37.3   c-15.1,0-31.4-24.8-31.6-25c-0.2-0.2-0.5-0.3-0.7-0.1c-0.2,0.2-0.3,0.5-0.1,0.7c0.3,0.5,4.2,6.3,9.8,12.3l0.1,0.9   c1.4,10.5,2.1,15.8,0.6,20.4c-0.1,0.3,0.1,0.5,0.3,0.6c0.1,0,0.1,0,0.2,0c0.2,0,0.4-0.1,0.5-0.3c1.5-4.8,0.9-10-0.5-20.4   c6,6.1,13.8,12,21.5,12c8.7,0,17.9-7.4,25.1-16.3c-0.1,1.7-0.2,3.4-0.4,5.3c-0.6,6.2-1.4,13.2,1.6,20.7c0.1,0.2,0.3,0.3,0.5,0.3   c0.1,0,0.1,0,0.2,0c0.3-0.1,0.4-0.4,0.3-0.6c-2.8-7.3-2.1-14.2-1.5-20.3c0.2-2.3,0.5-4.5,0.5-6.6c0,0,0-0.1,0-0.1   c5.4-7,9.6-14.7,11.4-20.4c3.5-11.2,5-25.9,0.4-33.5C128.8,67.1,126.2,65.3,122.9,64.7z"></path>
	<path class="st1" d="M127.7,89.4C127.7,89.4,127.7,89.4,127.7,89.4c0.3,0,0.5-0.2,0.5-0.5c0-1,0-1.9,0-2.9c0-0.3-0.2-0.5-0.5-0.5   s-0.5,0.2-0.5,0.5c0,0.9,0,1.9,0,2.8C127.2,89.1,127.4,89.4,127.7,89.4z"></path>
	<path class="st1" d="M126.3,97.2c-0.2,0.9-0.4,1.8-0.6,2.7c-0.1,0.3,0.1,0.5,0.4,0.6c0,0,0.1,0,0.1,0c0.2,0,0.4-0.2,0.5-0.4   c0.2-0.9,0.4-1.9,0.6-2.8c0-0.3-0.1-0.5-0.4-0.6C126.6,96.8,126.4,97,126.3,97.2z"></path>
	<path class="st1" d="M124.9,102.7c-0.3,0.9-0.6,1.8-0.9,2.6c-0.1,0.3,0,0.5,0.3,0.6c0.1,0,0.1,0,0.2,0c0.2,0,0.4-0.1,0.5-0.3   c0.3-0.9,0.7-1.8,1-2.7c0.1-0.3-0.1-0.5-0.3-0.6C125.3,102.2,125,102.4,124.9,102.7z"></path>
	<path class="st1" d="M121.9,111.1c0.1,0,0.2,0.1,0.2,0.1c0.2,0,0.4-0.1,0.4-0.3c0.5-0.8,0.9-1.7,1.3-2.6c0.1-0.3,0-0.5-0.2-0.7   c-0.2-0.1-0.5,0-0.7,0.2c-0.4,0.8-0.8,1.7-1.2,2.5C121.5,110.6,121.6,110.9,121.9,111.1z"></path>
	<path class="st1" d="M126.7,94.5c0,0.3,0.2,0.5,0.4,0.6c0,0,0,0,0.1,0c0.2,0,0.5-0.2,0.5-0.4c0.1-0.9,0.2-1.9,0.3-2.8   c0-0.3-0.2-0.5-0.5-0.5c-0.3,0-0.5,0.2-0.5,0.5C126.9,92.6,126.9,93.6,126.7,94.5z"></path>
	<path class="st1" d="M120.3,112.8c-0.5,0.8-1,1.6-1.5,2.4c-0.2,0.2-0.1,0.5,0.1,0.7c0.1,0.1,0.2,0.1,0.3,0.1c0.2,0,0.3-0.1,0.4-0.2   c0.5-0.8,1.1-1.6,1.5-2.4c0.1-0.2,0.1-0.5-0.2-0.7C120.7,112.5,120.4,112.6,120.3,112.8z"></path>
	<path class="st1" d="M117.2,117.5c-0.5,0.7-1.1,1.5-1.7,2.2c-0.2,0.2-0.1,0.5,0.1,0.7c0.1,0.1,0.2,0.1,0.3,0.1   c0.1,0,0.3-0.1,0.4-0.2c0.6-0.8,1.2-1.5,1.7-2.3c0.2-0.2,0.1-0.5-0.1-0.7C117.6,117.2,117.3,117.3,117.2,117.5z"></path>
	<path class="st1" d="M114.4,121.8c-0.2-0.2-0.5-0.2-0.7,0.1c-0.6,0.7-1.2,1.4-1.9,2.1c-0.2,0.2-0.2,0.5,0,0.7   c0.1,0.1,0.2,0.1,0.3,0.1c0.1,0,0.3-0.1,0.4-0.2c0.7-0.7,1.3-1.4,1.9-2.1C114.6,122.3,114.6,122,114.4,121.8z"></path>
	<polygon class="st1" points="108.7,127.8 112.6,126.8 109.7,124  "></polygon>
	<path class="st1" d="M61.3,95C61.3,95,61.4,95,61.3,95c0.3,0,0.5-0.3,0.5-0.6c-0.1-0.9-0.2-1.8-0.3-2.8c0-0.3-0.3-0.5-0.5-0.5   c-0.3,0-0.5,0.3-0.5,0.5c0.1,1,0.2,1.9,0.3,2.8C60.9,94.8,61.1,95,61.3,95z"></path>
	<path class="st1" d="M64,105.6c0.1,0.2,0.3,0.3,0.5,0.3c0.1,0,0.1,0,0.2,0c0.3-0.1,0.4-0.4,0.2-0.7c-0.4-0.9-0.8-1.7-1.1-2.6   c-0.1-0.3-0.4-0.4-0.6-0.3c-0.3,0.1-0.4,0.4-0.3,0.6C63.2,103.8,63.6,104.7,64,105.6z"></path>
	<path class="st1" d="M62,100.2c0.1,0.2,0.3,0.4,0.5,0.4c0,0,0.1,0,0.1,0c0.3-0.1,0.4-0.4,0.3-0.6c-0.3-0.9-0.5-1.8-0.7-2.7   c-0.1-0.3-0.3-0.4-0.6-0.4c-0.3,0.1-0.4,0.3-0.4,0.6C61.5,98.4,61.7,99.3,62,100.2z"></path>
	<path class="st1" d="M60.3,86c0,1,0,1.9,0.1,2.9c0,0.3,0.2,0.5,0.5,0.5c0,0,0,0,0,0c0.3,0,0.5-0.2,0.5-0.5c0-0.9-0.1-1.8-0.1-2.8   c0-0.3-0.2-0.5-0.5-0.5S60.3,85.8,60.3,86z"></path>
	<path class="st1" d="M68.1,107.8l-1.3,0.8c-0.2-0.3-0.4-0.6-0.5-1c-0.1-0.2-0.4-0.3-0.7-0.2c-0.2,0.1-0.3,0.4-0.2,0.7   c0.2,0.3,0.4,0.7,0.6,1l-1.2,0.7l3.5,2L68.1,107.8z"></path>
</g>
</svg>
