<?xml version="1.0" encoding="UTF-8"?>
<!-- Generator: Adobe Illustrator 23.1.0, SVG Export Plug-In . SVG Version: 6.00 Build 0)  -->
<svg xmlns="http://www.w3.org/2000/svg" xmlns:xlink="http://www.w3.org/1999/xlink" version="1.1" id="Слой_1" x="0px" y="0px" viewBox="0 0 188.8 188.8" style="enable-background:new 0 0 188.8 188.8;" xml:space="preserve">
<style type="text/css">
	.st0{fill:#FFF1EF;}
	.st1{fill:#A87E72;}
</style>
<circle class="st0" cx="94.4" cy="94.4" r="94.4"></circle>
<g>
	<path class="st1" d="M146.2,95.3c0.9,1,2.2,2.5,4.4,4.7c0.1,0.1,0.2,0.2,0.4,0.2c0.1,0,0.2,0,0.3-0.1c0.2-0.2,0.2-0.5,0-0.7   c-2.1-2.2-3.5-3.7-4.4-4.7c-3.2-3.7-3.7-3.9-6.8-4.3c-0.4-0.1-0.8-0.1-1.3-0.2c0,0,0,0,0,0l-2-3.5c-2-3.5-3-4.7-6.3-8.2   c-1.6-1.7-3.4-4.4-5.1-6.8c-2.5-3.6-3.2-4.6-3.8-4.6c0,0,0,0-0.1,0c-0.5,0-0.9,0.4-1.3,0.9c-0.4,0.5-0.7,1.3-0.8,2.3   c-0.5-0.5-0.9-1-1.4-1.5c-6.6-7-8.8-9.1-9.9-8.3c-0.8,0.6-1.7,2.1-1.8,4c-0.1,1.6,0.3,4,2.7,6.5c0.8,0.8,1.6,1.6,2.5,2.4   c3.1,3,6.8,6.6,9.4,10.2c-1.5-0.5-4.3-1.3-8.7-2.3c-3-0.7-6.1-1.8-8.9-2.7c-4.6-1.6-7.1-2.4-8-1.5c-0.3,0.3-0.6,0.8-0.4,1.6   c0.3,1.6,2.2,3.9,4.6,5.4c-0.7-0.1-1.2-0.1-1.6-0.2c-0.1,0-0.1,0-0.2,0c-1.8-0.8-2.3-0.8-3.2-1c-0.2,0-0.5-0.1-0.7-0.1   c-2-0.4-6.8-1.2-12.4-8.4c-3.1-4.1-7-7.5-10.3-9.5c-0.5-0.9-0.9-1.5-1.2-1.9c-0.6-0.9-0.6-1-1.1-2.6l-0.1-0.3   C68,56.8,66,50.1,61,50.6c0,0-0.1,0-0.1,0c-0.3,0.1-0.5,0.3-0.6,0.6c-0.2,0.3-0.2,0.8-0.2,1.3c-0.5-1.3-0.8-2.5-1-3.8   c-0.3-2.2-1.7-5-4-6.3c-1.1-0.6-2.3-0.7-3.5-0.4c-0.4-0.9-0.8-1.6-1-2c-0.8-1.4-2.5-2.6-4.3-2.8c-1.2-0.2-2.3,0.2-3,0.9   c-0.5,0.6-0.3,1.2,0.3,2.7c0.5,1.4,1.4,3.9,2.6,8.3c-0.1-0.1-0.1-0.1-0.2-0.2c-2.9-2.3-6.3-2.8-8-2.1c-0.7,0.3-1.1,0.8-1.2,1.3   c-0.2,1.2,3.9,6.8,15.3,21.5c1,1.2,1.8,2.3,2.3,3c0.8,1,1.6,2,2.3,2.9c2.8,3.5,5.2,6.5,6.9,11.2c1.4,3.9,2.8,4.8,7.4,8   c2.8,1.9,7.1,4.8,13.3,9.7c13.3,10.4,12.2,18.1,10,33.5c-0.5,3.3-1,7-1.4,11.2c0,0.3,0.2,0.5,0.4,0.5c0,0,0,0,0.1,0   c0.3,0,0.5-0.2,0.5-0.4c0.4-4.1,1-7.9,1.4-11.2c2.2-15.7,3.4-23.6-10.4-34.4c-6.3-5-10.6-7.9-13.4-9.8c-4.5-3.1-5.8-3.9-7-7.5   c-1.8-4.9-4.2-7.9-7.1-11.5c-0.7-0.9-1.5-1.9-2.3-2.9c-0.6-0.7-1.4-1.8-2.3-3C48.5,63.5,38,50,37.9,48.4c0-0.3,0.3-0.4,0.6-0.5   c1.2-0.5,4.2-0.2,7,1.9c1.8,1.4,4.2,4,7.2,7.4c3.2,3.5,7.3,7.9,11.8,12.2c1.2,2.9,3.4,6.1,5.3,8.8l0.2,0.2c1.6,2.3,3.6,4.2,6.9,6.6   c3,2.2,10.3,13.3,10.4,13.5c0.2,0.2,0.5,0.3,0.7,0.1c0.2-0.2,0.3-0.5,0.1-0.7c-0.3-0.5-7.5-11.4-10.6-13.7   c-3.2-2.3-5.1-4.2-6.7-6.4l-0.2-0.2C64.4,69,64.1,65.7,65,64.4c0.3-0.4,0.7-0.6,1.3-0.6c0,0,0.1,0,0.1,0c3.2,0,9.7,4.9,14.3,10.9   c5.8,7.5,10.9,8.4,13,8.8c0.3,0.1,0.6,0.1,0.8,0.1c1.3,0.2,1.7,0.2,8.6,3.5c8,3.7,11.2,16.2,12,19.9c-2.6-1-4.8-1-5.7,0.1   c-0.7,0.8-0.9,2.4,1.8,5.6c1.7,2,3.3,3.7,4.8,5.2c0,2.4,0.6,17.3,1.6,31.6c0,0.3,0.2,0.5,0.5,0.5c0,0,0,0,0,0   c0.3,0,0.5-0.3,0.5-0.5c-1-13.1-1.6-26.7-1.6-30.6c2.3,2,4.3,3.4,6.5,4.4c1.4,0.6,4,2.6,7.2,4.9c4.7,3.4,10.6,7.7,14.6,9.3   c1.5,0.6,3.2,1,5.2,1.3c0,0,0,0,0.1,0c0.2,0,0.5-0.2,0.5-0.4c0-0.3-0.2-0.5-0.4-0.6c-1.9-0.2-3.5-0.6-5-1.2   c-3.9-1.6-9.7-5.8-14.4-9.2c-3.2-2.3-5.9-4.3-7.3-5c-3.7-1.7-7.3-4.8-12-10.3c-1.7-2-2.3-3.6-1.8-4.3c0.7-0.8,3.2-0.7,6.3,1   c5.2,2.8,14.9,8,17.7,9.3c1.1,0.5,2.9,0.9,4.9,1.4c3,0.7,6.8,1.6,9.3,3.1c0.2,0.1,0.5,0.1,0.7-0.2c0.1-0.2,0.1-0.5-0.2-0.7   c-2.6-1.6-6.5-2.5-9.6-3.2c-1.5-0.3-2.8-0.6-3.8-1c1-4.9-2.4-11.7-3.1-13.1c-1.3-2.5-6.6-7.7-9.3-8.2c-2.3-0.5-5-1.7-6.8-2.8   c-1.8-1-3.3-1.2-6.2-1.4c-1.7-2.4-3.9-4.5-6.6-5.8c-1-0.5-1.9-0.9-2.7-1.2c4.4,0.2,11.3,0,13.2-0.1c2.3-0.1,5.3,0.6,9,2.2   c2.8,5.6,7.2,11.8,7.2,11.8c0.1,0.1,0.3,0.2,0.4,0.2c0.1,0,0.2,0,0.3-0.1c0.2-0.2,0.3-0.5,0.1-0.7c0-0.1-4.7-6.6-7.4-12.2   c-2.4-4.8-7.4-9.7-11.5-13.6c-0.9-0.8-1.7-1.6-2.5-2.4c-2.2-2.2-2.6-4.3-2.5-5.7c0.1-1.7,0.9-2.9,1.4-3.2c0,0,0,0,0,0   c1,0,5.6,4.9,8.6,8.1c2.3,2.5,4.6,4.9,6,6.1c1.1,0.9,1.9,1.6,2.7,2.2c2,1.6,3,2.4,4.5,4.7c1.4,2.2,3.6,5.1,6.3,8.2   c0,0,0.1,0.1,0.1,0.1c2.1,2.3,4.4,4.8,7,7.1c0.2,0.2,0.5,0.2,0.7,0c0.2-0.2,0.2-0.5,0-0.7c-2.2-1.9-4.2-4-6-6   c0.5,0.1,1,0.2,1.4,0.2C142.9,91.7,143.1,91.7,146.2,95.3z M54.6,43.2c1.9,1,3.2,3.6,3.5,5.6c0.4,2.8,1.4,4.9,3,8.5   c0.4,0.9,0.8,1.8,1.3,2.8c0.6,1.8,1.1,3.5,1.2,4.8c-0.3-0.4-0.6-0.9-1-1.3c-1.5-1.9-3.2-4.1-4.1-6.6c-1.2-2.9-4.4-10-6.4-14.1   C52.9,42.7,53.8,42.8,54.6,43.2z M53.4,56.5c-2.3-2.5-4.2-4.6-5.8-6.2c-1.3-5.4-2.3-8.3-2.9-9.8c-0.4-1-0.6-1.6-0.5-1.7   c0.6-0.7,1.6-0.7,2.1-0.6c1.5,0.2,2.9,1.1,3.5,2.3c1.2,2.2,6.2,13.1,7.8,16.9c1,2.6,2.8,4.9,4.3,6.9c0.7,0.9,1.4,1.8,1.9,2.6   c0,0.2,0.1,0.3,0.1,0.5C59.8,63.6,56.3,59.7,53.4,56.5z M66.4,62.8c0,0-0.1,0-0.1,0c-0.8,0-1.4,0.3-1.9,0.8c-0.4-1.7-1-3.7-1.7-5.6   c-0.8-2.5-1.9-5.6-1.5-6.4c4.1-0.3,5.9,5.8,6.6,8.4l0.1,0.3c0.5,1.7,0.6,1.8,1.2,2.9c0.1,0.1,0.2,0.3,0.3,0.5   C68.3,63.1,67.2,62.8,66.4,62.8z M115.8,94.1c0.9,0.5,4.1,2.3,7.1,2.9c2.3,0.5,7.4,5.4,8.6,7.7c0.7,1.3,3.9,7.7,3.1,12.2   c-2.9-1.4-12.4-6.4-17.6-9.2c-0.3-0.1-0.5-0.3-0.8-0.4c-0.4-2.2-2-8.9-5.5-14.5C113.1,93.1,114.4,93.3,115.8,94.1z M114,83.9   c-2,0.1-7.8,0.3-11.9,0.1c-3-1.1-5.8-4-6.2-5.7c0-0.2-0.1-0.5,0.1-0.7c0.5-0.5,4.1,0.7,7,1.7c2.8,1,6,2.1,9,2.8   c6.2,1.4,9.2,2.5,9.8,2.7c0.2,0.3,0.4,0.6,0.5,0.9C119,84.3,116.2,83.7,114,83.9z M126.7,76.8c-0.7-0.6-1.6-1.3-2.7-2.2   c-0.9-0.8-2.1-2-3.5-3.4c-0.3-1.2,0.1-2.2,0.5-2.8c0.2-0.3,0.4-0.4,0.5-0.5c0.5,0.4,1.8,2.3,3,4.1c1.7,2.4,3.5,5.2,5.2,6.9   c3.3,3.5,4.2,4.6,6.1,8l1.6,2.8c0,0,0,0,0,0c-2.6-3-4.8-5.9-6.1-8C129.8,79.3,128.7,78.4,126.7,76.8z"></path>
	<path class="st1" d="M108.8,131c-0.2-0.9-0.3-1.8-0.5-2.8c0-0.3-0.3-0.5-0.6-0.4c-0.3,0-0.5,0.3-0.4,0.6c0.2,0.9,0.3,1.9,0.5,2.8   c0,0.2,0.3,0.4,0.5,0.4c0,0,0.1,0,0.1,0C108.7,131.5,108.9,131.2,108.8,131z"></path>
	<path class="st1" d="M110,136.5c-0.2-0.9-0.4-1.8-0.6-2.8c-0.1-0.3-0.3-0.4-0.6-0.4c-0.3,0.1-0.4,0.3-0.4,0.6   c0.2,1,0.4,1.9,0.6,2.8c0.1,0.2,0.3,0.4,0.5,0.4c0,0,0.1,0,0.1,0C109.9,137,110,136.8,110,136.5z"></path>
	<path class="st1" d="M112,144.8c-0.1-0.3-0.3-0.4-0.6-0.4c-0.3,0.1-0.4,0.3-0.4,0.6c0.3,0.9,0.4,1.5,0.4,1.5   c0.1,0.2,0.3,0.4,0.5,0.4c0,0,0.1,0,0.1,0c0.3-0.1,0.4-0.4,0.3-0.6C112.4,146.2,112.2,145.7,112,144.8z"></path>
	<path class="st1" d="M111.3,142c-0.2-0.8-0.4-1.7-0.7-2.8c-0.1-0.3-0.3-0.4-0.6-0.4c-0.3,0.1-0.4,0.3-0.4,0.6   c0.2,1,0.5,1.9,0.7,2.8c0.1,0.2,0.3,0.4,0.5,0.4c0,0,0.1,0,0.1,0C111.2,142.6,111.3,142.3,111.3,142z"></path>
	<path class="st1" d="M107.5,125.9c0.3,0,0.5-0.3,0.4-0.6c-0.1-0.9-0.3-1.9-0.4-2.8c0-0.3-0.3-0.5-0.6-0.4c-0.3,0-0.5,0.3-0.4,0.6   c0.1,0.9,0.2,1.9,0.4,2.8C106.9,125.8,107.1,126,107.5,125.9C107.4,126,107.4,126,107.5,125.9z"></path>
	<path class="st1" d="M102.6,95.2c-0.2-0.2-0.5-0.2-0.7,0c-0.2,0.2-0.2,0.5,0,0.7c0.6,0.7,1.2,1.4,1.7,2.1c0.1,0.1,0.3,0.2,0.4,0.2   c0.1,0,0.2,0,0.3-0.1c0.2-0.2,0.3-0.5,0.1-0.7C103.9,96.7,103.3,95.9,102.6,95.2z"></path>
	<path class="st1" d="M106.5,103.4c0.3-0.1,0.4-0.3,0.3-0.6c-0.3-1-0.6-1.9-1-2.7c-0.1-0.3-0.4-0.4-0.7-0.3   c-0.3,0.1-0.4,0.4-0.3,0.7c0.4,0.8,0.7,1.7,0.9,2.6c0.1,0.2,0.3,0.4,0.5,0.4C106.4,103.4,106.5,103.4,106.5,103.4z"></path>
	<path class="st1" d="M98.1,91.6c-0.2-0.1-0.5-0.1-0.7,0.2c-0.1,0.2-0.1,0.5,0.2,0.7c0.8,0.5,1.6,1,2.3,1.6c0.1,0.1,0.2,0.1,0.3,0.1   c0.1,0,0.3-0.1,0.4-0.2c0.2-0.2,0.1-0.5-0.1-0.7C99.8,92.7,99,92.1,98.1,91.6z"></path>
	<path class="st1" d="M107,110.8c-0.3,0-0.5,0.2-0.5,0.5c0,0.4-0.1,0.8-0.1,1.3c-0.1,0.5-0.1,1-0.1,1.6c0,0.3,0.2,0.5,0.5,0.5   c0,0,0,0,0,0c0.3,0,0.5-0.2,0.5-0.5c0-0.5,0.1-1,0.1-1.5c0.1-0.4,0.1-0.9,0.1-1.3C107.5,111.1,107.3,110.9,107,110.8z"></path>
	<path class="st1" d="M107.4,105.6c0-0.3-0.3-0.5-0.6-0.4c-0.3,0-0.5,0.3-0.4,0.6c0.1,0.9,0.2,1.8,0.2,2.8c0,0.3,0.2,0.5,0.5,0.5   c0,0,0,0,0,0c0.3,0,0.5-0.2,0.5-0.5C107.6,107.5,107.5,106.5,107.4,105.6z"></path>
	<path class="st1" d="M106.8,120.3c0.3,0,0.5-0.3,0.5-0.5c-0.1-1-0.1-1.9-0.1-2.8c0-0.3-0.2-0.5-0.5-0.5c-0.3,0-0.5,0.2-0.5,0.5   c0,0.9,0.1,1.8,0.1,2.9C106.3,120.1,106.5,120.3,106.8,120.3C106.8,120.3,106.8,120.3,106.8,120.3z"></path>
	<path class="st1" d="M90,88.8l2.7,3l0.5-1.4c0.7,0.3,1.4,0.5,2,0.8c0.1,0,0.1,0,0.2,0c0.2,0,0.4-0.1,0.5-0.3c0.1-0.3,0-0.5-0.2-0.7   c-0.7-0.3-1.4-0.6-2.1-0.9l0.5-1.4L90,88.8z"></path>
	<path class="st1" d="M75.9,92.4c-0.2,0.2-0.1,0.5,0.1,0.7c1,0.8,1.8,1.4,2.3,1.7c0.1,0.1,0.2,0.1,0.3,0.1c0.2,0,0.3-0.1,0.4-0.2   c0.2-0.2,0.1-0.5-0.1-0.7c-0.5-0.4-1.3-1-2.2-1.7C76.4,92.1,76.1,92.2,75.9,92.4z"></path>
	<path class="st1" d="M71.7,88.6c-0.2,0.2-0.2,0.5,0,0.7c0.7,0.7,1.4,1.3,2.1,2c0.1,0.1,0.2,0.1,0.3,0.1c0.1,0,0.3-0.1,0.4-0.2   c0.2-0.2,0.2-0.5,0-0.7c-0.7-0.6-1.4-1.3-2.1-1.9C72.2,88.4,71.9,88.4,71.7,88.6z"></path>
	<path class="st1" d="M68,84.3c-0.2,0.2-0.3,0.5-0.1,0.7c0.5,0.7,1.2,1.5,1.8,2.2c0.1,0.1,0.2,0.2,0.4,0.2c0.1,0,0.2,0,0.3-0.1   c0.2-0.2,0.2-0.5,0-0.7c-0.6-0.7-1.2-1.5-1.8-2.2C68.5,84.2,68.2,84.1,68,84.3z"></path>
	<path class="st1" d="M64.9,77l-1.1,3.8l1.5-0.4c0.3,0.7,0.6,1.4,1,2.1c0.1,0.2,0.3,0.3,0.4,0.3c0.1,0,0.2,0,0.3-0.1   c0.2-0.1,0.3-0.4,0.2-0.7c-0.4-0.6-0.7-1.3-0.9-1.9l1.4-0.4L64.9,77z"></path>
</g>
</svg>
