<?xml version="1.0" encoding="UTF-8"?>
<!-- Generator: Adobe Illustrator 23.1.0, SVG Export Plug-In . SVG Version: 6.00 Build 0)  -->
<svg xmlns="http://www.w3.org/2000/svg" xmlns:xlink="http://www.w3.org/1999/xlink" version="1.1" id="Слой_1" x="0px" y="0px" viewBox="0 0 188.8 188.8" style="enable-background:new 0 0 188.8 188.8;" xml:space="preserve">
<style type="text/css">
	.st0{fill:#FFF1EF;}
	.st1{fill:#A87E72;}
</style>
<circle class="st0" cx="94.4" cy="94.4" r="94.4"></circle>
<g>
	<path class="st1" d="M87.9,114c4.4,0,8-3.6,8-8c0-0.8-0.1-1.6-0.4-2.4c0.3-0.5,0.4-1.1,0.4-1.7c0-2.2-1.8-3.9-3.9-3.9   c-0.6,0-1.2,0.1-1.7,0.4c-0.8-0.2-1.6-0.4-2.4-0.4c-4.4,0-8,3.6-8,8C79.8,110.4,83.5,114,87.9,114z M94.9,101.8   c0,0.5-0.1,1-0.4,1.4c0,0,0,0,0,0c-0.1,0.2-0.2,0.3-0.3,0.4c-0.1,0.1-0.1,0.1-0.1,0.2c-0.1,0.1-0.3,0.2-0.4,0.3   c-0.1,0-0.1,0.1-0.2,0.1c-0.2,0.1-0.4,0.2-0.5,0.2c-0.1,0-0.1,0.1-0.2,0.1c-0.3,0.1-0.5,0.1-0.8,0.1c-1.6,0-2.9-1.3-2.9-2.9   c0-0.3,0-0.5,0.1-0.8c0.2-0.8,0.7-1.4,1.4-1.8c0,0,0,0,0,0c0.4-0.2,0.9-0.4,1.4-0.4C93.6,98.9,94.9,100.2,94.9,101.8z M87.9,98.9   c0.5,0,0.9,0,1.3,0.1c0,0,0,0,0,0c-0.2,0.2-0.3,0.3-0.4,0.5c0,0-0.1,0.1-0.1,0.1c-0.1,0.2-0.2,0.4-0.3,0.6c0,0,0,0,0,0   c-0.1,0.2-0.1,0.4-0.2,0.6c0,0.1,0,0.1,0,0.2c0,0.2-0.1,0.5-0.1,0.7c0,2.2,1.8,3.9,3.9,3.9c0.2,0,0.5,0,0.7-0.1c0.1,0,0.1,0,0.2,0   c0.2,0,0.4-0.1,0.6-0.2c0,0,0,0,0,0c0.2-0.1,0.4-0.2,0.6-0.3c0,0,0.1-0.1,0.1-0.1c0.2-0.1,0.3-0.3,0.5-0.4c0,0,0,0,0,0   c0.1,0.4,0.1,0.9,0.1,1.3c0,3.9-3.2,7-7,7c-3.9,0-7-3.2-7-7C80.8,102,84,98.9,87.9,98.9z"></path>
	<path class="st1" d="M37.9,110c0.1,0,0.3,0,0.4-0.1c32.2-32.6,64-37.8,103.1-16.8c0.2,0.1,0.5,0,0.7-0.2c0.1-0.2,0-0.5-0.2-0.7   C120.1,80.5,100.5,77.1,82,81.5c-15.1,3.6-29.7,12.7-44.5,27.6c-0.2,0.2-0.2,0.5,0,0.7C37.6,109.9,37.7,110,37.9,110z"></path>
	<path class="st1" d="M150.7,100.7c-0.1,0.1-10.4,5-16.5,2.1c0,0,0,0-0.1,0l-6.3-2.8c2.7,0.6,5.1,0.9,7.4,0.9c2.9,0,5.5-0.5,7.8-1.4   c0.3-0.1,0.4-0.4,0.3-0.6s-0.4-0.4-0.6-0.3c-5.7,2.2-13,1.6-22.4-1.9c0.9,0.1,1.8,0.1,2.5,0.1c5.9,0,8.7-1.8,8.8-1.9   c0.2-0.2,0.3-0.5,0.1-0.7c-0.2-0.2-0.5-0.3-0.7-0.1c-0.1,0-5.3,3.4-16.7,0.7c-0.8-0.2-1.6-0.5-2.4-0.7c-0.1,0-0.2,0-0.2-0.1   c0,0,0,0,0,0c-0.1,0-0.2,0-0.2-0.1c6-0.4,8.2-2.3,8.3-2.4c0.2-0.2,0.2-0.5,0-0.7c-0.2-0.2-0.5-0.2-0.7,0c0,0-3.5,3-14,2   c-0.2,0-0.3,0-0.5-0.1c-0.3,0-0.5-0.1-0.8-0.1c-0.2,0-0.4,0-0.7-0.1c0,0,0,0-0.1,0c-0.3,0-0.6-0.1-0.9-0.1c4.3-1.4,5.1-4,5.1-4.2   c0.1-0.3-0.1-0.5-0.4-0.6c-0.3-0.1-0.5,0.1-0.6,0.4c0,0-1.3,4.4-10.8,4.2c0,0,0,0,0,0c0,0-0.1,0-0.1,0c-9.6,0.3-19.1,2.9-28,7.7   c-4.3,2.3-8.4,5.1-12.3,8.2l-16.2,10.6c-1.2,0.8-1.8,2.1-1.5,3.5c0.3,1.4,1.3,2.4,2.7,2.7l12.1,2.5c1.1,0.4,2.4,0.7,3.8,0.8   l18.6,3.8c2.3,0.3,4.7,0.4,7,0.4c15,0,29.6-5.6,42.5-16.3l10.6-8.8c0,0,0,0,0,0c0.7-0.6,1.1-1.5,1-2.5c0-0.2-0.1-0.4-0.2-0.6   c1,0.3,2.1,0.4,3.2,0.4c5.8,0,12-3,12.3-3.1c0.2-0.1,0.4-0.4,0.2-0.7C151.3,100.7,151,100.6,150.7,100.7z M70,99.8   c0.2-0.1,0.4-0.2,0.7-0.3c0.5-0.2,0.9-0.4,1.4-0.6c0.2-0.1,0.5-0.2,0.7-0.3c0.5-0.2,1-0.4,1.4-0.6c0.2-0.1,0.4-0.2,0.6-0.3   c0.7-0.3,1.3-0.5,2-0.7c0,0,0.1,0,0.1,0c0.7-0.2,1.4-0.5,2.1-0.7c0.2-0.1,0.4-0.1,0.6-0.2c0.5-0.1,1-0.3,1.5-0.4   c0.3-0.1,0.5-0.1,0.8-0.2c0.5-0.1,0.9-0.2,1.4-0.4c0.3-0.1,0.5-0.1,0.8-0.2c0.5-0.1,1-0.2,1.5-0.3c0.2,0,0.4-0.1,0.6-0.1   c0.7-0.1,1.4-0.3,2.1-0.4c0.2,0,0.3,0,0.5-0.1c0.5-0.1,1.1-0.2,1.6-0.2c0.3,0,0.5-0.1,0.8-0.1c0.5-0.1,0.9-0.1,1.4-0.1   c0.3,0,0.5,0,0.8-0.1c0.5,0,0.9-0.1,1.4-0.1c0.3,0,0.5,0,0.8,0c0.6,0,1.2,0,1.7,0c0.1,0,0.3,0,0.4,0c0.1,0,0.1,0,0.2,0   c1,0,2,0,3,0.1c0.2,0,0.5,0,0.7,0c0.8,0.1,1.7,0.1,2.5,0.2c0.1,0,0.3,0,0.4,0.1c2.7,3.6,4.1,7.8,4.1,12.3   c0,11.3-9.2,20.5-20.5,20.5c-11.3,0-20.5-9.2-20.5-20.5c0-1.7,0.2-3.5,0.7-5.2c0.1-0.1,0.2-0.1,0.3-0.2C69,100.3,69.5,100,70,99.8z    M40.3,124.1c-1.2-0.2-1.7-1.1-1.9-1.9c-0.1-0.8,0.1-1.8,1.1-2.5l6.7-4.3c-0.6,1.4-0.8,3.2-0.4,5c0.4,2,1.6,4,3.5,5.6L40.3,124.1z    M123.5,115.4c-14.7,12.2-31.6,17.7-48.7,15.7l-22.3-4.6c-3.5-1.3-5.3-4-5.8-6.5c-0.6-2.9,0.4-5.6,2.5-6.7c0,0,0,0,0,0l6.6-4.3   c3.6-2.9,7.3-5.5,11.2-7.6c-0.3,1.5-0.5,3-0.5,4.5c0,11.8,9.6,21.5,21.5,21.5c11.8,0,21.5-9.6,21.5-21.5c0-4.4-1.3-8.5-3.8-12.1   c2,0.3,4,0.7,6,1.1c0.9,0.3,1.7,0.5,2.6,0.7c2.7,0.8,5.5,1.8,8.1,3l1.9,0.9c0,0,0,0,0,0c3.4,1.5,4.4,4,4.7,5.9   c0.4,3.1-1,6.6-3.5,8.6c0,0,0,0,0,0L123.5,115.4z M134.2,106.6l-5.4,4.4c0.9-1.8,1.3-3.9,1-5.9c-0.2-1.5-0.8-2.8-1.7-4l5.6,2.5   c0.6,0.2,0.9,0.8,1,1.3S134.6,106.2,134.2,106.6z"></path>
	<path class="st1" d="M101.6,56.3C79,55.3,48,70.5,39,75.1c-1.4,0.7-2.3,2.2-2.3,3.8v4.6c0,1.4,0.7,2.8,1.9,3.6   c0.7,0.5,1.6,0.8,2.5,0.8c0.5,0,1-0.1,1.5-0.3c10.9-4.2,31.6-11.9,47.3-16.5c21.4-6.3,27.2-7.1,61.6,9.9c0.2,0.1,0.5,0,0.6-0.2   c0.1-0.2,0.1-0.5-0.1-0.6C151.7,80,127.7,57.5,101.6,56.3z M89.5,70.1c-15.7,4.6-36.4,12.4-47.3,16.6c-1,0.4-2.2,0.3-3.1-0.4   c-0.9-0.6-1.4-1.6-1.4-2.8V79c0-1.3,0.7-2.4,1.8-3c8.6-4.5,37.9-18.7,60-18.7c0.7,0,1.4,0,2.1,0c20.5,0.9,39.8,15.2,46.9,21.1   C116.7,63,110.5,63.9,89.5,70.1z"></path>
	<path class="st1" d="M135,128.8c-0.8,0.5-1.6,1-2.4,1.5c-0.2,0.1-0.3,0.5-0.2,0.7c0.1,0.2,0.3,0.2,0.4,0.2c0.1,0,0.2,0,0.3-0.1   c0.8-0.5,1.6-1,2.4-1.5c0.2-0.2,0.3-0.5,0.1-0.7C135.5,128.7,135.2,128.6,135,128.8z"></path>
	<path class="st1" d="M139.6,125.6c-0.8,0.6-1.5,1.1-2.3,1.6c-0.2,0.2-0.3,0.5-0.1,0.7c0.1,0.1,0.3,0.2,0.4,0.2c0.1,0,0.2,0,0.3-0.1   c0.8-0.5,1.6-1.1,2.3-1.7c0.2-0.2,0.3-0.5,0.1-0.7C140.2,125.5,139.9,125.4,139.6,125.6z"></path>
	<path class="st1" d="M144.1,122.1c-0.7,0.6-1.5,1.2-2.2,1.8c-0.2,0.2-0.3,0.5-0.1,0.7c0.1,0.1,0.2,0.2,0.4,0.2c0.1,0,0.2,0,0.3-0.1   c0.7-0.6,1.5-1.2,2.2-1.8c0.2-0.2,0.2-0.5,0.1-0.7C144.6,122,144.3,122,144.1,122.1z"></path>
	<path class="st1" d="M130.2,131.7c-0.8,0.5-1.6,0.9-2.5,1.3c-0.2,0.1-0.3,0.4-0.2,0.7c0.1,0.2,0.3,0.3,0.4,0.3c0.1,0,0.2,0,0.2-0.1   c0.8-0.4,1.7-0.9,2.5-1.4c0.2-0.1,0.3-0.4,0.2-0.7C130.7,131.7,130.4,131.6,130.2,131.7z"></path>
	<path class="st1" d="M114.8,138.6c-0.9,0.3-1.8,0.6-2.7,0.9c-0.3,0.1-0.4,0.4-0.3,0.6c0.1,0.2,0.3,0.4,0.5,0.4c0,0,0.1,0,0.1,0   c0.9-0.3,1.8-0.6,2.7-0.9c0.3-0.1,0.4-0.4,0.3-0.6C115.3,138.7,115,138.5,114.8,138.6z"></path>
	<path class="st1" d="M125.2,134.3c-0.8,0.4-1.7,0.8-2.6,1.2c-0.3,0.1-0.4,0.4-0.3,0.7c0.1,0.2,0.3,0.3,0.5,0.3c0.1,0,0.1,0,0.2,0   c0.9-0.4,1.7-0.8,2.6-1.2c0.2-0.1,0.4-0.4,0.2-0.7C125.7,134.3,125.4,134.2,125.2,134.3z"></path>
	<path class="st1" d="M103.9,141.5c-0.9,0.2-1.8,0.4-2.8,0.5c-0.3,0-0.5,0.3-0.4,0.6c0,0.2,0.3,0.4,0.5,0.4c0,0,0.1,0,0.1,0   c0.9-0.2,1.9-0.3,2.8-0.5c0.3-0.1,0.4-0.3,0.4-0.6C104.4,141.7,104.2,141.5,103.9,141.5z"></path>
	<path class="st1" d="M109.4,140.2c-0.9,0.2-1.8,0.5-2.7,0.7c-0.3,0.1-0.4,0.3-0.4,0.6c0.1,0.2,0.3,0.4,0.5,0.4c0,0,0.1,0,0.1,0   c0.9-0.2,1.8-0.5,2.8-0.7c0.3-0.1,0.4-0.3,0.4-0.6C109.9,140.3,109.6,140.2,109.4,140.2z"></path>
	<path class="st1" d="M120,136.6c-0.9,0.4-1.7,0.7-2.6,1c-0.3,0.1-0.4,0.4-0.3,0.6c0.1,0.2,0.3,0.3,0.5,0.3c0.1,0,0.1,0,0.2,0   c0.9-0.3,1.8-0.7,2.7-1c0.3-0.1,0.4-0.4,0.3-0.7C120.6,136.6,120.3,136.5,120,136.6z"></path>
	<path class="st1" d="M70.2,142.6c-0.9-0.1-1.9-0.2-2.8-0.4c-0.3,0-0.5,0.1-0.6,0.4c0,0.3,0.1,0.5,0.4,0.6c0.9,0.1,1.9,0.3,2.8,0.4   c0,0,0,0,0.1,0c0.2,0,0.5-0.2,0.5-0.4C70.7,142.9,70.5,142.6,70.2,142.6z"></path>
	<path class="st1" d="M48.2,137.9c-0.9-0.3-1.8-0.5-2.7-0.8c-0.3-0.1-0.5,0.1-0.6,0.3c-0.1,0.3,0.1,0.5,0.3,0.6   c0.9,0.3,1.8,0.6,2.7,0.8c0,0,0.1,0,0.1,0c0.2,0,0.4-0.1,0.5-0.4C48.6,138.2,48.4,138,48.2,137.9z"></path>
	<path class="st1" d="M53.6,139.4c-0.9-0.2-1.8-0.5-2.7-0.7c-0.3-0.1-0.5,0.1-0.6,0.3c-0.1,0.3,0.1,0.5,0.3,0.6   c0.9,0.3,1.8,0.5,2.7,0.7c0,0,0.1,0,0.1,0c0.2,0,0.4-0.1,0.5-0.4C54,139.7,53.9,139.5,53.6,139.4z"></path>
	<path class="st1" d="M59.1,140.7c-0.9-0.2-1.8-0.4-2.8-0.6c-0.3-0.1-0.5,0.1-0.6,0.4s0.1,0.5,0.4,0.6c0.9,0.2,1.8,0.4,2.8,0.6   c0,0,0.1,0,0.1,0c0.2,0,0.4-0.2,0.5-0.4C59.5,141,59.4,140.8,59.1,140.7z"></path>
	<path class="st1" d="M42.8,136.2c-0.9-0.3-1.8-0.6-2.7-0.9c-0.3-0.1-0.5,0-0.6,0.3c-0.1,0.3,0,0.5,0.3,0.6c0.9,0.3,1.8,0.6,2.7,0.9   c0.1,0,0.1,0,0.2,0c0.2,0,0.4-0.1,0.5-0.3C43.2,136.5,43,136.2,42.8,136.2z"></path>
	<path class="st1" d="M87.1,143.4C87.1,143.4,87.1,143.4,87.1,143.4c-1,0-1.9,0-2.8,0c-0.3,0-0.5,0.2-0.5,0.5c0,0.3,0.2,0.5,0.5,0.5   c0,0,0,0,0,0c0.9,0,1.9,0,2.8,0c0.3,0,0.5-0.2,0.5-0.5C87.6,143.7,87.4,143.4,87.1,143.4z"></path>
	<path class="st1" d="M92.7,143.1c-0.9,0.1-1.9,0.1-2.8,0.2c-0.3,0-0.5,0.3-0.5,0.5c0,0.3,0.2,0.5,0.5,0.5c0,0,0,0,0,0   c0.9-0.1,1.9-0.1,2.8-0.2c0.3,0,0.5-0.3,0.5-0.5C93.3,143.3,93,143.1,92.7,143.1z"></path>
	<path class="st1" d="M64.6,141.8c-0.9-0.2-1.9-0.3-2.8-0.5c-0.3-0.1-0.5,0.1-0.6,0.4c-0.1,0.3,0.1,0.5,0.4,0.6   c0.9,0.2,1.9,0.4,2.8,0.5c0,0,0.1,0,0.1,0c0.2,0,0.5-0.2,0.5-0.4C65.1,142.1,64.9,141.8,64.6,141.8z"></path>
	<path class="st1" d="M98.4,142.5c-0.9,0.1-1.9,0.3-2.8,0.4c-0.3,0-0.5,0.3-0.4,0.6c0,0.3,0.2,0.4,0.5,0.4c0,0,0,0,0.1,0   c0.9-0.1,1.9-0.2,2.8-0.4c0.3,0,0.5-0.3,0.4-0.6C98.9,142.6,98.6,142.5,98.4,142.5z"></path>
	<path class="st1" d="M75.8,143.2c-0.9-0.1-1.9-0.2-2.8-0.3c-0.3,0-0.5,0.2-0.5,0.4c0,0.3,0.2,0.5,0.4,0.5c0.9,0.1,1.9,0.2,2.8,0.3   c0,0,0,0,0,0c0.3,0,0.5-0.2,0.5-0.5C76.3,143.4,76.1,143.2,75.8,143.2z"></path>
	<path class="st1" d="M81.5,143.4c-0.9,0-1.9-0.1-2.8-0.1c-0.3,0-0.5,0.2-0.5,0.5c0,0.3,0.2,0.5,0.5,0.5c0.9,0,1.9,0.1,2.8,0.1   c0,0,0,0,0,0c0.3,0,0.5-0.2,0.5-0.5C82,143.7,81.8,143.5,81.5,143.4z"></path>
	<polygon class="st1" points="147.4,122.5 148.8,118.7 144.8,119.5  "></polygon>
	<path class="st1" d="M104.5,46.9c0.9,0.1,1.9,0.2,2.8,0.3c0,0,0.1,0,0.1,0c0.2,0,0.5-0.2,0.5-0.4c0-0.3-0.1-0.5-0.4-0.6   c-0.9-0.1-1.9-0.3-2.8-0.4c-0.3,0-0.5,0.2-0.5,0.5C104,46.6,104.2,46.8,104.5,46.9z"></path>
	<path class="st1" d="M110,47.7c0.9,0.2,1.8,0.4,2.7,0.7c0,0,0.1,0,0.1,0c0.2,0,0.4-0.1,0.5-0.4c0.1-0.3-0.1-0.5-0.4-0.6   c-0.9-0.2-1.9-0.5-2.8-0.7c-0.3-0.1-0.5,0.1-0.6,0.4C109.6,47.4,109.8,47.7,110,47.7z"></path>
	<path class="st1" d="M93.2,46.9C93.2,46.9,93.3,46.9,93.2,46.9c1-0.1,1.9-0.2,2.9-0.2c0.3,0,0.5-0.3,0.5-0.5s-0.2-0.5-0.5-0.5   c-0.9,0.1-1.9,0.1-2.8,0.2c-0.3,0-0.5,0.3-0.4,0.5C92.8,46.7,93,46.9,93.2,46.9z"></path>
	<path class="st1" d="M115.5,49.2c0.9,0.3,1.8,0.6,2.6,0.9c0.1,0,0.1,0,0.2,0c0.2,0,0.4-0.1,0.5-0.3c0.1-0.3,0-0.5-0.3-0.6   c-0.9-0.3-1.8-0.7-2.7-0.9c-0.3-0.1-0.5,0.1-0.6,0.3C115.1,48.8,115.2,49.1,115.5,49.2z"></path>
	<path class="st1" d="M98.9,46.6C98.9,46.6,98.9,46.6,98.9,46.6l0.4,0c0.8,0,1.6,0,2.4,0.1c0,0,0,0,0,0c0.3,0,0.5-0.2,0.5-0.5   c0-0.3-0.2-0.5-0.5-0.5c-0.8,0-1.6-0.1-2.5-0.1l-0.4,0c-0.3,0-0.5,0.2-0.5,0.5C98.4,46.4,98.6,46.6,98.9,46.6z"></path>
	<path class="st1" d="M142.5,64.1c0.1,0.1,0.2,0.1,0.3,0.1c0.2,0,0.3-0.1,0.4-0.2c0.2-0.2,0.1-0.5-0.1-0.7c-0.8-0.5-1.6-1.1-2.3-1.6   c-0.2-0.2-0.5-0.1-0.7,0.1c-0.2,0.2-0.1,0.5,0.1,0.7C141,63,141.8,63.5,142.5,64.1z"></path>
	<path class="st1" d="M120.7,51.1c0.9,0.4,1.7,0.8,2.6,1.2c0.1,0,0.1,0,0.2,0c0.2,0,0.4-0.1,0.5-0.3c0.1-0.2,0-0.5-0.2-0.7   c-0.9-0.4-1.7-0.8-2.6-1.2c-0.3-0.1-0.5,0-0.7,0.3C120.3,50.7,120.5,51,120.7,51.1z"></path>
	<path class="st1" d="M147.2,67.3c0.1,0.1,0.2,0.1,0.3,0.1c0.2,0,0.3-0.1,0.4-0.2c0.2-0.2,0.1-0.5-0.1-0.7l-2.3-1.6   c-0.2-0.2-0.5-0.1-0.7,0.1c-0.2,0.2-0.1,0.5,0.1,0.7L147.2,67.3z"></path>
	<path class="st1" d="M87.6,47.7C87.7,47.7,87.7,47.7,87.6,47.7c1-0.2,2-0.3,2.9-0.5c0.3,0,0.5-0.3,0.4-0.6c0-0.3-0.3-0.5-0.6-0.4   c-0.9,0.1-1.9,0.3-2.8,0.5c-0.3,0-0.5,0.3-0.4,0.6C87.2,47.5,87.4,47.7,87.6,47.7z"></path>
	<path class="st1" d="M125.8,53.6c0.8,0.4,1.7,0.9,2.5,1.3c0.1,0,0.2,0.1,0.2,0.1c0.2,0,0.3-0.1,0.4-0.3c0.1-0.2,0-0.5-0.2-0.7   c-0.8-0.5-1.7-0.9-2.5-1.4c-0.2-0.1-0.5,0-0.7,0.2C125.5,53.1,125.5,53.4,125.8,53.6z"></path>
	<path class="st1" d="M130.7,56.3c0.8,0.5,1.6,1,2.4,1.5c0.1,0.1,0.2,0.1,0.3,0.1c0.2,0,0.3-0.1,0.4-0.2c0.1-0.2,0.1-0.5-0.2-0.7   c-0.8-0.5-1.6-1-2.4-1.5c-0.2-0.1-0.5-0.1-0.7,0.2C130.4,55.9,130.5,56.2,130.7,56.3z"></path>
	<path class="st1" d="M135.5,59.3c0.8,0.5,1.6,1,2.4,1.6c0.1,0.1,0.2,0.1,0.3,0.1c0.2,0,0.3-0.1,0.4-0.2c0.2-0.2,0.1-0.5-0.1-0.7   c-0.8-0.5-1.6-1.1-2.4-1.6c-0.2-0.1-0.5-0.1-0.7,0.1C135.2,58.9,135.3,59.2,135.5,59.3z"></path>
	<path class="st1" d="M50.5,61.3c0.1,0,0.2,0,0.2-0.1c0.9-0.4,1.7-0.8,2.5-1.2c0.2-0.1,0.4-0.4,0.2-0.7c-0.1-0.2-0.4-0.4-0.7-0.2   c-0.8,0.4-1.7,0.8-2.5,1.3C50,60.5,49.9,60.8,50,61C50.1,61.2,50.3,61.3,50.5,61.3z"></path>
	<path class="st1" d="M55.6,58.8c0.1,0,0.1,0,0.2,0c0.9-0.4,1.7-0.8,2.6-1.2c0.3-0.1,0.4-0.4,0.2-0.7c-0.1-0.3-0.4-0.4-0.7-0.2   c-0.8,0.4-1.7,0.8-2.6,1.2c-0.3,0.1-0.4,0.4-0.2,0.7C55.2,58.7,55.4,58.8,55.6,58.8z"></path>
	<path class="st1" d="M45.4,63.9c0.1,0,0.2,0,0.2-0.1c0.8-0.4,1.7-0.9,2.5-1.3c0.2-0.1,0.3-0.4,0.2-0.7c-0.1-0.2-0.4-0.3-0.7-0.2   c-0.8,0.4-1.7,0.9-2.5,1.3C45,63,44.9,63.3,45,63.6C45.1,63.8,45.2,63.9,45.4,63.9z"></path>
	<path class="st1" d="M60.7,56.5c0.1,0,0.1,0,0.2,0c0.9-0.4,1.7-0.8,2.6-1.1c0.3-0.1,0.4-0.4,0.3-0.7c-0.1-0.3-0.4-0.4-0.7-0.3   c-0.9,0.4-1.7,0.7-2.6,1.1c-0.3,0.1-0.4,0.4-0.3,0.7C60.4,56.3,60.5,56.5,60.7,56.5z"></path>
	<path class="st1" d="M82.1,48.9c0,0,0.1,0,0.1,0c0.9-0.2,1.8-0.4,2.7-0.6c0.3-0.1,0.4-0.3,0.4-0.6s-0.3-0.4-0.6-0.4   c-0.9,0.2-1.8,0.4-2.8,0.6c-0.3,0.1-0.4,0.3-0.4,0.6C81.7,48.8,81.9,48.9,82.1,48.9z"></path>
	<path class="st1" d="M76.6,50.4c0,0,0.1,0,0.1,0c0.9-0.3,1.8-0.5,2.7-0.8c0.3-0.1,0.4-0.4,0.3-0.6c-0.1-0.3-0.3-0.4-0.6-0.3   c-0.9,0.3-1.8,0.5-2.7,0.8c-0.3,0.1-0.4,0.4-0.3,0.6C76.2,50.3,76.4,50.4,76.6,50.4z"></path>
	<path class="st1" d="M71.3,52.2c0.1,0,0.1,0,0.2,0c0.9-0.3,1.8-0.6,2.7-0.9c0.3-0.1,0.4-0.4,0.3-0.6s-0.4-0.4-0.6-0.3   c-0.9,0.3-1.8,0.6-2.7,0.9c-0.3,0.1-0.4,0.4-0.3,0.6C70.9,52.1,71,52.2,71.3,52.2z"></path>
	<path class="st1" d="M66,54.3c0.1,0,0.1,0,0.2,0c0.9-0.4,1.8-0.7,2.6-1c0.3-0.1,0.4-0.4,0.3-0.6c-0.1-0.3-0.4-0.4-0.6-0.3   c-0.9,0.3-1.8,0.7-2.6,1c-0.3,0.1-0.4,0.4-0.3,0.7C65.6,54.1,65.8,54.3,66,54.3z"></path>
	<path class="st1" d="M41.1,66.2c0.7-0.4,1.4-0.7,2-1.1c0.2-0.1,0.3-0.4,0.2-0.7c-0.1-0.2-0.4-0.3-0.7-0.2c-0.7,0.4-1.4,0.7-2,1.1   L40,64.1l-2.1,3.4l4,0.1L41.1,66.2z"></path>
</g>
</svg>
