<?xml version="1.0" encoding="UTF-8"?>
<!-- Generator: Adobe Illustrator 23.1.0, SVG Export Plug-In . SVG Version: 6.00 Build 0)  -->
<svg xmlns="http://www.w3.org/2000/svg" xmlns:xlink="http://www.w3.org/1999/xlink" version="1.1" id="Слой_1" x="0px" y="0px" viewBox="0 0 188.8 188.8" style="enable-background:new 0 0 188.8 188.8;" xml:space="preserve">
<style type="text/css">
	.st0{fill:#FFF1EF;}
	.st1{fill:#A87E72;}
</style>
<circle class="st0" cx="94.4" cy="94.4" r="94.4"></circle>
<g>
	<path class="st1" d="M142,56.4c-15.9-7.5-31.4-13.9-46-18.8c-0.3-0.1-0.5,0.1-0.6,0.3c-0.1,0.3,0.1,0.5,0.3,0.6   c14.6,5,30,11.3,45.9,18.8c3.3,1.6,6,4.3,7.4,7.7c1.3,3,1.6,6.4,0.8,9.6L131,150.7c-0.1,0.3,0.1,0.5,0.4,0.6c0,0,0.1,0,0.1,0   c0.2,0,0.4-0.2,0.5-0.4l18.8-76.1c0.8-3.4,0.5-7-0.8-10.2C148.4,61,145.6,58.1,142,56.4z"></path>
	<path class="st1" d="M117.4,81.5c0.2-0.2,1.9-2,1.3-3.9c-0.6-1.5-2.6-2.5-6.2-2.9c-0.3,0-0.5,0.2-0.5,0.5c0,0.3,0.2,0.5,0.5,0.5   c3.9,0.4,5.1,1.4,5.4,2.2c0.5,1.3-1.1,2.8-1.1,2.8c0,0,0,0,0,0c0,0,0,0,0,0c-1.1,1.4-2.4,3.3-3.6,5.6c-14.1-4.3-22.3-3.5-41-1.2   c-11.6,1.5-18.4,2.1-33.9-0.7c-0.3,0-0.5,0.1-0.6,0.4c0,0.3,0.1,0.5,0.4,0.6c7.9,1.4,13.5,2,18.7,2c5.1,0,9.7-0.5,15.5-1.2   c18.5-2.3,26.6-3.1,40.4,1.1c-4.5,8.8-8.7,23.3-6.7,41.5c0.9,8.5,1.5,15.6,1.8,21.7c0,0.3,0.2,0.5,0.5,0.5c0,0,0,0,0,0   c0.3,0,0.5-0.2,0.5-0.5c-0.3-6.2-0.9-13.3-1.8-21.8C104.2,105.1,112.2,87.9,117.4,81.5z"></path>
	<path class="st1" d="M143.6,73.6c0,0,0.1,0,0.1,0c0.2,0,0.4-0.1,0.5-0.4c0.2-0.7,0.3-1.5,0.3-2.3c0-3.3-1.9-6.4-5-7.8   c-0.2-0.1-0.5,0-0.7,0.2c-0.1,0.3,0,0.5,0.2,0.7c2.7,1.2,4.4,3.9,4.4,6.9c0,0.7-0.1,1.3-0.3,2C143.2,73.3,143.3,73.5,143.6,73.6z"></path>
	<path class="st1" d="M65.8,54.9c0.9,0.2,1.8,0.4,2.8,0.5c0,0,0.1,0,0.1,0c0.2,0,0.4-0.2,0.5-0.4c0.1-0.3-0.1-0.5-0.4-0.6   c-0.9-0.2-1.9-0.4-2.8-0.5c-0.3-0.1-0.5,0.1-0.6,0.4C65.3,54.5,65.5,54.8,65.8,54.9z"></path>
	<path class="st1" d="M71.4,55.9c0.9,0.2,1.9,0.3,2.8,0.5c0,0,0.1,0,0.1,0c0.2,0,0.5-0.2,0.5-0.4c0-0.3-0.1-0.5-0.4-0.6   c-0.9-0.2-1.9-0.3-2.8-0.5c-0.3,0-0.5,0.1-0.6,0.4S71.1,55.9,71.4,55.9z"></path>
	<path class="st1" d="M60.2,53.6c0.9,0.2,1.8,0.5,2.8,0.7c0,0,0.1,0,0.1,0c0.2,0,0.4-0.2,0.5-0.4c0.1-0.3-0.1-0.5-0.4-0.6   c-0.9-0.2-1.9-0.4-2.7-0.7c-0.3-0.1-0.5,0.1-0.6,0.4C59.8,53.2,59.9,53.5,60.2,53.6z"></path>
	<path class="st1" d="M49.5,49.6c0.8,0.4,1.7,0.9,2.6,1.3c0.1,0,0.1,0,0.2,0c0.2,0,0.4-0.1,0.5-0.3c0.1-0.3,0-0.5-0.3-0.7   c-0.9-0.4-1.7-0.8-2.5-1.2c-0.2-0.1-0.5,0-0.7,0.2C49.1,49.2,49.2,49.5,49.5,49.6z"></path>
	<path class="st1" d="M47,48.1c0.1,0.1,0.2,0.1,0.3,0.1c0.2,0,0.3-0.1,0.4-0.2c0.2-0.2,0.1-0.5-0.1-0.7c-0.8-0.6-1.4-1.2-2-1.9   c-0.2-0.2-0.5-0.2-0.7-0.1s-0.2,0.5-0.1,0.7C45.5,46.7,46.2,47.4,47,48.1z"></path>
	<path class="st1" d="M54.7,51.9c0.9,0.3,1.8,0.6,2.7,0.9c0,0,0.1,0,0.1,0c0.2,0,0.4-0.1,0.5-0.4c0.1-0.3-0.1-0.5-0.3-0.6   c-0.9-0.3-1.8-0.6-2.7-0.9c-0.3-0.1-0.5,0-0.6,0.3C54.3,51.6,54.5,51.8,54.7,51.9z"></path>
	<path class="st1" d="M77,56.8c0.9,0.1,1.9,0.3,2.8,0.4c0,0,0,0,0.1,0c0.2,0,0.5-0.2,0.5-0.4c0-0.3-0.1-0.5-0.4-0.6   c-0.9-0.1-1.9-0.3-2.8-0.4c-0.3,0-0.5,0.1-0.6,0.4C76.5,56.5,76.7,56.8,77,56.8z"></path>
	<path class="st1" d="M127,66.5c-0.2-0.1-0.5-0.1-0.7,0.2s-0.1,0.5,0.2,0.7c0.8,0.5,1.6,1.1,2.2,1.6c0.1,0.1,0.2,0.1,0.3,0.1   c0.1,0,0.3-0.1,0.4-0.2c0.2-0.2,0.2-0.5,0-0.7C128.7,67.7,127.9,67.1,127,66.5z"></path>
	<path class="st1" d="M102.3,60.5C102.3,60.5,102.3,60.5,102.3,60.5c0.3,0,0.5-0.2,0.6-0.4c0-0.3-0.1-0.5-0.4-0.6   c-0.9-0.2-1.9-0.3-2.8-0.4c-0.3,0-0.5,0.1-0.6,0.4c0,0.3,0.1,0.5,0.4,0.6C100.4,60.2,101.3,60.3,102.3,60.5z"></path>
	<path class="st1" d="M113.4,62.6c0,0,0.1,0,0.1,0c0.2,0,0.4-0.2,0.5-0.4c0.1-0.3-0.1-0.5-0.4-0.6c-0.9-0.2-1.8-0.4-2.8-0.6   c-0.3-0.1-0.5,0.1-0.6,0.4c-0.1,0.3,0.1,0.5,0.4,0.6C111.6,62.2,112.5,62.4,113.4,62.6z"></path>
	<path class="st1" d="M107.8,61.5C107.9,61.5,107.9,61.5,107.8,61.5c0.3,0,0.5-0.2,0.6-0.4c0.1-0.3-0.1-0.5-0.4-0.6   c-0.9-0.2-1.9-0.3-2.8-0.5c-0.3,0-0.5,0.1-0.6,0.4c0,0.3,0.1,0.5,0.4,0.6C106,61.1,106.9,61.3,107.8,61.5z"></path>
	<path class="st1" d="M119.5,63.8c0.1-0.3-0.1-0.5-0.3-0.6c-0.9-0.3-1.8-0.5-2.7-0.8c-0.3-0.1-0.5,0.1-0.6,0.4   c-0.1,0.3,0.1,0.5,0.4,0.6c0.9,0.3,1.8,0.5,2.7,0.8c0,0,0.1,0,0.1,0C119.2,64.1,119.4,64,119.5,63.8z"></path>
	<path class="st1" d="M124.5,65.2c-0.8-0.4-1.7-0.8-2.7-1.1c-0.3-0.1-0.5,0-0.6,0.3s0,0.5,0.3,0.6c0.9,0.3,1.8,0.7,2.6,1.1   c0.1,0,0.1,0,0.2,0c0.2,0,0.4-0.1,0.5-0.3C124.9,65.6,124.7,65.3,124.5,65.2z"></path>
	<path class="st1" d="M93.9,59.2c0.9,0.1,1.9,0.3,2.8,0.4c0,0,0,0,0.1,0c0.2,0,0.5-0.2,0.5-0.4c0-0.3-0.1-0.5-0.4-0.6   c-0.9-0.1-1.9-0.3-2.8-0.4c-0.3,0-0.5,0.2-0.6,0.4S93.6,59.2,93.9,59.2z"></path>
	<path class="st1" d="M88.2,58.4l2.8,0.4c0,0,0,0,0.1,0c0.2,0,0.5-0.2,0.5-0.4c0-0.3-0.2-0.5-0.4-0.6l-2.8-0.4   c-0.3,0-0.5,0.2-0.6,0.4C87.8,58.1,88,58.4,88.2,58.4z"></path>
	<path class="st1" d="M82.6,57.6l2.8,0.4c0,0,0,0,0.1,0c0.2,0,0.5-0.2,0.5-0.4c0-0.3-0.2-0.5-0.4-0.6l-2.8-0.4   c-0.3,0-0.5,0.2-0.6,0.4C82.1,57.4,82.3,57.6,82.6,57.6z"></path>
	<path class="st1" d="M131.6,76.6l2.2-3.3l-1.5-0.1c-0.2-0.9-0.5-1.8-1-2.7c-0.1-0.2-0.5-0.3-0.7-0.2c-0.2,0.1-0.3,0.5-0.2,0.7   c0.4,0.7,0.7,1.4,0.8,2.1l-1.5-0.1L131.6,76.6z"></path>
	<path class="st1" d="M113.3,112.5c0-0.3-0.2-0.5-0.4-0.6c-0.3,0-0.5,0.2-0.6,0.4c-0.1,1-0.2,1.9-0.3,2.8c0,0.3,0.2,0.5,0.5,0.5   c0,0,0,0,0,0c0.3,0,0.5-0.2,0.5-0.5C113.1,114.3,113.2,113.4,113.3,112.5z"></path>
	<path class="st1" d="M113.7,109.7c0.1-0.9,0.3-1.9,0.4-2.8c0-0.3-0.1-0.5-0.4-0.6c-0.3-0.1-0.5,0.1-0.6,0.4   c-0.2,0.9-0.3,1.9-0.5,2.8c0,0.3,0.1,0.5,0.4,0.6c0,0,0,0,0.1,0C113.4,110.1,113.6,109.9,113.7,109.7z"></path>
	<path class="st1" d="M114.9,100.8c-0.3-0.1-0.5,0.1-0.6,0.4c-0.2,0.9-0.4,1.9-0.6,2.8c-0.1,0.3,0.1,0.5,0.4,0.6c0,0,0.1,0,0.1,0   c0.2,0,0.4-0.2,0.5-0.4c0.2-0.9,0.4-1.8,0.6-2.7C115.4,101.1,115.2,100.8,114.9,100.8z"></path>
	<path class="st1" d="M113.1,135c0-0.3-0.3-0.5-0.5-0.5c-0.3,0-0.5,0.3-0.5,0.5c0,0.6,0.1,1,0.1,1.5l-1.4,0.2l2.4,3.2l1.6-3.7   l-1.5,0.2C113.2,136,113.1,135.5,113.1,135z"></path>
	<path class="st1" d="M121.2,85c-0.2-0.1-0.5-0.1-0.7,0.2c-0.5,0.8-0.9,1.7-1.3,2.5c-0.1,0.2,0,0.5,0.2,0.7c0.1,0,0.1,0.1,0.2,0.1   c0.2,0,0.4-0.1,0.4-0.3c0.4-0.8,0.9-1.7,1.3-2.5C121.6,85.4,121.5,85.1,121.2,85z"></path>
	<path class="st1" d="M118.6,90c-0.3-0.1-0.5,0-0.7,0.3c-0.4,0.9-0.7,1.8-1.1,2.6c-0.1,0.3,0,0.5,0.3,0.6c0.1,0,0.1,0,0.2,0   c0.2,0,0.4-0.1,0.5-0.3c0.3-0.9,0.7-1.7,1.1-2.6C119,90.5,118.9,90.2,118.6,90z"></path>
	<path class="st1" d="M116.6,95.3c-0.3-0.1-0.5,0.1-0.6,0.3c-0.3,0.9-0.6,1.8-0.9,2.7c-0.1,0.3,0.1,0.5,0.3,0.6c0,0,0.1,0,0.1,0   c0.2,0,0.4-0.1,0.5-0.4c0.3-0.9,0.5-1.8,0.8-2.7C117,95.7,116.8,95.4,116.6,95.3z"></path>
	<path class="st1" d="M111.6,124.7c0,0.6,0,1.2,0,1.8c0,0.3,0.2,0.5,0.5,0.5c0,0,0,0,0,0c0.3,0,0.5-0.2,0.5-0.5c0-0.6,0-1.2,0-1.8   l0-1c0-0.3-0.2-0.5-0.5-0.5c0,0,0,0,0,0c-0.3,0-0.5,0.2-0.5,0.5L111.6,124.7z"></path>
	<path class="st1" d="M112.4,132.7C112.4,132.7,112.4,132.7,112.4,132.7c0.3,0,0.5-0.3,0.5-0.5c-0.1-0.9-0.1-1.8-0.1-2.8   c0-0.3-0.3-0.5-0.5-0.5c-0.3,0-0.5,0.2-0.5,0.5c0,1,0.1,2,0.1,2.8C111.9,132.5,112.1,132.7,112.4,132.7z"></path>
	<path class="st1" d="M112.2,121.4C112.2,121.4,112.2,121.4,112.2,121.4c0.3,0,0.5-0.2,0.5-0.5c0-0.9,0.1-1.9,0.1-2.8   c0-0.3-0.2-0.5-0.5-0.5c-0.3,0-0.5,0.2-0.5,0.5c-0.1,1-0.1,1.9-0.1,2.8C111.7,121.1,111.9,121.4,112.2,121.4z"></path>
</g>
</svg>
