<?xml version="1.0" encoding="UTF-8"?>
<!-- Generator: Adobe Illustrator 23.1.0, SVG Export Plug-In . SVG Version: 6.00 Build 0)  -->
<svg xmlns="http://www.w3.org/2000/svg" xmlns:xlink="http://www.w3.org/1999/xlink" version="1.1" id="Слой_1" x="0px" y="0px" viewBox="0 0 188.8 188.8" style="enable-background:new 0 0 188.8 188.8;" xml:space="preserve">
<style type="text/css">
	.st0{fill:#FFF1EF;}
	.st1{fill:#A87E72;}
</style>
<circle class="st0" cx="94.4" cy="94.4" r="94.4"></circle>
<g>
	<path class="st1" d="M147,117.1c-0.4-4-1-7.8-1.7-11.4c0.1-0.2,0-0.4-0.1-0.6c-2.9-13.9-7.6-24.4-11-31.9c-1.7-3.7-3-6.6-3.7-8.9   c-1.7-5.8,0.3-13.5,2.3-21.5c0.4-1.5,0.8-3,1.1-4.5c0.1-0.3-0.1-0.5-0.4-0.6c-0.3-0.1-0.5,0.1-0.6,0.4c-0.4,1.5-0.8,3-1.1,4.5   c-2.1,8.2-4.1,15.9-2.3,22c0.7,2.4,2,5.4,3.7,9.1c3.4,7.4,8.1,17.9,11,31.7c-8.6,8.9-32.3,14.5-49.7,14.5l-1.7,0   c-15.7,0-27.2,0-48.9-11c2.7-15.6,8-27.1,11.7-35.2c1.7-3.7,3.1-6.7,3.8-9.1c1.8-6.1-0.2-13.9-2.3-22.1c-0.4-1.6-0.8-3.3-1.3-4.9   c-0.1-0.3-0.3-0.4-0.6-0.4c-0.3,0.1-0.4,0.3-0.4,0.6c0.4,1.7,0.8,3.3,1.3,5c2.1,8.1,4.1,15.7,2.3,21.5c-0.7,2.4-2,5.3-3.7,9   c-5.7,12.4-15.3,33.2-13.2,64.2c0.9,13.9,1.4,13.9,1.9,13.9c0,0,0,0,0,0c0.3,0,0.5-0.2,0.5-0.5c0-0.1,0-0.2-0.1-0.3   c-0.1-0.3-0.6-2.1-1.3-13.2c-0.4-6.4-0.3-12.4,0.1-18c4.8,5.8,12.6,10.2,21.5,15.2c8,4.5,17,9.5,26.2,16.8c0.1,0.1,0.2,0.1,0.3,0.1   h3.5h3.5c0.1,0,0.2,0,0.3-0.1c9.2-7.3,18.2-12.3,26.2-16.8c9.2-5.2,17.3-9.6,22-15.8c0.5,5.8,0.7,12,0.3,18.7   c-0.6,10.1-2,13.3-2.1,13.3c-0.1,0.2,0,0.5,0.2,0.7c0.1,0,0.1,0.1,0.2,0.1c0.2,0,0.4-0.1,0.4-0.3c0.1-0.1,1.6-3.3,2.2-13.7   c0.4-7.2,0.2-13.9-0.4-20C147.1,117.4,147.1,117.2,147,117.1z M123.6,133.8c-8,4.5-17,9.5-26.2,16.7h-3.3h-3.3   c-9.2-7.2-18.2-12.3-26.2-16.7c-9.3-5.2-17.3-9.7-21.9-15.7c0.3-2.8,0.6-5.5,1-8.1c21.1,10.6,32.5,10.9,47.5,10.9   c0.5,0,1.1,0,1.6,0l1.7,0c14.9,0,39.9-4.4,49.9-14.3c0.7,3.4,1.2,6.9,1.6,10.7C141.5,123.8,133.6,128.2,123.6,133.8z"></path>
	<path class="st1" d="M94.1,93.5c0.1,0,0.3,0,0.4,0c0.3-0.1,0.4-0.3,0.4-0.6c-0.1-0.3-0.3-0.4-0.6-0.4c-0.2,0.1-0.3,0-0.3,0   c-0.4-0.4-0.4-2.3,0.6-5.6c0.1-0.3-0.1-0.5-0.3-0.6c-0.3-0.1-0.5,0.1-0.6,0.3c-1,3.5-1.2,5.7-0.4,6.6   C93.4,93.3,93.7,93.5,94.1,93.5z"></path>
	<path class="st1" d="M67.1,54.6c0.2,0.9,0.3,1.9,0.5,2.8c0,0.2,0.3,0.4,0.5,0.4c0,0,0,0,0.1,0c0.3,0,0.5-0.3,0.4-0.6   c-0.1-0.9-0.3-1.9-0.5-2.8c0-0.3-0.3-0.5-0.6-0.4C67.3,54.1,67.1,54.3,67.1,54.6z"></path>
	<path class="st1" d="M66.6,51.8c0,0.2,0.3,0.4,0.5,0.4c0,0,0.1,0,0.1,0c0.3-0.1,0.4-0.3,0.4-0.6c-0.2-0.9-0.4-1.8-0.6-2.8   c-0.1-0.3-0.3-0.4-0.6-0.4c-0.3,0.1-0.4,0.3-0.4,0.6C66.2,50,66.4,50.9,66.6,51.8z"></path>
	<path class="st1" d="M66.3,80.2c0.1,0,0.1,0,0.2,0c0.2,0,0.4-0.1,0.5-0.3c0.3-0.9,0.6-1.8,0.9-2.7c0.1-0.3-0.1-0.5-0.3-0.6   c-0.3-0.1-0.5,0.1-0.6,0.3c-0.2,0.9-0.5,1.8-0.9,2.7C65.9,79.8,66,80.1,66.3,80.2z"></path>
	<path class="st1" d="M75.7,111.4c0.5,0.1,1,0.1,1.4,0.1l0,1.5l3.5-1.9l-3.4-2.1l0,1.5c-0.5,0-0.9-0.1-1.4-0.1   c-0.3,0-0.5,0.2-0.6,0.4C75.3,111.2,75.5,111.4,75.7,111.4z"></path>
	<path class="st1" d="M67.9,60.2c0.1,1,0.2,1.9,0.2,2.8c0,0.3,0.2,0.5,0.5,0.5c0,0,0,0,0,0c0.3,0,0.5-0.3,0.5-0.5   C69.1,62,69,61,68.9,60.1c0-0.3-0.3-0.5-0.5-0.4C68.1,59.7,67.9,59.9,67.9,60.2z"></path>
	<path class="st1" d="M65.4,106.9c-0.2-0.2-0.5-0.1-0.7,0.1c-0.2,0.2-0.1,0.5,0.1,0.7c0.8,0.5,1.6,1,2.5,1.4c0.1,0,0.1,0,0.2,0   c0.2,0,0.4-0.1,0.5-0.3c0.1-0.2,0-0.5-0.2-0.7C67,107.9,66.2,107.4,65.4,106.9z"></path>
	<path class="st1" d="M59.4,97.5c-0.3,0-0.5,0.3-0.5,0.5c0.1,1,0.3,2,0.6,2.9c0.1,0.2,0.3,0.3,0.5,0.3c0.1,0,0.1,0,0.2,0   c0.3-0.1,0.4-0.4,0.3-0.6C60.2,99.8,60,98.9,60,98C60,97.7,59.7,97.5,59.4,97.5z"></path>
	<path class="st1" d="M63.9,85.3c0.1,0,0.2,0.1,0.2,0.1c0.2,0,0.4-0.1,0.4-0.3c0.4-0.9,0.9-1.7,1.2-2.6c0.1-0.3,0-0.5-0.3-0.7   c-0.3-0.1-0.5,0-0.7,0.3c-0.4,0.8-0.8,1.7-1.2,2.5C63.6,84.9,63.7,85.2,63.9,85.3z"></path>
	<path class="st1" d="M59.8,92.3c-0.3,0.9-0.6,1.9-0.7,2.8c0,0.3,0.2,0.5,0.4,0.6c0,0,0,0,0.1,0c0.2,0,0.5-0.2,0.5-0.4   c0.1-0.9,0.3-1.8,0.6-2.7c0.1-0.3,0-0.5-0.3-0.6C60.1,91.9,59.9,92,59.8,92.3z"></path>
	<path class="st1" d="M61.1,90.3c0.1,0,0.2,0.1,0.2,0.1c0.2,0,0.4-0.1,0.4-0.3c0.2-0.3,0.3-0.6,0.5-0.9c0.3-0.5,0.6-1,0.9-1.5   c0.1-0.2,0.1-0.5-0.2-0.7c-0.2-0.1-0.5-0.1-0.7,0.2c-0.3,0.5-0.6,1-0.9,1.5c-0.2,0.3-0.4,0.7-0.6,1C60.8,89.8,60.9,90.1,61.1,90.3z   "></path>
	<path class="st1" d="M62.6,105.9c0.1,0.1,0.2,0.1,0.4,0.1c0.1,0,0.3,0,0.4-0.1c0.2-0.2,0.2-0.5,0-0.7c-0.7-0.7-1.2-1.4-1.7-2.1   c-0.1-0.2-0.5-0.3-0.7-0.2c-0.2,0.1-0.3,0.5-0.2,0.7C61.3,104.4,61.9,105.2,62.6,105.9z"></path>
	<path class="st1" d="M70.1,110.3c0.9,0.3,1.8,0.5,2.8,0.7c0,0,0.1,0,0.1,0c0.2,0,0.4-0.2,0.5-0.4c0.1-0.3-0.1-0.5-0.4-0.6   c-0.9-0.2-1.8-0.4-2.7-0.7c-0.3-0.1-0.5,0.1-0.6,0.3C69.7,109.9,69.8,110.2,70.1,110.3z"></path>
	<path class="st1" d="M68.4,74.3c0.2-0.9,0.3-1.9,0.5-2.8c0-0.3-0.2-0.5-0.4-0.6c-0.3,0-0.5,0.2-0.6,0.4c-0.1,0.9-0.3,1.9-0.5,2.8   c-0.1,0.3,0.1,0.5,0.4,0.6c0,0,0.1,0,0.1,0C68.2,74.7,68.4,74.6,68.4,74.3z"></path>
	<path class="st1" d="M69.2,68.7c0.1-0.9,0.1-1.8,0.1-2.8v-0.1c0-0.3-0.2-0.5-0.5-0.5s-0.5,0.3-0.5,0.5c0,0.9,0,1.8-0.1,2.7   c0,0.3,0.2,0.5,0.5,0.5c0,0,0,0,0,0C68.9,69.1,69.2,68.9,69.2,68.7z"></path>
	<path class="st1" d="M126.2,85.1c0.1,0.2,0.3,0.3,0.4,0.3c0.1,0,0.2,0,0.2-0.1c0.2-0.1,0.3-0.4,0.2-0.7c-0.4-0.8-0.8-1.7-1.2-2.5   c-0.1-0.3-0.4-0.4-0.7-0.3c-0.3,0.1-0.4,0.4-0.3,0.7C125.3,83.4,125.7,84.3,126.2,85.1z"></path>
	<path class="st1" d="M127.8,106c0.1,0,0.3,0,0.4-0.1c0.7-0.7,1.3-1.5,1.8-2.3c0.1-0.2,0.1-0.5-0.2-0.7c-0.2-0.1-0.5-0.1-0.7,0.2   c-0.5,0.8-1,1.5-1.7,2.1c-0.2,0.2-0.2,0.5,0,0.7C127.5,106,127.6,106,127.8,106z"></path>
	<path class="st1" d="M122.1,63.5C122.1,63.5,122.1,63.5,122.1,63.5c0.3,0,0.5-0.2,0.5-0.5c0-0.9,0.1-1.8,0.2-2.8   c0-0.3-0.2-0.5-0.4-0.5c-0.3,0-0.5,0.2-0.5,0.4c-0.1,1-0.2,1.9-0.2,2.8C121.6,63.2,121.8,63.4,122.1,63.5z"></path>
	<path class="st1" d="M122.1,69.1C122.1,69.1,122.1,69.1,122.1,69.1c0.3,0,0.5-0.3,0.5-0.5c-0.1-0.9-0.1-1.8-0.1-2.7l-0.5-0.1h0.5   c0-0.3-0.2-0.5-0.5-0.5c-0.3,0-0.5,0.3-0.5,0.5c0,0.9,0,1.9,0.1,2.8C121.6,68.9,121.8,69.1,122.1,69.1z"></path>
	<path class="st1" d="M122.9,74.7c0.3-0.1,0.4-0.3,0.4-0.6c-0.2-0.9-0.3-1.8-0.5-2.8c0-0.3-0.3-0.5-0.6-0.4c-0.3,0-0.5,0.3-0.4,0.6   c0.1,1,0.3,1.9,0.5,2.8C122.4,74.6,122.6,74.7,122.9,74.7C122.9,74.7,122.9,74.7,122.9,74.7z"></path>
	<path class="st1" d="M123.3,76.5c-0.3,0.1-0.4,0.3-0.3,0.6c0.3,0.9,0.5,1.8,0.9,2.7c0.1,0.2,0.3,0.3,0.5,0.3c0.1,0,0.1,0,0.2,0   c0.3-0.1,0.4-0.4,0.3-0.6c-0.3-0.9-0.6-1.8-0.9-2.7C123.9,76.6,123.6,76.4,123.3,76.5z"></path>
	<path class="st1" d="M128.4,89.1c0.2,0.3,0.4,0.6,0.5,1c0.1,0.2,0.3,0.3,0.4,0.3c0.1,0,0.2,0,0.2-0.1c0.2-0.1,0.3-0.4,0.2-0.7   c-0.2-0.3-0.4-0.7-0.6-1c-0.3-0.5-0.6-1-0.9-1.5c-0.1-0.2-0.4-0.3-0.7-0.2c-0.2,0.1-0.3,0.4-0.2,0.7   C127.8,88.1,128.1,88.6,128.4,89.1z"></path>
	<path class="st1" d="M130.4,91.9c-0.3,0.1-0.4,0.4-0.3,0.6c0.3,0.9,0.5,1.8,0.6,2.7c0,0.3,0.2,0.4,0.5,0.4c0,0,0,0,0.1,0   c0.3,0,0.5-0.3,0.4-0.6c-0.1-0.9-0.4-1.9-0.7-2.8C130.9,92,130.6,91.9,130.4,91.9z"></path>
	<path class="st1" d="M123.6,52.2c0,0,0.1,0,0.1,0c0.2,0,0.4-0.2,0.5-0.4c0.2-0.9,0.4-1.8,0.6-2.8c0.1-0.3-0.1-0.5-0.4-0.6   c-0.3-0.1-0.5,0.1-0.6,0.4c-0.2,0.9-0.4,1.9-0.6,2.8C123.1,51.9,123.3,52.2,123.6,52.2z"></path>
	<path class="st1" d="M130.8,98c-0.1,0.9-0.3,1.8-0.5,2.7c-0.1,0.3,0.1,0.5,0.3,0.6c0.1,0,0.1,0,0.2,0c0.2,0,0.4-0.1,0.5-0.3   c0.3-0.9,0.5-1.9,0.6-2.9c0-0.3-0.2-0.5-0.5-0.5C131.1,97.5,130.8,97.7,130.8,98z"></path>
	<path class="st1" d="M123.1,109.3c0.1,0,0.1,0,0.2,0c0.9-0.4,1.7-0.9,2.5-1.4c0.2-0.2,0.3-0.5,0.1-0.7c-0.2-0.2-0.5-0.3-0.7-0.1   c-0.7,0.5-1.5,1-2.4,1.4c-0.3,0.1-0.4,0.4-0.2,0.7C122.8,109.1,123,109.3,123.1,109.3z"></path>
	<path class="st1" d="M117.8,111c0,0,0.1,0,0.1,0c1-0.2,1.9-0.4,2.8-0.7c0.3-0.1,0.4-0.4,0.3-0.6c-0.1-0.3-0.4-0.4-0.6-0.3   c-0.9,0.3-1.8,0.5-2.7,0.7c-0.3,0.1-0.4,0.3-0.4,0.6C117.3,110.8,117.5,111,117.8,111z"></path>
	<path class="st1" d="M122.6,57.8C122.6,57.8,122.7,57.8,122.6,57.8c0.3,0,0.5-0.2,0.6-0.4c0.1-0.9,0.3-1.8,0.5-2.8   c0-0.3-0.1-0.5-0.4-0.6c-0.3-0.1-0.5,0.1-0.6,0.4c-0.2,1-0.3,1.9-0.5,2.8C122.1,57.5,122.3,57.8,122.6,57.8z"></path>
	<path class="st1" d="M113.6,111.6c0.5,0,1-0.1,1.4-0.1c0.3,0,0.5-0.3,0.4-0.6c0-0.3-0.3-0.5-0.6-0.4c-0.4,0-0.9,0.1-1.4,0.1l0-1.5   l-3.4,2.1l3.5,1.9L113.6,111.6z"></path>
</g>
</svg>
