<svg width="38" height="51" viewBox="0 0 38 51" fill="none" xmlns="http://www.w3.org/2000/svg">
<path id="Vector" d="M28.9365 24.1856C30.4518 23.4356 31.8066 22.3979 32.9253 21.1302C34.7832 18.9975 35.7848 16.2519 35.7364 13.4239C35.7364 9.31572 34.3092 6.05955 31.4817 3.73682C28.8822 1.63116 25.5555 0.605469 21.3171 0.605469H0V50.0667H20.8449C25.5229 50.0667 29.4249 48.9813 32.4531 46.8919C35.8776 44.3901 37.6142 40.7866 37.6142 36.1737C37.6444 33.0099 36.4572 29.9555 34.2983 27.6425C32.8222 26.0672 30.9806 24.8799 28.9365 24.1856ZM29.2295 20.327C27.1619 21.9551 24.5461 22.7583 21.2465 22.7583H3.27787V3.88335H21.1868C24.6329 3.88335 27.2867 4.6594 29.3272 6.24407C31.4275 7.91014 32.4911 10.3251 32.4911 13.4239C32.538 14.7514 32.2664 16.0707 31.699 17.2717C31.1315 18.4727 30.2848 19.5203 29.2295 20.327ZM3.27787 26.0361H21.1868C24.9531 26.0361 28.0519 26.8828 30.4126 28.5651C31.6679 29.4031 32.6873 30.5492 33.3733 31.8936C34.0593 33.2381 34.389 34.736 34.3309 36.2442C34.3309 39.7066 33.0718 42.4093 30.608 44.2598C28.2256 45.9368 25.143 46.7834 21.4527 46.7834H3.27787V26.0361Z" fill="#42474E"/>
</svg>
