<?xml version="1.0" encoding="UTF-8"?>
<!-- Generator: Adobe Illustrator 23.1.0, SVG Export Plug-In . SVG Version: 6.00 Build 0)  -->
<svg xmlns="http://www.w3.org/2000/svg" xmlns:xlink="http://www.w3.org/1999/xlink" version="1.1" id="Слой_1" x="0px" y="0px" viewBox="0 0 188.8 188.8" style="enable-background:new 0 0 188.8 188.8;" xml:space="preserve">
<style type="text/css">
	.st0{fill:#FFF1EF;}
	.st1{fill:#A87E72;}
</style>
<circle class="st0" cx="94.4" cy="94.4" r="94.4"></circle>
<g>
	<path class="st1" d="M108.7,65.2c1.2-0.9,1.9-2.2,1.9-3.5v-12c2.4,1.4,3.7,3,4,4.7c0.3,2.1-1.3,3.8-1.3,3.8   c-0.2,0.2-0.2,0.4-0.1,0.6c0.1,0.2,0.3,0.3,0.5,0.3c0.1,0,3.2-0.7,4.7-5.9c0.9-3.2-1.2-4.8-3.5-6.4c-1.5-1.1-3.2-2.3-4.4-4.2   l-0.1-0.2c0,0,0-0.1-0.1-0.1c-0.1-0.2-0.3-0.3-0.5-0.4c-0.7-0.3-1.6,0.1-1.8,0.9c0,0.1-0.1,0.2-0.1,0.4v15.5c0,0.3,0.2,0.5,0.5,0.5   s0.5-0.2,0.5-0.5l0-15.6c0-0.2,0.3-0.3,0.4-0.2c0,0,0.1,0,0.1,0.1l0.1,0.2c1.3,2.1,3.1,3.4,4.7,4.5c2.2,1.6,3.9,2.8,3.1,5.3   c-0.6,2.1-1.5,3.4-2.2,4.2c0.3-0.8,0.5-1.7,0.4-2.7c-0.3-2.1-1.9-4-4.7-5.6c-0.2-0.1-0.3-0.2-0.5-0.3c-0.2-0.1-0.3-0.1-0.5,0   c-0.2,0.1-0.3,0.3-0.3,0.4v12.9c0,1.1-0.5,2.1-1.5,2.7c-0.7,0.5-1.7,0.8-2.7,0.8c-2.3,0-4.1-1.6-4.1-3.6s1.8-3.6,4.1-3.6   c0.3,0,0.5-0.2,0.5-0.5s-0.2-0.5-0.5-0.5c-2.8,0-5.1,2.1-5.1,4.6c0,2.5,2.3,4.6,5.1,4.6C106.7,66.3,107.8,65.9,108.7,65.2z"></path>
	<path class="st1" d="M97.6,66c-1.5-1.1-3.2-2.3-4.4-4.2c0-0.1-0.1-0.1-0.1-0.2c0,0,0-0.1-0.1-0.1c-0.1-0.2-0.3-0.3-0.5-0.4   c-0.7-0.3-1.6,0.2-1.8,0.9c0,0.1-0.1,0.2-0.1,0.4v15.5c0,0.3,0.2,0.5,0.5,0.5s0.5-0.2,0.5-0.5l0-15.6c0-0.2,0.3-0.3,0.4-0.2   c0,0,0.1,0,0.1,0.1c0,0.1,0.1,0.1,0.1,0.2c1.3,2.1,3.1,3.4,4.7,4.5c2.2,1.6,3.9,2.8,3.1,5.3c-0.6,2.1-1.5,3.4-2.2,4.2   c0.3-0.8,0.5-1.7,0.4-2.7c-0.3-2.1-1.9-4-4.7-5.6c-0.2-0.1-0.3-0.2-0.5-0.3c-0.2-0.1-0.3-0.1-0.5,0c-0.2,0.1-0.3,0.3-0.3,0.4V81   c0,1.1-0.5,2.1-1.5,2.7c-0.7,0.5-1.7,0.8-2.7,0.8c-2.3,0-4.1-1.6-4.1-3.6s1.8-3.6,4.1-3.6c0.3,0,0.5-0.2,0.5-0.5s-0.2-0.5-0.5-0.5   c-2.8,0-5.1,2.1-5.1,4.6c0,2.5,2.3,4.6,5.1,4.6c1.2,0,2.3-0.4,3.3-1c1.2-0.9,1.9-2.2,1.9-3.5V69c2.4,1.4,3.7,3,4,4.7   c0.3,2.1-1.3,3.8-1.3,3.8c-0.2,0.2-0.2,0.4-0.1,0.6c0.1,0.2,0.3,0.3,0.5,0.3c0.1,0,3.2-0.7,4.7-5.9C102.1,69.2,99.9,67.7,97.6,66z"></path>
	<path class="st1" d="M77.4,67.5c1.2,0,2.3-0.4,3.3-1c1.2-0.9,1.9-2.2,1.9-3.5V51c2.4,1.4,3.7,3,4,4.7c0.3,2.1-1.3,3.8-1.3,3.8   C85,59.6,85,59.9,85.1,60c0.1,0.2,0.3,0.3,0.5,0.3c0.1,0,3.2-0.7,4.7-5.9c0.9-3.2-1.2-4.8-3.5-6.4c-1.5-1.1-3.2-2.3-4.4-4.2   c0-0.1-0.1-0.1-0.1-0.2c0,0,0-0.1-0.1-0.1c-0.1-0.2-0.3-0.3-0.5-0.4C81,42.8,80.1,43.2,80,44c0,0.1-0.1,0.2-0.1,0.4v15.5   c0,0.3,0.2,0.5,0.5,0.5s0.5-0.2,0.5-0.5l0-15.6c0.1-0.2,0.3-0.3,0.4-0.2c0,0,0.1,0,0.1,0.1c0,0.1,0.1,0.1,0.1,0.2   c1.3,2.1,3.1,3.4,4.7,4.5c2.2,1.6,3.9,2.8,3.1,5.3c-0.6,2.1-1.5,3.4-2.2,4.2c0.3-0.8,0.5-1.7,0.4-2.7c-0.3-2.1-1.9-4-4.7-5.6   l-0.5-0.3c-0.2-0.1-0.3-0.1-0.5,0c-0.2,0.1-0.3,0.3-0.3,0.4V63c0,1.1-0.5,2.1-1.5,2.7c-0.7,0.5-1.7,0.8-2.7,0.8   c-2.3,0-4.1-1.6-4.1-3.6s1.8-3.6,4.1-3.6c0.3,0,0.5-0.2,0.5-0.5s-0.2-0.5-0.5-0.5c-2.8,0-5.1,2.1-5.1,4.6S74.6,67.5,77.4,67.5z"></path>
	<path class="st1" d="M50.4,85.8V74.1c0-0.3-0.2-0.5-0.5-0.5s-0.5,0.2-0.5,0.5v11.7c0,1.4-1.1,2.5-2.5,2.5h-2.7   c-0.3,0-0.5,0.2-0.5,0.5s0.2,0.5,0.5,0.5h2.7C48.8,89.4,50.4,87.8,50.4,85.8z"></path>
	<path class="st1" d="M49.9,71.4c0.3,0,0.5-0.2,0.5-0.5v-1.2c0-0.3-0.2-0.5-0.5-0.5s-0.5,0.2-0.5,0.5v1.2   C49.4,71.2,49.6,71.4,49.9,71.4z"></path>
	<path class="st1" d="M60.3,104.4c-7.4-2.2-11.9-3.5-12-12.8H49c2,0,3.5-1.6,3.5-3.5v-20h7h2.3c2.6,0,4.7-2.1,4.7-4.7V44.6   c0-2.6-2.1-4.7-4.7-4.7h-2.3h-8.7c-7.7,0-14,6.3-14,14c0,2.6,0.7,5.1,2,7.2V88c0,2,1.6,3.5,3.5,3.5h0.4c0.2,13.4,8.2,15.8,16,18.1   c5.1,1.5,10.3,3,14.2,7.8c4.3,5.1,7,18.2,7,33.5c0,0.3,0.2,0.5,0.5,0.5s0.5-0.2,0.5-0.5c0-12.3-1.9-27.7-7.2-34.1   c-4.1-5-9.5-6.6-14.7-8.1c-7.4-2.2-15.1-4.5-15.3-17.1h3.5c0.2,10.1,5.5,11.6,12.8,13.8c5.4,1.6,11.6,3.4,16.4,9.2   c5,5.9,8.1,19.9,8.1,36.3c0,0.3,0.2,0.5,0.5,0.5s0.5-0.2,0.5-0.5c0-13.1-2.2-29.7-8.3-37C72.2,107.9,65.9,106,60.3,104.4z    M65.6,44.6v18.6c0,2.1-1.7,3.7-3.7,3.7h-1.8V40.9h1.8C64,40.9,65.6,42.5,65.6,44.6z M50.9,40.9h8.2v26.1h-7h-1.2   c-0.6,0-1.1,0-1.7-0.1c-2.2-0.3-4.3-1.1-6-2.4c-0.1-0.1-0.2-0.2-0.3-0.3c-0.3-0.3-0.6-0.5-0.9-0.8c-0.8-0.8-1.5-1.6-2.1-2.6   c0,0,0,0,0,0c0,0,0,0,0,0c-1.3-2-1.9-4.4-1.9-6.8C37.9,46.7,43.7,40.9,50.9,40.9z M43.3,90.5h-0.9c-1.4,0-2.5-1.1-2.5-2.5V62.6   c0,0,0,0,0,0.1c0.3,0.4,0.6,0.7,0.9,1c0.1,0.1,0.1,0.1,0.2,0.2c0.3,0.3,0.7,0.6,1,0.9c0.1,0.1,0.1,0.1,0.2,0.1   c0.4,0.3,0.7,0.6,1.1,0.8c0,0,0.1,0,0.1,0.1c0.4,0.2,0.8,0.5,1.2,0.7c0,0,0.1,0,0.1,0.1c0.4,0.2,0.8,0.4,1.3,0.5   c0.1,0,0.1,0.1,0.2,0.1c0.4,0.1,0.9,0.3,1.3,0.4c0.1,0,0.2,0,0.2,0.1c0.5,0.1,0.9,0.2,1.4,0.2c0.1,0,0.1,0,0.2,0   c0.5,0.1,1,0.1,1.5,0.1h0.7v20c0,1.4-1.1,2.5-2.5,2.5h-1.2H43.3z"></path>
	<path class="st1" d="M46.3,62.6c0,0-0.8-0.4-1.8-1.3c-0.2-0.2-0.5-0.1-0.7,0.1c-0.2,0.2-0.1,0.5,0.1,0.7c1.1,0.9,2,1.4,2,1.4   c0.1,0,0.2,0.1,0.2,0.1c0.2,0,0.4-0.1,0.4-0.3C46.7,63,46.6,62.7,46.3,62.6z"></path>
	<path class="st1" d="M41.4,58.9c0.1,0,0.2,0,0.2-0.1c0.2-0.1,0.3-0.4,0.2-0.7c-0.8-1.3-1.2-2.8-1.2-4.3c0-6,6.2-10.7,11.4-10.7   c0.3,0,0.5-0.2,0.5-0.5s-0.2-0.5-0.5-0.5c-5.6,0-12.4,5.2-12.4,11.7c0,1.7,0.4,3.3,1.3,4.8C41,58.8,41.2,58.9,41.4,58.9z"></path>
	<path class="st1" d="M137.8,39.9h-8.7h-2.3c-2.6,0-4.7,2.1-4.7,4.7v18.6c0,2.6,2.1,4.7,4.7,4.7h2.3h7v20c0,2,1.6,3.5,3.5,3.5h0.7   c-0.2,9.3-4.7,10.7-12,12.8c-5.6,1.6-11.9,3.5-16.9,9.5c-6.1,7.3-8.3,23.9-8.3,37c0,0.3,0.2,0.5,0.5,0.5s0.5-0.2,0.5-0.5   c0-16.5,3.1-30.4,8.1-36.3c4.8-5.8,11-7.6,16.4-9.2c7.3-2.2,12.6-3.7,12.8-13.8h3.5c-0.2,12.7-7.9,14.9-15.3,17.1   c-5.2,1.5-10.6,3.1-14.7,8.1c-5.3,6.4-7.3,21.8-7.3,34.1c0,0.3,0.2,0.5,0.5,0.5s0.5-0.2,0.5-0.5c0-15.2,2.8-28.4,7-33.5   c4-4.7,9.2-6.3,14.3-7.8c7.8-2.3,15.8-4.7,16-18.1h0.4c2,0,3.5-1.6,3.5-3.5V61.1c1.3-2.2,2-4.7,2-7.2   C151.8,46.2,145.5,39.9,137.8,39.9z M123,63.2V44.6c0-2.1,1.7-3.7,3.7-3.7h1.8v26.1h-1.8C124.7,66.9,123,65.3,123,63.2z    M129.6,40.9h8.2c7.2,0,13,5.8,13,13c0,2.4-0.7,4.8-1.9,6.8c-2.4,3.9-6.5,6.2-11.1,6.2h-1.2h-7V40.9z M148.8,88   c0,1.4-1.1,2.5-2.5,2.5h-0.9h-4.5h-1.2c-1.4,0-2.5-1.1-2.5-2.5v-20h0.7c0.5,0,1,0,1.5-0.1c0.1,0,0.1,0,0.2,0   c0.5-0.1,0.9-0.1,1.4-0.2c0.1,0,0.2,0,0.2-0.1c0.4-0.1,0.9-0.2,1.3-0.4c0.1,0,0.1-0.1,0.2-0.1c0.4-0.2,0.9-0.3,1.3-0.5   c0,0,0.1,0,0.1-0.1c0.4-0.2,0.8-0.4,1.2-0.7c0,0,0.1,0,0.1-0.1c0.4-0.2,0.8-0.5,1.1-0.8c0.1,0,0.1-0.1,0.2-0.1   c0.3-0.3,0.7-0.6,1-0.9c0.1-0.1,0.1-0.1,0.2-0.2c0.3-0.3,0.6-0.7,0.9-1c0,0,0,0,0-0.1V88z"></path>
	<path class="st1" d="M144.5,88.4h-2.7c-1.4,0-2.5-1.1-2.5-2.5V74.1c0-0.3-0.2-0.5-0.5-0.5s-0.5,0.2-0.5,0.5v11.7   c0,2,1.6,3.5,3.5,3.5h2.7c0.3,0,0.5-0.2,0.5-0.5S144.8,88.4,144.5,88.4z"></path>
	<path class="st1" d="M138.8,71.4c0.3,0,0.5-0.2,0.5-0.5v-1.2c0-0.3-0.2-0.5-0.5-0.5s-0.5,0.2-0.5,0.5v1.2   C138.3,71.2,138.5,71.4,138.8,71.4z"></path>
	<path class="st1" d="M144.2,61.3c-1,0.8-1.8,1.3-1.8,1.3c-0.2,0.1-0.3,0.4-0.2,0.7c0.1,0.2,0.3,0.3,0.4,0.3c0.1,0,0.2,0,0.2-0.1   c0,0,0.9-0.5,2-1.4c0.2-0.2,0.2-0.5,0.1-0.7C144.7,61.2,144.4,61.1,144.2,61.3z"></path>
	<path class="st1" d="M148,53.9c0,1.5-0.4,2.9-1.2,4.3c-0.1,0.2-0.1,0.5,0.2,0.7c0.1,0,0.2,0.1,0.2,0.1c0.2,0,0.3-0.1,0.4-0.3   c0.9-1.5,1.3-3.1,1.3-4.8c0-6.5-6.8-11.7-12.4-11.7c-0.3,0-0.5,0.2-0.5,0.5s0.2,0.5,0.5,0.5C141.8,43.1,148,47.9,148,53.9z"></path>
	<path class="st1" d="M77.1,61.1c0.3-0.1,0.4-0.3,0.4-0.6c-0.1-0.3-0.3-0.4-0.6-0.4c-1.6,0.3-2.3,1.3-2.5,2.1   c-0.3,0.9-0.2,1.9,0.1,2.3c0.1,0.1,0.3,0.2,0.4,0.2c0.1,0,0.2,0,0.3-0.1c0.2-0.2,0.3-0.5,0.1-0.7c-0.1-0.1-0.2-0.9,0.2-1.6   C75.7,61.6,76.2,61.2,77.1,61.1z"></path>
	<path class="st1" d="M105.1,59.7c0.3-0.1,0.4-0.3,0.4-0.6s-0.3-0.4-0.6-0.4c-1.6,0.3-2.3,1.3-2.5,2.1c-0.3,0.9-0.2,1.9,0.1,2.3   c0.1,0.1,0.3,0.2,0.4,0.2c0.1,0,0.2,0,0.3-0.1c0.2-0.2,0.3-0.5,0.1-0.7c-0.1-0.1-0.2-0.9,0.2-1.6C103.7,60.3,104.2,59.9,105.1,59.7   z"></path>
	<path class="st1" d="M88,79c0.3-0.1,0.4-0.3,0.4-0.6c-0.1-0.3-0.3-0.4-0.6-0.4c-1.6,0.3-2.3,1.3-2.5,2.1c-0.3,0.9-0.2,1.9,0.1,2.3   c0.1,0.1,0.3,0.2,0.4,0.2c0.1,0,0.2,0,0.3-0.1c0.2-0.2,0.3-0.5,0.1-0.7c-0.1-0.1-0.2-0.9,0.2-1.6C86.6,79.6,87.2,79.2,88,79z"></path>
</g>
</svg>
