<?xml version="1.0" encoding="UTF-8"?>
<!-- Generator: Adobe Illustrator 23.1.0, SVG Export Plug-In . SVG Version: 6.00 Build 0)  -->
<svg xmlns="http://www.w3.org/2000/svg" xmlns:xlink="http://www.w3.org/1999/xlink" version="1.1" id="Слой_1" x="0px" y="0px" viewBox="0 0 188.8 188.8" style="enable-background:new 0 0 188.8 188.8;" xml:space="preserve">
<style type="text/css">
	.st0{fill:#FFF1EF;}
	.st1{fill:#A87E72;}
</style>
<circle class="st0" cx="94.4" cy="94.4" r="94.4"></circle>
<g>
	<path class="st1" d="M81.4,131.7c0.3,0,0.5-0.2,0.5-0.5c0-7.2-5.1-14.5-9.7-20.9c-1.6-2.3-3.2-4.5-4.4-6.6   c-2.9-4.8-4.5-10.4-4.5-16c0-8.6,3.6-16.9,9.9-22.7c6.4-5.9,14.7-8.9,23.4-8.3c15.1,1,27.5,13.2,28.7,28.3c0.5,6.6-0.9,13-4.3,18.6   c-1.3,2.2-3,4.5-4.7,6.9c-4.7,6.5-9.5,13.2-9.5,20.3c0,0.3,0.2,0.5,0.5,0.5s0.5-0.2,0.5-0.5c0-6.7,4.7-13.3,9.3-19.7   c1.7-2.4,3.4-4.7,4.7-7c3.4-5.8,5-12.4,4.4-19.2c-1.3-15.6-14-28.2-29.7-29.3c-9-0.6-17.6,2.4-24.2,8.5c-6.5,6-10.2,14.6-10.2,23.4   c0,5.8,1.6,11.6,4.6,16.6c1.3,2.1,2.8,4.3,4.5,6.6c4.7,6.6,9.5,13.4,9.5,20.4C80.9,131.5,81.1,131.7,81.4,131.7z"></path>
	<path class="st1" d="M102.2,116.3c0.3,0,0.5-0.2,0.5-0.5c0-3.9,2.8-7.9,5.5-11.6c1-1.5,2-2.8,2.8-4.2c0.1-0.2,0.1-0.5-0.2-0.7   c-0.2-0.1-0.5-0.1-0.7,0.2c-0.8,1.3-1.8,2.7-2.8,4.1c-2.8,3.9-5.7,8-5.7,12.2C101.7,116.1,101.9,116.3,102.2,116.3z"></path>
	<path class="st1" d="M107.4,76.3c-0.2,0.2-0.2,0.5,0,0.7c3.1,3.1,5,7.1,5.3,11.4c0,0.3,0.2,0.5,0.5,0.5c0,0,0,0,0,0   c0.3,0,0.5-0.3,0.5-0.5c-0.4-4.5-2.4-8.8-5.6-12C107.9,76.2,107.6,76.2,107.4,76.3z"></path>
	<path class="st1" d="M95.7,71.7c2.3,0.2,4.5,0.8,6.6,1.8c0.2,0.1,0.5,0,0.7-0.2s0-0.5-0.2-0.7c-2.2-1.1-4.6-1.7-7-1.9   c-5.2-0.4-10.2,1.3-14.1,4.7c-0.2,0.2-0.2,0.5,0,0.7c0.1,0.1,0.2,0.2,0.4,0.2c0.1,0,0.2,0,0.3-0.1C86,73,90.8,71.4,95.7,71.7z"></path>
	<path class="st1" d="M78.4,79.1c-2.2,3.2-3.4,7-3.4,10.9c0,0.3,0.2,0.5,0.5,0.5S76,90.3,76,90c0-3.7,1.1-7.3,3.2-10.3   c0.2-0.2,0.1-0.5-0.1-0.7C78.9,78.8,78.6,78.9,78.4,79.1z"></path>
	<path class="st1" d="M85,110.3c-0.3,0.1-0.4,0.4-0.2,0.7c0.9,1.9,1.3,3.6,1.3,5.2c0,0.3,0.2,0.5,0.5,0.5s0.5-0.2,0.5-0.5   c0-1.7-0.5-3.5-1.4-5.6C85.6,110.2,85.3,110.1,85,110.3z"></path>
	<path class="st1" d="M116.3,94.2c-0.5,1.4-1.2,2.8-2,4.2c-0.1,0.2-0.1,0.5,0.2,0.7c0.1,0,0.2,0.1,0.3,0.1c0.2,0,0.3-0.1,0.4-0.2   c0.8-1.4,1.5-2.8,2-4.4c0.1-0.3,0-0.5-0.3-0.6C116.7,93.8,116.4,94,116.3,94.2z"></path>
	<path class="st1" d="M117.7,91C117.7,91,117.7,91,117.7,91c0.3,0,0.5-0.2,0.6-0.4c0.3-2,0.4-4.1,0.3-6.2   c-1-11.8-10.6-21.3-22.4-22.1c-0.3,0-0.5,0.2-0.5,0.5c0,0.3,0.2,0.5,0.5,0.5c11.3,0.8,20.5,9.9,21.5,21.2c0.2,2,0.1,4-0.3,5.9   C117.2,90.7,117.4,91,117.7,91z"></path>
	<path class="st1" d="M86.7,64.1c-0.1-0.3-0.4-0.4-0.6-0.3c-9.5,3.5-15.8,12.6-15.8,22.7c0,4.4,1.2,8.7,3.5,12.5   c0.1,0.2,0.3,0.2,0.4,0.2c0.1,0,0.2,0,0.3-0.1c0.2-0.1,0.3-0.5,0.2-0.7c-2.2-3.6-3.3-7.7-3.3-12c0-9.7,6.1-18.4,15.2-21.8   C86.6,64.6,86.8,64.4,86.7,64.1z"></path>
	<path class="st1" d="M114.2,134.9H74.7c-0.3,0-0.5,0.2-0.5,0.5s0.2,0.5,0.5,0.5h39.5c1.2,0,2.2,1,2.2,2.2c0,1.2-1,2.2-2.2,2.2   c0,0,0,0,0,0l-5.1,0.1H79.7c-1.8,0-3.2,1.4-3.2,3.2c0,1.7,1.4,3.2,3.2,3.2c0,0,0,0,0,0l4.8,0.1h19.7c1.2,0,2.2,1,2.2,2.2   c0,1.2-1,2.2-2.2,2.2h-9.9c-0.3,0-0.5,0.2-0.5,0.5s0.2,0.5,0.5,0.5h9.9c1.8,0,3.2-1.4,3.2-3.2s-1.4-3.2-3.2-3.2H84.6l-4.8-0.1   c0,0,0,0,0,0c0,0,0,0,0,0c-1.2,0-2.2-1-2.2-2.2c0-1.2,1-2.2,2.2-2.2h29.4l5.1-0.1c0,0,0,0,0,0c1.7,0,3.2-1.4,3.2-3.2   C117.4,136.3,116,134.9,114.2,134.9z"></path>
	<path class="st1" d="M94.4,51.3c0.3,0,0.5-0.2,0.5-0.5V37.2c0-0.3-0.2-0.5-0.5-0.5s-0.5,0.2-0.5,0.5v13.6   C93.9,51.1,94.1,51.3,94.4,51.3z"></path>
	<path class="st1" d="M67.5,61.4c0.1,0.1,0.2,0.1,0.4,0.1s0.3,0,0.4-0.1c0.2-0.2,0.2-0.5,0-0.7l-9.1-9.1c-0.2-0.2-0.5-0.2-0.7,0   s-0.2,0.5,0,0.7L67.5,61.4z"></path>
	<path class="st1" d="M57.6,87.1H44c-0.3,0-0.5,0.2-0.5,0.5s0.2,0.5,0.5,0.5h13.6c0.3,0,0.5-0.2,0.5-0.5S57.9,87.1,57.6,87.1z"></path>
	<path class="st1" d="M67.5,113.9l-9.1,9.1c-0.2,0.2-0.2,0.5,0,0.7c0.1,0.1,0.2,0.1,0.4,0.1s0.3,0,0.4-0.1l9.1-9.1   c0.2-0.2,0.2-0.5,0-0.7S67.7,113.7,67.5,113.9z"></path>
	<path class="st1" d="M121.3,113.9c-0.2-0.2-0.5-0.2-0.7,0s-0.2,0.5,0,0.7l9.1,9.1c0.1,0.1,0.2,0.1,0.4,0.1s0.3,0,0.4-0.1   c0.2-0.2,0.2-0.5,0-0.7L121.3,113.9z"></path>
	<path class="st1" d="M144.8,87.1h-13.6c-0.3,0-0.5,0.2-0.5,0.5s0.2,0.5,0.5,0.5h13.6c0.3,0,0.5-0.2,0.5-0.5S145.1,87.1,144.8,87.1z   "></path>
	<path class="st1" d="M129.7,51.6l-9.1,9.1c-0.2,0.2-0.2,0.5,0,0.7c0.1,0.1,0.2,0.1,0.4,0.1s0.3,0,0.4-0.1l9.1-9.1   c0.2-0.2,0.2-0.5,0-0.7S129.9,51.4,129.7,51.6z"></path>
</g>
</svg>
