<?xml version="1.0" encoding="UTF-8"?>
<!-- Generator: Adobe Illustrator 23.1.0, SVG Export Plug-In . SVG Version: 6.00 Build 0)  -->
<svg xmlns="http://www.w3.org/2000/svg" xmlns:xlink="http://www.w3.org/1999/xlink" version="1.1" id="Слой_1" x="0px" y="0px" viewBox="0 0 188.8 188.8" style="enable-background:new 0 0 188.8 188.8;" xml:space="preserve">
<style type="text/css">
	.st0{fill:#FFF1EF;}
	.st1{fill:#A87E72;}
</style>
<circle class="st0" cx="94.4" cy="94.4" r="94.4"></circle>
<g>
	<path class="st1" d="M94.4,126.3c14.6,0,26.4-11.9,26.4-26.4c0-11.7-16.7-46.7-23.9-61.1c-0.5-1-1.4-1.6-2.5-1.6c0,0,0,0,0,0   c-1.1,0-2,0.6-2.5,1.6C84.7,53.2,68,88.1,68,99.9C68,114.4,79.8,126.3,94.4,126.3z M92.8,39.2c0.3-0.6,0.9-1,1.6-1c0,0,0,0,0,0   c0.7,0,1.3,0.4,1.6,1c5.6,11.2,23.8,48.8,23.8,60.7c0,14-11.4,25.4-25.4,25.4S69,113.9,69,99.9C69,88,87.2,50.4,92.8,39.2z"></path>
	<path class="st1" d="M95.8,118.2c0.3,0,0.5-0.2,0.5-0.5s-0.2-0.5-0.5-0.5c-11,0-19.9-8.9-19.9-19.9c0-0.3-0.2-0.5-0.5-0.5   s-0.5,0.2-0.5,0.5C74.9,108.9,84.3,118.2,95.8,118.2z"></path>
	<path class="st1" d="M60.7,134.7c0-1.5,3.3-3.6,12.7-5.1c0.3,0,0.5-0.3,0.4-0.6c0-0.3-0.3-0.5-0.6-0.4c-5.1,0.8-13.6,2.7-13.6,6.1   c0,5,17.9,7.6,34.8,7.6c11.9,0,22.9-1.3,29.2-3.4c0.3-0.1,0.4-0.4,0.3-0.6s-0.4-0.4-0.6-0.3c-6.3,2.1-17.1,3.3-28.9,3.3   C74.5,141.3,60.7,137.8,60.7,134.7z"></path>
	<path class="st1" d="M128.2,134.7c0,0.3,0.2,0.5,0.5,0.5s0.5-0.2,0.5-0.5c0-2.9-6.3-4.8-11.6-5.8c-0.3,0-0.5,0.1-0.6,0.4   c-0.1,0.3,0.1,0.5,0.4,0.6C125.3,131.4,128.2,133.4,128.2,134.7z"></path>
	<path class="st1" d="M64.2,147c-10.1-2.9-15.9-6.9-15.9-11.2c0-5.4,9.7-10.6,24.7-13.1c0.3,0,0.5-0.3,0.4-0.6   c0-0.3-0.3-0.5-0.6-0.4c-15.8,2.7-25.6,8.1-25.6,14.1c0,4.7,6.1,9.2,16.7,12.1c0,0,0.1,0,0.1,0c0.2,0,0.4-0.1,0.5-0.4   C64.7,147.3,64.5,147,64.2,147z"></path>
	<path class="st1" d="M116.6,121.8c-0.3,0-0.5,0.1-0.6,0.4c0,0.3,0.1,0.5,0.4,0.6c14.6,2.6,24.1,7.7,24.1,13   c0,8.2-20.7,14.8-46.1,14.8c-0.3,0-0.5,0.2-0.5,0.5s0.2,0.5,0.5,0.5c26.4,0,47.1-7,47.1-15.8C141.5,129.9,131.9,124.5,116.6,121.8z   "></path>
	<path class="st1" d="M112.7,108c-0.2,0.2-0.1,0.5,0.1,0.7c0.1,0.1,0.2,0.1,0.3,0.1c0.2,0,0.3-0.1,0.4-0.2c5.8-7.7,0-21-5.8-32.8   c-0.1-0.2-0.4-0.3-0.7-0.2c-0.2,0.1-0.3,0.4-0.2,0.7C112.5,87.8,118.1,100.8,112.7,108z"></path>
	<path class="st1" d="M103.2,69.1c0.1,0.2,0.3,0.3,0.4,0.3c0.1,0,0.2,0,0.2-0.1c0.2-0.1,0.3-0.4,0.2-0.7c-1-1.9-2.1-4.2-3.1-6.5   c-0.1-0.3-0.4-0.4-0.7-0.2c-0.3,0.1-0.4,0.4-0.2,0.7C101.1,64.9,102.2,67.2,103.2,69.1z"></path>
	<path class="st1" d="M97.7,57c0.1,0.2,0.3,0.3,0.5,0.3c0.1,0,0.1,0,0.2,0c0.3-0.1,0.4-0.4,0.3-0.6c-0.4-0.9-0.7-1.9-0.9-2.7   c-0.1-0.3-0.4-0.4-0.6-0.3c-0.3,0.1-0.4,0.4-0.3,0.6C97,55.1,97.3,56,97.7,57z"></path>
</g>
</svg>
