<svg width="26" height="26" viewBox="0 0 26 26" fill="none" xmlns="http://www.w3.org/2000/svg">
<g id="&#208;&#161;&#208;&#187;&#208;&#190;&#208;&#185;_1">
<path id="Vector" d="M25.5001 11.1549C25.5001 12.3799 25.5001 13.6099 25.5001 14.8349C25.4851 14.8199 25.4751 14.8299 25.4751 14.8449C25.4701 14.8799 25.4651 14.9199 25.4651 14.9549C25.4551 15.1599 25.4501 15.3699 25.4351 15.5749C25.4001 16.1799 25.3501 16.7849 25.2801 17.3899C25.2201 17.9049 25.1451 18.4149 25.0201 18.9149C24.7251 20.1199 23.8351 20.9999 22.6201 21.2699C22.1351 21.3799 21.6401 21.4299 21.1451 21.4749C20.3151 21.5549 19.4851 21.5999 18.6501 21.6349C17.8601 21.6699 17.0701 21.6949 16.2801 21.7099C14.8301 21.7399 13.3801 21.7649 11.9301 21.7449C10.6701 21.7299 9.41012 21.7099 8.15012 21.6599C6.99512 21.6199 5.84012 21.5649 4.69012 21.4499C4.27012 21.4099 3.85512 21.3599 3.44512 21.2699C2.45512 21.0549 1.72512 20.4999 1.25512 19.5999C1.07512 19.2549 0.985117 18.8749 0.915117 18.4949C0.735117 17.5499 0.655117 16.5949 0.595117 15.6349C0.565117 15.1199 0.540117 14.6049 0.530117 14.0849C0.530117 14.0599 0.530117 14.0399 0.525117 14.0149C0.520117 13.9999 0.510117 13.9949 0.495117 14.0049C0.495117 13.3499 0.495117 12.6999 0.495117 12.0449C0.520117 12.0499 0.525117 12.0349 0.525117 12.0199C0.530117 11.9749 0.530117 11.9349 0.530117 11.8899C0.540117 11.4549 0.560117 11.0249 0.580117 10.5899C0.620117 9.8449 0.680117 9.0999 0.775117 8.3599C0.835117 7.9149 0.905117 7.4699 1.01512 7.0349C1.31012 5.8799 2.18512 5.0199 3.34012 4.7399C3.81012 4.6249 4.29012 4.5799 4.77512 4.5299C5.57012 4.4499 6.37012 4.4049 7.17012 4.3699C7.88012 4.3399 8.59512 4.3099 9.31012 4.2949C10.6751 4.2599 12.0401 4.2399 13.4101 4.2449C14.9051 4.2499 16.4001 4.2799 17.9001 4.3299C18.3801 4.3449 18.8601 4.3699 19.3401 4.3949C19.9601 4.4299 20.5751 4.4649 21.1951 4.5249C21.6451 4.5699 22.0951 4.6199 22.5401 4.7049C23.1601 4.8249 23.6951 5.0999 24.1501 5.5349C24.6151 5.9849 24.9001 6.5299 25.0451 7.1549C25.2301 7.9749 25.3151 8.8049 25.3851 9.6399C25.4251 10.1149 25.4551 10.5899 25.4701 11.0649C25.4701 11.0899 25.4701 11.1199 25.4851 11.1449C25.4851 11.1699 25.4951 11.1549 25.5001 11.1549ZM10.5201 16.7449C12.6851 15.4949 14.8401 14.2499 16.9951 13.0049C16.9851 12.9749 16.9701 12.9699 16.9551 12.9649C14.8151 11.7299 12.6801 10.4999 10.5401 9.2649C10.5401 9.2649 10.5351 9.2649 10.5301 9.2649C10.5251 9.2649 10.5251 9.2699 10.5201 9.2699C10.5201 11.7599 10.5201 14.2449 10.5201 16.7449Z" fill="white"/>
</g>
</svg>
