<svg width="26" height="26" viewBox="0 0 26 26" fill="none" xmlns="http://www.w3.org/2000/svg">
<g id="&#208;&#161;&#208;&#187;&#208;&#190;&#208;&#185;_1">
<path id="Path-3_2_" fill-rule="evenodd" clip-rule="evenodd" d="M2.22011 11.56C8.93011 8.63498 13.4051 6.70998 15.6451 5.77498C22.0401 3.11498 23.3651 2.65498 24.2301 2.63998C24.4201 2.63498 24.8451 2.68498 25.1201 2.90998C25.3551 3.09998 25.4151 3.35498 25.4501 3.53498C25.4801 3.71498 25.5201 4.11998 25.4901 4.43998C25.1451 8.07998 23.6451 16.915 22.8801 20.99C22.5551 22.715 21.9201 23.295 21.3051 23.35C19.9701 23.475 18.9551 22.465 17.6601 21.62C15.6351 20.29 14.4901 19.465 12.5251 18.17C10.2501 16.67 11.7251 15.85 13.0201 14.505C13.3601 14.155 19.2501 8.79498 19.3651 8.30998C19.3801 8.24998 19.3901 8.02498 19.2601 7.90498C19.1251 7.78498 18.9251 7.82498 18.7851 7.85998C18.5801 7.90498 15.3451 10.045 9.07511 14.28C8.15511 14.91 7.32511 15.22 6.58011 15.2C5.76011 15.18 4.17511 14.735 3.00011 14.355C1.55011 13.875 0.40511 13.63 0.50511 12.83C0.56011 12.415 1.13011 11.995 2.22011 11.56Z" fill="white"/>
</g>
</svg>
