<svg xmlns="http://www.w3.org/2000/svg" xmlns:xlink="http://www.w3.org/1999/xlink" id="&#x421;&#x43B;&#x43E;&#x439;_1" x="0px" y="0px" viewBox="0 0 500 500" style="enable-background:new 0 0 500 500;" xml:space="preserve"><style type="text/css">	.st0{fill:#FFFFFF;}	.st1{fill-rule:evenodd;clip-rule:evenodd;fill:#FFFFFF;}</style><path class="st0" d="M467.6,138.4l0.1,0.6c0.8-6.5,0.1-13.1,0.3-19.6c-22.8,0.3-45.6-6.7-64.7-19c-0.1-0.1-0.4-0.3-0.5-0.4  c-27.1-17.6-46.4-46.5-52.2-78.3c-1.4-7.1-1.9-14.4-2.1-21.6c-28.7,0-57.4,0-86.1,0c0,114,0,227.9,0,341.9  c-0.1,18.6-7.6,37.1-20.8,50.2c-10.9,11.3-25.8,18.8-41.4,20.9c-14.7,2.2-30-0.7-43.2-7.4c-7.9-4.5-15.3-10-21.2-16.9  c-11.3-13-17.9-30.2-17.5-47.6c-0.3-27.7,17.4-54.3,42.7-65.3c15.8-7.1,34.1-8.2,50.6-2.9c0-22.6,0-45.1,0-67.7c0-6.8,0-13.5,0-20.3  c-31.3-4.6-63.9,0.9-92.1,15.1c-28.6,14.3-52.6,37.4-68,65.4c-21.8,39.2-25.6,87.8-10.2,130c11,30.5,31.6,57.4,58.2,75.9  c0.4,0.1,1.2,0.4,1.6,0.5c0.6,0.8,1.3,1.5,2.1,2.1c10.2,6.6,21,12.3,32.5,16.4c35.1,13.1,75,12.9,110.1-0.3  c29.6-11.1,55.8-31.3,73.9-57.2c19-26.8,29.3-59.7,28.9-92.6c0-57.6,0-115.1,0-172.7c34.6,24.5,76.8,38.6,119.3,37.9  c0.3-14.2,0.1-28.5,0.1-42.8C467.9,154.6,468.3,146.5,467.6,138.4z"></path></svg>