<svg xmlns="http://www.w3.org/2000/svg" xmlns:xlink="http://www.w3.org/1999/xlink" id="&#x421;&#x43B;&#x43E;&#x439;_1" x="0px" y="0px" viewBox="0 0 500 500" style="enable-background:new 0 0 500 500;" xml:space="preserve"><style type="text/css">	.st0{fill:#FFFFFF;}	.st1{fill-rule:evenodd;clip-rule:evenodd;fill:#FFFFFF;}</style><path id="Path-3_2_" class="st1" d="M34.4,221.2c134.2-58.5,223.7-97,268.5-115.7c127.9-53.2,154.4-62.4,171.7-62.7  c3.8-0.1,12.3,0.9,17.8,5.4c4.7,3.8,5.9,8.9,6.6,12.5c0.6,3.6,1.4,11.7,0.8,18.1c-6.9,72.8-36.9,249.5-52.2,331  c-6.5,34.5-19.2,46.1-31.5,47.2c-26.7,2.5-47-17.7-72.9-34.6c-40.5-26.6-63.4-43.1-102.7-69c-45.5-30-16-46.4,9.9-73.3  c6.8-7,124.6-114.2,126.9-123.9c0.3-1.2,0.5-5.7-2.1-8.1c-2.7-2.4-6.7-1.6-9.5-0.9c-4.1,0.9-68.8,43.7-194.2,128.4  c-18.4,12.6-35,18.8-49.9,18.4c-16.4-0.4-48.1-9.3-71.6-16.9C21,267.5-1.9,262.6,0.1,246.6C1.2,238.3,12.6,229.9,34.4,221.2z"></path></svg>