<svg xmlns="http://www.w3.org/2000/svg" xmlns:xlink="http://www.w3.org/1999/xlink" id="&#x421;&#x43B;&#x43E;&#x439;_1" x="0px" y="0px" viewBox="0 0 500 500" style="enable-background:new 0 0 500 500;" xml:space="preserve"><style type="text/css">	.st0{fill:#FFFFFF;}	.st1{fill-rule:evenodd;clip-rule:evenodd;fill:#FFFFFF;}</style><path class="st0" d="M500,213.1c0,24.5,0,49.1,0,73.6c-0.3-0.3-0.5-0.1-0.5,0.2c-0.1,0.7-0.2,1.5-0.2,2.2c-0.2,4.1-0.3,8.3-0.6,12.4  c-0.7,12.1-1.7,24.2-3.1,36.3c-1.2,10.3-2.7,20.5-5.2,30.5c-5.9,24.1-23.7,41.7-48,47.1c-9.7,2.2-19.6,3.2-29.5,4.1  c-16.6,1.6-33.2,2.5-49.9,3.2c-15.8,0.7-31.6,1.2-47.4,1.5c-29,0.6-58,1.1-87,0.7c-25.2-0.3-50.4-0.7-75.6-1.7  c-23.1-0.8-46.2-1.9-69.2-4.2c-8.4-0.8-16.7-1.8-24.9-3.6c-19.8-4.3-34.4-15.4-43.8-33.4c-3.6-6.9-5.4-14.5-6.8-22.1  c-3.6-18.9-5.2-38-6.4-57.2c-0.6-10.3-1.1-20.6-1.3-31c0-0.5,0-0.9-0.1-1.4c-0.1-0.3-0.3-0.4-0.6-0.2c0-13.1,0-26.1,0-39.2  c0.5,0.1,0.6-0.2,0.6-0.5c0.1-0.9,0.1-1.7,0.1-2.6c0.2-8.7,0.6-17.3,1-26c0.8-14.9,2-29.8,3.9-44.6c1.2-8.9,2.6-17.8,4.8-26.5  c5.9-23.1,23.4-40.3,46.5-45.9c9.4-2.3,19-3.2,28.7-4.2c15.9-1.6,31.9-2.5,47.9-3.2c14.2-0.6,28.5-1.2,42.8-1.5  c27.3-0.7,54.6-1.1,82-1c29.9,0.1,59.8,0.7,89.8,1.7c9.6,0.3,19.2,0.8,28.8,1.3c12.4,0.7,24.7,1.4,37.1,2.6c9,0.9,18,1.9,26.9,3.6  c12.4,2.4,23.1,7.9,32.2,16.6c9.3,9,15,19.9,17.9,32.4c3.7,16.4,5.4,33,6.8,49.7c0.8,9.5,1.4,19,1.7,28.5c0,0.5,0,1.1,0.3,1.6  C499.7,213.4,499.9,213.1,500,213.1z M200.4,324.9c43.3-25,86.4-49.9,129.5-74.8c-0.2-0.6-0.5-0.7-0.8-0.8  c-42.8-24.7-85.5-49.3-128.3-74c0,0-0.1,0-0.2,0c-0.1,0-0.1,0.1-0.2,0.1C200.4,225.2,200.4,274.9,200.4,324.9z"></path></svg>