<svg width="21" height="22" viewBox="0 0 21 22" fill="none" xmlns="http://www.w3.org/2000/svg">
<path d="M6.75945 21.84C6.26298 21.84 5.83975 21.6514 5.48975 21.2743C5.13975 20.8972 4.96475 20.4439 4.96475 19.9143C4.96475 19.3848 5.14151 18.9333 5.49505 18.56C5.8486 18.1867 6.2736 18 6.77005 18C7.26651 18 7.68975 18.1885 8.03975 18.5656C8.38975 18.9428 8.56475 19.3961 8.56475 19.9256C8.56475 20.4552 8.38798 20.9067 8.03445 21.28C7.6809 21.6533 7.2559 21.84 6.75945 21.84ZM16.7594 21.84C16.263 21.84 15.8397 21.6514 15.4897 21.2743C15.1397 20.8972 14.9647 20.4439 14.9647 19.9143C14.9647 19.3848 15.1415 18.9333 15.495 18.56C15.8486 18.1867 16.2736 18 16.77 18C17.2665 18 17.6897 18.1885 18.0397 18.5656C18.3897 18.9428 18.5647 19.3961 18.5647 19.9256C18.5647 20.4552 18.388 20.9067 18.0344 21.28C17.6809 21.6533 17.2559 21.84 16.7594 21.84ZM4.71475 2.63999H19.4416C19.8243 2.63999 20.1155 2.82666 20.3152 3.19999C20.5149 3.57333 20.5147 3.94666 20.3147 4.31999L16.9397 10.8C16.7564 11.1378 16.5184 11.4089 16.2258 11.6133C15.9331 11.8178 15.6128 11.92 15.2647 11.92H7.68975L6.28975 14.6933H18.5647V16.2933H6.51475C5.81475 16.2933 5.31058 16.0444 5.00225 15.5467C4.69391 15.0489 4.69808 14.4889 5.01475 13.8667L6.61475 10.72L2.81475 2.13333H0.864746V0.533325H3.78975L4.71475 2.63999Z" fill="#A87E72"/>
</svg>
