<svg width="32" height="32" viewBox="0 0 32 32" fill="none" xmlns="http://www.w3.org/2000/svg">
<circle cx="16" cy="16" r="16" fill="#FABFBF"/>
<path d="M21.25 22C19.8944 22 18.5472 21.6667 17.2083 21C15.8694 20.3333 14.6667 19.4667 13.6 18.4C12.5333 17.3333 11.6667 16.1306 11 14.7917C10.3333 13.4528 10 12.1056 10 10.75C10 10.5389 10.0722 10.3611 10.2167 10.2167C10.3611 10.0722 10.5389 10 10.75 10H13.0833C13.2389 10 13.375 10.0528 13.4917 10.1583C13.6083 10.2639 13.6833 10.4056 13.7167 10.5833L14.1667 12.6833C14.1889 12.8389 14.1861 12.9806 14.1583 13.1083C14.1306 13.2361 14.0722 13.3444 13.9833 13.4333L12.3167 15.1167C12.9389 16.15 13.6361 17.05 14.4083 17.8167C15.1806 18.5833 16.0556 19.2333 17.0333 19.7667L18.6167 18.1333C18.7278 18.0111 18.8556 17.925 19 17.875C19.1444 17.825 19.2889 17.8167 19.4333 17.85L21.4167 18.2833C21.5833 18.3167 21.7222 18.4 21.8333 18.5333C21.9444 18.6667 22 18.8222 22 19V21.25C22 21.4611 21.9278 21.6389 21.7833 21.7833C21.6389 21.9278 21.4611 22 21.25 22Z" fill="#F15B67"/>
</svg>
