<svg width="33" height="32" viewBox="0 0 33 32" fill="none" xmlns="http://www.w3.org/2000/svg">
<circle cx="16.5898" cy="16" r="16" fill="url(#paint0_linear_307_49)"/>
<g clip-path="url(#clip0_307_49)">
<g clip-path="url(#clip1_307_49)">
<mask id="mask0_307_49" style="mask-type:luminance" maskUnits="userSpaceOnUse" x="6" y="6" width="21" height="20">
<path d="M6.98975 6.39999H26.1897V25.6H6.98975V6.39999Z" fill="white"/>
</mask>
<g mask="url(#mask0_307_49)">
<path fill-rule="evenodd" clip-rule="evenodd" d="M20.9221 17.9063C20.6835 17.787 19.515 17.2124 19.2969 17.1315C19.0789 17.0533 18.9212 17.0135 18.7621 17.2521C18.603 17.4894 18.1477 18.0243 18.0092 18.1833C17.8707 18.3424 17.7321 18.3616 17.4949 18.2437C17.2576 18.123 16.491 17.8734 15.5831 17.0643C15.0622 16.583 14.6157 16.027 14.2583 15.4144C14.1212 15.1772 14.2446 15.0483 14.3625 14.9303C14.4695 14.8233 14.5998 14.6519 14.7191 14.5134C14.8384 14.3749 14.8782 14.2761 14.9577 14.1157C15.0373 13.958 14.9975 13.8195 14.9372 13.7001C14.8782 13.5808 14.4023 12.411 14.2048 11.9351C14.0128 11.4716 13.8153 11.5347 13.67 11.5264C13.5183 11.5203 13.3665 11.5176 13.2147 11.5182C13.094 11.5211 12.9752 11.549 12.8659 11.6003C12.7566 11.6515 12.6591 11.7249 12.5797 11.8158C12.3616 12.0544 11.7486 12.6291 11.7486 13.7989C11.7486 14.9687 12.5989 16.1001 12.7182 16.2592C12.8375 16.4169 14.3955 18.8183 16.779 19.8483C17.3481 20.0937 17.7897 20.2391 18.1353 20.3488C18.7045 20.5299 19.2229 20.5038 19.6329 20.4421C20.0883 20.3735 21.0387 19.8675 21.2375 19.312C21.435 18.7566 21.435 18.2807 21.3747 18.182C21.3157 18.0832 21.158 18.0229 20.9193 17.9049L20.9221 17.9063ZM16.5843 23.8281H16.5815C15.1647 23.8285 13.7739 23.4477 12.555 22.7255L12.267 22.5541L9.27317 23.3399L10.0727 20.4215L9.88483 20.1225C9.09321 18.8621 8.67434 17.4034 8.6766 15.915C8.67951 13.8182 9.51394 11.8081 10.9969 10.3257C12.4798 8.84326 14.4902 8.00952 16.587 8.00734C18.699 8.00734 20.6848 8.8302 22.1783 10.3251C22.9147 11.0585 23.4983 11.9306 23.8955 12.8911C24.2926 13.8515 24.4953 14.8812 24.4919 15.9205C24.489 18.0168 23.655 20.0265 22.1726 21.5088C20.6903 22.9912 18.6806 23.8252 16.5843 23.8281ZM23.3139 9.19089C22.4324 8.30341 21.3836 7.59973 20.2282 7.12065C19.0727 6.64158 17.8337 6.39664 16.5829 6.40003C11.3399 6.40003 7.07203 10.6679 7.06929 15.9136C7.0669 17.5831 7.50495 19.2237 8.33923 20.6697L6.98975 25.6L12.0325 24.2766C13.4277 25.0369 14.9912 25.4353 16.5801 25.4355H16.5843C21.8272 25.4355 26.0965 21.1676 26.0979 15.9205C26.1017 14.6704 25.8576 13.432 25.3797 12.2769C24.9018 11.1218 24.1997 10.0729 23.3139 9.19089Z" fill="white"/>
</g>
</g>
</g>
<defs>
<linearGradient id="paint0_linear_307_49" x1="8.58984" y1="2.8" x2="16.5898" y2="32" gradientUnits="userSpaceOnUse">
<stop offset="0.176158" stop-color="#7DF160"/>
<stop offset="1" stop-color="#0AD10E"/>
</linearGradient>
<clipPath id="clip0_307_49">
<rect width="19.2" height="19.2" fill="white" transform="translate(6.98975 6.39999)"/>
</clipPath>
<clipPath id="clip1_307_49">
<rect width="19.2" height="19.2" fill="white" transform="translate(6.98975 6.39999)"/>
</clipPath>
</defs>
</svg>
